{
DisplayStrings = (
/uniE104,
/uniE00E
);
date = "2012-06-01 19:49:59 +0000";
familyName = "genicons";
fontMaster = (
{
ascender = 800;
capHeight = 700;
descender = "-200";
id = "8581214D-6E4F-46FC-B69F-48918E6333A9";
weightValue = 400;
widthValue = 5;
xHeight = 500;
}
);
glyphs = (
{
glyphname = .notdef;
lastChange = "2012-08-09 08:55:34 -0700";
layers = (
{
layerId = "8581214D-6E4F-46FC-B69F-48918E6333A9";
name = Regular;
paths = (
{
closed = 1;
nodes = (
"33 0 LINE",
"33 666 LINE",
"298 666 LINE",
"298 0 LINE"
);
},
{
closed = 1;
nodes = (
"66 33 LINE",
"265 33 LINE",
"265 633 LINE",
"66 633 LINE"
);
}
);
width = 364;
}
);
},
{
glyphname = uniE000;
lastChange = "2012-08-09 09:01:22 -0700";
layers = (
{
layerId = "8581214D-6E4F-46FC-B69F-48918E6333A9";
name = Regular;
paths = (
{
closed = 1;
nodes = (
"154 294 LINE SMOOTH",
"137 294 OFFCURVE",
"128 298 OFFCURVE",
"128 305 CURVE SMOOTH",
"128 312 OFFCURVE",
"133 318 OFFCURVE",
"143 325 CURVE",
"614 704 LINE",
"1085 325 LINE",
"1096 318 OFFCURVE",
"1101 312 OFFCURVE",
"1101 305 CURVE SMOOTH",
"1101 298 OFFCURVE",
"1092 294 OFFCURVE",
"1075 294 CURVE SMOOTH",
"1024 294 LINE",
"973 294 LINE",
"973 243 LINE",
"973 -13 LINE",
"973 -64 LINE SMOOTH",
"973 -98 OFFCURVE",
"956 -115 OFFCURVE",
"922 -115 CURVE SMOOTH",
"768 -115 LINE SMOOTH",
"734 -115 OFFCURVE",
"717 -98 OFFCURVE",
"717 -64 CURVE SMOOTH",
"717 141 LINE",
"717 192 LINE",
"665 192 LINE",
"563 192 LINE",
"512 192 LINE",
"512 141 LINE",
"512 -64 LINE SMOOTH",
"512 -98 OFFCURVE",
"495 -115 OFFCURVE",
"461 -115 CURVE SMOOTH",
"307 -115 LINE SMOOTH",
"273 -115 OFFCURVE",
"256 -98 OFFCURVE",
"256 -64 CURVE SMOOTH",
"256 -13 LINE",
"256 243 LINE",
"256 294 LINE",
"205 294 LINE"
);
}
);
width = 1228;
}
);
unicode = E000;
},
{
glyphname = uniE001;
lastChange = "2012-08-09 08:55:34 -0700";
layers = (
{
layerId = "8581214D-6E4F-46FC-B69F-48918E6333A9";
name = Regular;
paths = (
{
closed = 1;
nodes = (
"787 27 LINE SMOOTH",
"810 4 OFFCURVE",
"812 -16 OFFCURVE",
"794 -34 CURVE SMOOTH",
"747 -81 LINE SMOOTH",
"738 -90 OFFCURVE",
"727 -95 OFFCURVE",
"714 -95 CURVE SMOOTH",
"701 -95 OFFCURVE",
"689 -90 OFFCURVE",
"680 -81 CURVE SMOOTH",
"490 109 LINE",
"442 81 OFFCURVE",
"390 67 OFFCURVE",
"334 67 CURVE SMOOTH",
"249 67 OFFCURVE",
"169 105 OFFCURVE",
"111 163 CURVE SMOOTH",
"53 221 OFFCURVE",
"15 301 OFFCURVE",
"15 386 CURVE SMOOTH",
"15 471 OFFCURVE",
"49 549 OFFCURVE",
"105 605 CURVE SMOOTH",
"161 661 OFFCURVE",
"239 695 OFFCURVE",
"324 695 CURVE SMOOTH",
"409 695 OFFCURVE",
"490 658 OFFCURVE",
"548 600 CURVE SMOOTH",
"606 542 OFFCURVE",
"643 461 OFFCURVE",
"643 376 CURVE SMOOTH",
"643 320 OFFCURVE",
"628 267 OFFCURVE",
"598 216 CURVE"
);
},
{
closed = 1;
nodes = (
"131 495 OFFCURVE",
"110 445 OFFCURVE",
"110 386 CURVE SMOOTH",
"110 327 OFFCURVE",
"137 271 OFFCURVE",
"178 230 CURVE SMOOTH",
"219 189 OFFCURVE",
"275 162 OFFCURVE",
"334 162 CURVE SMOOTH",
"393 162 OFFCURVE",
"446 186 OFFCURVE",
"485 225 CURVE SMOOTH",
"524 264 OFFCURVE",
"548 317 OFFCURVE",
"548 376 CURVE SMOOTH",
"548 435 OFFCURVE",
"521 491 OFFCURVE",
"480 532 CURVE SMOOTH",
"439 573 OFFCURVE",
"383 600 OFFCURVE",
"324 600 CURVE SMOOTH",
"265 600 OFFCURVE",
"215 579 OFFCURVE",
"173 537 CURVE SMOOTH"
);
}
);
width = 820;
}
);
unicode = E001;
},
{
glyphname = uniE002;
lastChange = "2012-08-09 08:55:34 -0700";
layers = (
{
layerId = "8581214D-6E4F-46FC-B69F-48918E6333A9";
name = Regular;
paths = (
{
closed = 1;
nodes = (
"888 590 LINE SMOOTH",
"909 590 OFFCURVE",
"916 580 OFFCURVE",
"913 568 CURVE",
"909 556 OFFCURVE",
"897 543 OFFCURVE",
"885 536 CURVE",
"859 523 OFFCURVE",
"828 506 OFFCURVE",
"791 486 CURVE SMOOTH",
"759 469 OFFCURVE",
"720 448 OFFCURVE",
"674 423 CURVE SMOOTH",
"627 398 OFFCURVE",
"573 368 OFFCURVE",
"510 334 CURVE SMOOTH",
"497 327 OFFCURVE",
"482 324 OFFCURVE",
"465 324 CURVE SMOOTH",
"448 324 OFFCURVE",
"433 327 OFFCURVE",
"420 334 CURVE SMOOTH",
"394 347 OFFCURVE",
"363 364 OFFCURVE",
"326 384 CURVE SMOOTH",
"294 401 OFFCURVE",
"255 423 OFFCURVE",
"209 448 CURVE SMOOTH",
"162 473 OFFCURVE",
"108 502 OFFCURVE",
"45 536 CURVE SMOOTH",
"29 545 OFFCURVE",
"20 556 OFFCURVE",
"17 569 CURVE",
"18 582 OFFCURVE",
"27 589 OFFCURVE",
"42 590 CURVE"
);
},
{
closed = 1;
nodes = (
"915 58 LINE SMOOTH",
"915 47 OFFCURVE",
"908 35 OFFCURVE",
"898 26 CURVE SMOOTH",
"888 17 OFFCURVE",
"876 10 OFFCURVE",
"865 10 CURVE SMOOTH",
"65 10 LINE SMOOTH",
"54 10 OFFCURVE",
"43 17 OFFCURVE",
"33 26 CURVE SMOOTH",
"23 35 OFFCURVE",
"15 47 OFFCURVE",
"15 58 CURVE SMOOTH",
"15 425 LINE SMOOTH",
"15 438 OFFCURVE",
"14 441 OFFCURVE",
"34 436 CURVE",
"61 423 OFFCURVE",
"94 406 OFFCURVE",
"131 386 CURVE SMOOTH",
"163 369 OFFCURVE",
"203 348 OFFCURVE",
"251 323 CURVE SMOOTH",
"299 298 OFFCURVE",
"355 268 OFFCURVE",
"420 234 CURVE SMOOTH",
"433 227 OFFCURVE",
"448 224 OFFCURVE",
"465 224 CURVE SMOOTH",
"482 224 OFFCURVE",
"497 227 OFFCURVE",
"510 234 CURVE",
"537 247 OFFCURVE",
"570 264 OFFCURVE",
"607 284 CURVE SMOOTH",
"639 301 OFFCURVE",
"679 323 OFFCURVE",
"727 348 CURVE SMOOTH",
"775 373 OFFCURVE",
"831 402 OFFCURVE",
"896 436 CURVE",
"916 441 OFFCURVE",
"915 438 OFFCURVE",
"915 425 CURVE SMOOTH"
);
}
);
width = 930;
}
);
unicode = E002;
},
{
glyphname = uniE003;
lastChange = "2012-08-09 08:55:34 -0700";
layers = (
{
layerId = "8581214D-6E4F-46FC-B69F-48918E6333A9";
name = Regular;
paths = (
{
closed = 1;
nodes = (
"136 692 LINE SMOOTH",
"136 709 OFFCURVE",
"151 724 OFFCURVE",
"167 724 CURVE SMOOTH",
"183 724 LINE SMOOTH",
"202 724 OFFCURVE",
"215 709 OFFCURVE",
"215 692 CURVE SMOOTH",
"215 557 LINE SMOOTH",
"215 541 OFFCURVE",
"202 527 OFFCURVE",
"183 527 CURVE SMOOTH",
"167 527 LINE SMOOTH",
"151 527 OFFCURVE",
"136 541 OFFCURVE",
"136 557 CURVE SMOOTH"
);
},
{
closed = 1;
nodes = (
"356 692 LINE SMOOTH",
"356 709 OFFCURVE",
"370 724 OFFCURVE",
"386 724 CURVE SMOOTH",
"403 724 LINE SMOOTH",
"420 724 OFFCURVE",
"435 709 OFFCURVE",
"435 692 CURVE SMOOTH",
"435 557 LINE SMOOTH",
"435 541 OFFCURVE",
"420 527 OFFCURVE",
"403 527 CURVE SMOOTH",
"386 527 LINE SMOOTH",
"370 527 OFFCURVE",
"356 541 OFFCURVE",
"356 557 CURVE SMOOTH"
);
},
{
closed = 1;
nodes = (
"575 692 LINE SMOOTH",
"575 709 OFFCURVE",
"589 724 OFFCURVE",
"606 724 CURVE SMOOTH",
"622 724 LINE SMOOTH",
"639 724 OFFCURVE",
"654 709 OFFCURVE",
"654 692 CURVE SMOOTH",
"654 557 LINE SMOOTH",
"654 541 OFFCURVE",
"639 527 OFFCURVE",
"622 527 CURVE SMOOTH",
"606 527 LINE SMOOTH",
"589 527 OFFCURVE",
"575 541 OFFCURVE",
"575 557 CURVE SMOOTH"
);
},
{
closed = 1;
nodes = (
"0 571 LINE SMOOTH",
"0 603 OFFCURVE",
"27 630 OFFCURVE",
"59 630 CURVE SMOOTH",
"97 630 LINE",
"97 557 LINE SMOOTH",
"97 518 OFFCURVE",
"128 487 OFFCURVE",
"167 487 CURVE SMOOTH",
"183 487 LINE SMOOTH",
"223 487 OFFCURVE",
"255 518 OFFCURVE",
"255 557 CURVE SMOOTH",
"255 630 LINE",
"316 630 LINE",
"316 557 LINE SMOOTH",
"316 518 OFFCURVE",
"347 487 OFFCURVE",
"386 487 CURVE SMOOTH",
"403 487 LINE SMOOTH",
"443 487 OFFCURVE",
"474 518 OFFCURVE",
"474 557 CURVE SMOOTH",
"474 630 LINE",
"535 630 LINE",
"535 557 LINE SMOOTH",
"535 518 OFFCURVE",
"567 487 OFFCURVE",
"606 487 CURVE SMOOTH",
"622 487 LINE SMOOTH",
"662 487 OFFCURVE",
"693 518 OFFCURVE",
"693 557 CURVE SMOOTH",
"693 630 LINE",
"731 630 LINE SMOOTH",
"763 630 OFFCURVE",
"789 603 OFFCURVE",
"789 571 CURVE SMOOTH",
"789 -7 LINE SMOOTH",
"789 -39 OFFCURVE",
"763 -66 OFFCURVE",
"731 -66 CURVE SMOOTH",
"59 -66 LINE SMOOTH",
"27 -66 OFFCURVE",
"0 -39 OFFCURVE",
"0 -7 CURVE SMOOTH"
);
},
{
closed = 1;
nodes = (
"79 13 LINE",
"711 13 LINE",
"711 432 LINE",
"79 432 LINE"
);
},
{
closed = 1;
nodes = (
"299 237 LINE",
"313 248 OFFCURVE",
"320 260 OFFCURVE",
"320 275 CURVE SMOOTH",
"320 303 OFFCURVE",
"302 315 OFFCURVE",
"278 315 CURVE SMOOTH",
"261 315 OFFCURVE",
"248 309 OFFCURVE",
"239 298 CURVE",
"234 293 OFFCURVE",
"229 288 OFFCURVE",
"225 281 CURVE",
"189 305 LINE",
"200 324 OFFCURVE",
"216 342 OFFCURVE",
"240 354 CURVE",
"252 359 OFFCURVE",
"266 362 OFFCURVE",
"282 362 CURVE SMOOTH",
"331 362 OFFCURVE",
"374 331 OFFCURVE",
"374 278 CURVE SMOOTH",
"374 249 OFFCURVE",
"360 230 OFFCURVE",
"340 211 CURVE",
"329 202 OFFCURVE",
"319 193 OFFCURVE",
"308 186 CURVE SMOOTH",
"277 166 LINE",
"257 151 OFFCURVE",
"242 137 OFFCURVE",
"242 117 CURVE",
"339 117 LINE",
"339 153 LINE",
"383 153 LINE",
"383 76 LINE",
"188 76 LINE",
"187 85 OFFCURVE",
"186 93 OFFCURVE",
"186 101 CURVE SMOOTH",
"186 150 OFFCURVE",
"220 180 OFFCURVE",
"253 204 CURVE SMOOTH"
);
},
{
closed = 1;
nodes = (
"418 282 LINE",
"418 356 LINE",
"615 356 LINE",
"615 321 LINE",
"492 76 LINE",
"438 76 LINE",
"551 299 LINE",
"553 305 OFFCURVE",
"555 309 OFFCURVE",
"557 311 CURVE",
"560 315 LINE",
"560 316 LINE",
"557 316 OFFCURVE",
"556 316 OFFCURVE",
"555 315 CURVE",
"462 315 LINE",
"462 282 LINE"
);
}
);
width = 789;
}
);
unicode = E003;
},
{
glyphname = uniE004;
lastChange = "2012-08-09 08:55:34 -0700";
layers = (
{
layerId = "8581214D-6E4F-46FC-B69F-48918E6333A9";
name = Regular;
paths = (
{
closed = 1;
nodes = (
"772 662 LINE",
"819 710 LINE SMOOTH",
"829 720 OFFCURVE",
"841 725 OFFCURVE",
"854 725 CURVE SMOOTH",
"867 725 OFFCURVE",
"878 720 OFFCURVE",
"887 710 CURVE",
"911 687 LINE",
"934 664 LINE",
"951 644 OFFCURVE",
"953 615 OFFCURVE",
"934 595 CURVE",
"885 548 LINE"
);
},
{
closed = 1;
nodes = (
"0 566 LINE SMOOTH",
"0 609 OFFCURVE",
"18 649 OFFCURVE",
"46 677 CURVE SMOOTH",
"74 705 OFFCURVE",
"114 724 OFFCURVE",
"158 724 CURVE SMOOTH",
"711 724 LINE",
"716 724 LINE",
"717 723 OFFCURVE",
"719 723 OFFCURVE",
"721 723 CURVE",
"623 625 LINE",
"158 625 LINE SMOOTH",
"126 625 OFFCURVE",
"99 598 OFFCURVE",
"99 566 CURVE SMOOTH",
"99 92 LINE SMOOTH",
"99 60 OFFCURVE",
"126 33 OFFCURVE",
"158 33 CURVE SMOOTH",
"711 33 LINE SMOOTH",
"743 33 OFFCURVE",
"769 60 OFFCURVE",
"769 92 CURVE SMOOTH",
"769 321 LINE",
"868 419 LINE",
"868 92 LINE SMOOTH",
"868 48 OFFCURVE",
"850 10 OFFCURVE",
"822 -19 CURVE SMOOTH",
"793 -48 OFFCURVE",
"754 -66 OFFCURVE",
"711 -66 CURVE SMOOTH",
"158 -66 LINE SMOOTH",
"114 -66 OFFCURVE",
"74 -48 OFFCURVE",
"46 -19 CURVE SMOOTH",
"18 10 OFFCURVE",
"0 48 OFFCURVE",
"0 92 CURVE SMOOTH"
);
},
{
closed = 1;
nodes = (
"324 101 LINE",
"380 270 LINE",
"715 605 LINE",
"828 491 LINE",
"494 156 LINE"
);
},
{
closed = 1;
nodes = (
"725 519 LINE SMOOTH",
"732 526 OFFCURVE",
"730 533 OFFCURVE",
"726 538 CURVE",
"723 540 OFFCURVE",
"720 541 OFFCURVE",
"717 541 CURVE SMOOTH",
"713 541 OFFCURVE",
"710 540 OFFCURVE",
"707 537 CURVE SMOOTH",
"445 275 LINE SMOOTH",
"439 269 OFFCURVE",
"439 263 OFFCURVE",
"445 257 CURVE",
"447 254 OFFCURVE",
"450 253 OFFCURVE",
"454 253 CURVE SMOOTH",
"457 253 OFFCURVE",
"460 254 OFFCURVE",
"462 257 CURVE"
);
}
);
width = 947;
}
);
unicode = E004;
},
{
glyphname = uniE005;
lastChange = "2012-08-09 08:55:34 -0700";
layers = (
{
layerId = "8581214D-6E4F-46FC-B69F-48918E6333A9";
name = Regular;
paths = (
{
closed = 1;
nodes = (
"794 502 LINE",
"726 434 LINE SMOOTH",
"703 411 OFFCURVE",
"675 383 OFFCURVE",
"642 350 CURVE SMOOTH",
"609 316 OFFCURVE",
"569 276 OFFCURVE",
"524 231 CURVE SMOOTH",
"253 -40 LINE",
"15 -90 LINE",
"66 148 LINE",
"607 689 LINE",
"609 689 OFFCURVE",
"611 689 OFFCURVE",
"613 690 CURVE",
"618 690 OFFCURVE",
"639 688 OFFCURVE",
"658 681 CURVE",
"677 673 OFFCURVE",
"706 655 OFFCURVE",
"733 628 CURVE SMOOTH",
"776 585 OFFCURVE",
"796 538 OFFCURVE",
"795 518 CURVE SMOOTH"
);
},
{
closed = 1;
nodes = (
"239 -11 LINE",
"262 13 LINE",
"262 42 OFFCURVE",
"245 74 OFFCURVE",
"212 107 CURVE SMOOTH",
"183 136 OFFCURVE",
"147 153 OFFCURVE",
"130 156 CURVE",
"118 157 LINE",
"94 134 LINE",
"77 53 LINE",
"109 36 OFFCURVE",
"141 4 OFFCURVE",
"158 -28 CURVE"
);
}
);
width = 810;
}
);
unicode = E005;
},
{
glyphname = uniE009;
lastChange = "2012-08-09 09:02:14 -0700";
layers = (
{
layerId = "8581214D-6E4F-46FC-B69F-48918E6333A9";
name = Regular;
paths = (
{
closed = 1;
nodes = (
"851 537 LINE SMOOTH",
"851 606 OFFCURVE",
"798 687 OFFCURVE",
"731 695 CURVE SMOOTH",
"724 696 OFFCURVE",
"713 696 OFFCURVE",
"698 696 CURVE SMOOTH",
"634 696 OFFCURVE",
"609 676 OFFCURVE",
"558 617 CURVE SMOOTH",
"478 523 LINE",
"398 617 LINE SMOOTH",
"347 676 OFFCURVE",
"322 696 OFFCURVE",
"258 696 CURVE SMOOTH",
"244 696 OFFCURVE",
"233 696 OFFCURVE",
"225 695 CURVE SMOOTH",
"158 687 OFFCURVE",
"108 610 OFFCURVE",
"104 537 CURVE",
"104 492 LINE SMOOTH",
"104 474 OFFCURVE",
"109 452 OFFCURVE",
"120 425 CURVE",
"161 306 OFFCURVE",
"280 173 OFFCURVE",
"478 28 CURVE",
"675 171 OFFCURVE",
"795 304 OFFCURVE",
"837 425 CURVE",
"846 455 OFFCURVE",
"851 477 OFFCURVE",
"851 492 CURVE SMOOTH"
);
},
{
closed = 1;
nodes = (
"957 488 LINE SMOOTH",
"957 317 OFFCURVE",
"797 121 OFFCURVE",
"478 -100 CURVE",
"159 120 OFFCURVE",
"0 316 OFFCURVE",
"0 488 CURVE SMOOTH",
"0 542 LINE SMOOTH",
"0 694 OFFCURVE",
"107 800 OFFCURVE",
"258 800 CURVE SMOOTH",
"355 800 OFFCURVE",
"410 765 OFFCURVE",
"478 684 CURVE",
"547 765 OFFCURVE",
"602 800 OFFCURVE",
"698 800 CURVE SMOOTH",
"849 800 OFFCURVE",
"957 694 OFFCURVE",
"957 542 CURVE SMOOTH"
);
}
);
width = 956;
}
);
unicode = E009;
},
{
glyphname = uniE00A;
lastChange = "2012-08-09 08:55:34 -0700";
layers = (
{
layerId = "8581214D-6E4F-46FC-B69F-48918E6333A9";
name = Regular;
paths = (
{
closed = 1;
nodes = (
"445 -51 LINE",
"86 279 LINE SMOOTH",
"39 322 OFFCURVE",
"16 374 OFFCURVE",
"16 435 CURVE SMOOTH",
"16 495 OFFCURVE",
"42 550 OFFCURVE",
"83 588 CURVE SMOOTH",
"123 626 OFFCURVE",
"178 649 OFFCURVE",
"237 649 CURVE SMOOTH",
"296 649 OFFCURVE",
"347 630 OFFCURVE",
"388 591 CURVE SMOOTH",
"445 539 LINE",
"502 591 LINE SMOOTH",
"543 630 OFFCURVE",
"594 649 OFFCURVE",
"653 649 CURVE SMOOTH",
"772 649 OFFCURVE",
"874 558 OFFCURVE",
"874 435 CURVE SMOOTH",
"874 374 OFFCURVE",
"851 322 OFFCURVE",
"804 279 CURVE SMOOTH"
);
}
);
width = 890;
}
);
unicode = E00A;
},
{
glyphname = uniE00B;
lastChange = "2012-08-09 08:55:34 -0700";
layers = (
{
layerId = "8581214D-6E4F-46FC-B69F-48918E6333A9";
name = Regular;
paths = (
{
closed = 1;
nodes = (
"455 740 LINE",
"574 404 LINE",
"895 404 LINE",
"633 206 LINE",
"727 -140 LINE",
"455 68 LINE",
"183 -140 LINE",
"277 206 LINE",
"15 404 LINE",
"336 404 LINE"
);
}
);
width = 910;
}
);
unicode = E00B;
},
{
glyphname = uniE00C;
lastChange = "2012-08-09 08:55:34 -0700";
layers = (
{
layerId = "8581214D-6E4F-46FC-B69F-48918E6333A9";
name = Regular;
paths = (
{
closed = 1;
nodes = (
"325 750 LINE SMOOTH",
"353 750 OFFCURVE",
"375 728 OFFCURVE",
"375 700 CURVE SMOOTH",
"375 -150 LINE",
"195 30 LINE",
"15 -150 LINE",
"15 700 LINE SMOOTH",
"15 733 OFFCURVE",
"28 750 OFFCURVE",
"55 750 CURVE SMOOTH"
);
}
);
width = 390;
}
);
unicode = E00C;
},
{
glyphname = uniE00D;
lastChange = "2012-08-09 08:55:34 -0700";
layers = (
{
layerId = "8581214D-6E4F-46FC-B69F-48918E6333A9";
name = Regular;
paths = (
{
closed = 1;
nodes = (
"299 -136 LINE",
"198 -136 LINE",
"15 584 LINE",
"108 618 LINE",
"204 687 OFFCURVE",
"273 718 OFFCURVE",
"320 715 CURVE SMOOTH",
"367 711 OFFCURVE",
"399 686 OFFCURVE",
"428 650 CURVE SMOOTH",
"474 594 LINE SMOOTH",
"505 555 OFFCURVE",
"552 523 OFFCURVE",
"612 508 CURVE SMOOTH",
"672 493 OFFCURVE",
"768 507 OFFCURVE",
"889 555 CURVE SMOOTH",
"908 562 OFFCURVE",
"922 551 OFFCURVE",
"911 535 CURVE SMOOTH",
"811 390 OFFCURVE",
"732 299 OFFCURVE",
"680 260 CURVE SMOOTH",
"627 221 OFFCURVE",
"587 215 OFFCURVE",
"556 232 CURVE SMOOTH",
"539 241 OFFCURVE",
"524 252 OFFCURVE",
"511 263 CURVE SMOOTH",
"483 287 OFFCURVE",
"446 309 OFFCURVE",
"403 313 CURVE SMOOTH",
"360 317 OFFCURVE",
"293 286 OFFCURVE",
"209 217 CURVE"
);
}
);
width = 930;
}
);
unicode = E00D;
},
{
glyphname = uniE00E;
lastChange = "2012-09-26 14:09:11 -0700";
layers = (
{
layerId = "8581214D-6E4F-46FC-B69F-48918E6333A9";
name = Regular;
paths = (
{
closed = 1;
nodes = (
"30 263 OFFCURVE",
"136 138 OFFCURVE",
"280 111 CURVE",
"280 -5 LINE SMOOTH",
"280 -34 OFFCURVE",
"305 -61 OFFCURVE",
"336 -61 CURVE SMOOTH",
"349 -61 OFFCURVE",
"362 -55 OFFCURVE",
"375 -44 CURVE",
"526 106 LINE",
"613 106 LINE SMOOTH",
"723 106 OFFCURVE",
"824 166 OFFCURVE",
"878 260 CURVE SMOOTH",
"905 307 OFFCURVE",
"919 358 OFFCURVE",
"919 412 CURVE SMOOTH",
"919 522 OFFCURVE",
"860 622 OFFCURVE",
"766 677 CURVE SMOOTH",
"719 704 OFFCURVE",
"668 718 OFFCURVE",
"613 718 CURVE SMOOTH",
"336 718 LINE SMOOTH",
"226 718 OFFCURVE",
"126 659 OFFCURVE",
"71 565 CURVE SMOOTH",
"44 518 OFFCURVE",
"30 467 OFFCURVE",
"30 412 CURVE SMOOTH"
);
},
{
closed = 1;
nodes = (
"86 502 OFFCURVE",
"134 584 OFFCURVE",
"211 629 CURVE SMOOTH",
"249 651 OFFCURVE",
"291 662 OFFCURVE",
"336 662 CURVE SMOOTH",
"613 662 LINE SMOOTH",
"705 662 OFFCURVE",
"787 614 OFFCURVE",
"831 537 CURVE SMOOTH",
"854 499 OFFCURVE",
"865 457 OFFCURVE",
"865 412 CURVE SMOOTH",
"865 321 OFFCURVE",
"817 241 OFFCURVE",
"740 196 CURVE SMOOTH",
"701 174 OFFCURVE",
"659 162 OFFCURVE",
"613 162 CURVE SMOOTH",
"503 162 LINE",
"336 -5 LINE",
"336 162 LINE",
"246 162 OFFCURVE",
"163 211 OFFCURVE",
"119 287 CURVE SMOOTH",
"97 326 OFFCURVE",
"86 367 OFFCURVE",
"86 412 CURVE SMOOTH"
);
}
);
width = 947;
}
);
unicode = E00E;
},
{
glyphname = uniE00F;
lastChange = "2012-08-09 08:55:34 -0700";
layers = (
{
layerId = "8581214D-6E4F-46FC-B69F-48918E6333A9";
name = Regular;
paths = (
{
closed = 1;
nodes = (
"88 95 LINE",
"87 99 OFFCURVE",
"87 102 OFFCURVE",
"90 105 CURVE SMOOTH",
"98 113 LINE SMOOTH",
"110 125 OFFCURVE",
"121 136 OFFCURVE",
"130 152 CURVE",
"138 168 OFFCURVE",
"145 188 OFFCURVE",
"152 219 CURVE",
"59 270 OFFCURVE",
"0 350 OFFCURVE",
"0 443 CURVE SMOOTH",
"0 520 OFFCURVE",
"44 590 OFFCURVE",
"113 641 CURVE SMOOTH",
"182 692 OFFCURVE",
"277 724 OFFCURVE",
"385 724 CURVE SMOOTH",
"493 724 OFFCURVE",
"588 692 OFFCURVE",
"657 641 CURVE SMOOTH",
"726 590 OFFCURVE",
"769 520 OFFCURVE",
"769 443 CURVE SMOOTH",
"769 363 OFFCURVE",
"726 295 OFFCURVE",
"657 244 CURVE SMOOTH",
"588 193 OFFCURVE",
"493 162 OFFCURVE",
"385 162 CURVE SMOOTH",
"360 162 OFFCURVE",
"337 164 OFFCURVE",
"313 167 CURVE",
"265 130 OFFCURVE",
"211 102 OFFCURVE",
"147 89 CURVE SMOOTH",
"133 86 OFFCURVE",
"119 84 OFFCURVE",
"105 83 CURVE",
"96 82 OFFCURVE",
"91 85 OFFCURVE",
"88 94 CURVE"
);
},
{
closed = 1;
nodes = (
"385 83 LINE SMOOTH",
"517 83 OFFCURVE",
"631 122 OFFCURVE",
"715 187 CURVE SMOOTH",
"799 251 OFFCURVE",
"848 342 OFFCURVE",
"848 443 CURVE SMOOTH",
"848 456 OFFCURVE",
"847 470 OFFCURVE",
"845 484 CURVE",
"909 433 OFFCURVE",
"947 370 OFFCURVE",
"947 294 CURVE SMOOTH",
"947 202 OFFCURVE",
"888 123 OFFCURVE",
"796 71 CURVE",
"801 40 OFFCURVE",
"809 20 OFFCURVE",
"818 5 CURVE SMOOTH",
"827 -11 OFFCURVE",
"837 -22 OFFCURVE",
"849 -34 CURVE SMOOTH",
"856 -41 OFFCURVE",
"862 -46 OFFCURVE",
"859 -53 CURVE",
"858 -61 OFFCURVE",
"849 -67 OFFCURVE",
"842 -66 CURVE",
"839 -65 OFFCURVE",
"835 -65 OFFCURVE",
"832 -64 CURVE",
"828 -63 OFFCURVE",
"824 -63 OFFCURVE",
"821 -62 CURVE SMOOTH",
"818 -61 OFFCURVE",
"814 -61 OFFCURVE",
"811 -60 CURVE",
"807 -60 OFFCURVE",
"803 -59 OFFCURVE",
"800 -58 CURVE",
"739 -45 OFFCURVE",
"684 -20 OFFCURVE",
"635 18 CURVE",
"611 15 OFFCURVE",
"587 13 OFFCURVE",
"562 13 CURVE SMOOTH",
"470 13 OFFCURVE",
"389 37 OFFCURVE",
"321 77 CURVE",
"322 78 OFFCURVE",
"323 78 OFFCURVE",
"324 79 CURVE SMOOTH",
"325 80 OFFCURVE",
"327 81 OFFCURVE",
"328 82 CURVE SMOOTH",
"329 83 OFFCURVE",
"331 84 OFFCURVE",
"334 85 CURVE",
"343 84 OFFCURVE",
"351 83 OFFCURVE",
"360 83 CURVE SMOOTH"
);
}
);
width = 947;
}
);
unicode = E00F;
},
{
glyphname = uniE010;
lastChange = "2012-08-09 08:55:34 -0700";
layers = (
{
layerId = "8581214D-6E4F-46FC-B69F-48918E6333A9";
name = Regular;
paths = (
{
closed = 1;
nodes = (
"915 700 LINE SMOOTH",
"971 700 OFFCURVE",
"1015 656 OFFCURVE",
"1015 600 CURVE SMOOTH",
"1015 0 LINE SMOOTH",
"1015 -56 OFFCURVE",
"971 -100 OFFCURVE",
"915 -100 CURVE SMOOTH",
"115 -100 LINE SMOOTH",
"59 -100 OFFCURVE",
"15 -56 OFFCURVE",
"15 0 CURVE SMOOTH",
"15 600 LINE SMOOTH",
"15 656 OFFCURVE",
"59 700 OFFCURVE",
"115 700 CURVE SMOOTH"
);
},
{
closed = 1;
nodes = (
"915 0 LINE",
"915 600 LINE",
"115 600 LINE",
"115 0 LINE"
);
},
{
closed = 1;
nodes = (
"465 495 LINE",
"465 405 LINE",
"215 405 LINE",
"215 495 LINE"
);
},
{
closed = 1;
nodes = (
"810 175 LINE",
"813 175 OFFCURVE",
"815 152 OFFCURVE",
"815 140 CURVE SMOOTH",
"815 134 OFFCURVE",
"815 128 OFFCURVE",
"815 122 CURVE SMOOTH",
"815 105 LINE",
"565 105 LINE",
"565 152 OFFCURVE",
"567 175 OFFCURVE",
"570 175 CURVE",
"573 176 OFFCURVE",
"577 177 OFFCURVE",
"581 178 CURVE",
"589 181 OFFCURVE",
"598 183 OFFCURVE",
"612 191 CURVE",
"626 198 OFFCURVE",
"639 209 OFFCURVE",
"648 222 CURVE",
"653 228 OFFCURVE",
"655 234 OFFCURVE",
"655 241 CURVE SMOOTH",
"655 252 OFFCURVE",
"651 263 OFFCURVE",
"642 276 CURVE",
"623 300 OFFCURVE",
"600 336 OFFCURVE",
"600 385 CURVE SMOOTH",
"600 458 OFFCURVE",
"625 495 OFFCURVE",
"690 495 CURVE SMOOTH",
"755 495 OFFCURVE",
"780 458 OFFCURVE",
"780 385 CURVE SMOOTH",
"780 336 OFFCURVE",
"758 300 OFFCURVE",
"739 276 CURVE",
"730 263 OFFCURVE",
"725 251 OFFCURVE",
"725 241 CURVE SMOOTH",
"725 228 OFFCURVE",
"734 215 OFFCURVE",
"747 205 CURVE",
"759 195 OFFCURVE",
"774 186 OFFCURVE",
"789 182 CURVE"
);
},
{
closed = 1;
nodes = (
"465 345 LINE",
"465 255 LINE",
"215 255 LINE",
"215 345 LINE"
);
},
{
closed = 1;
nodes = (
"465 195 LINE",
"465 105 LINE",
"215 105 LINE",
"215 195 LINE"
);
}
);
width = 1030;
}
);
unicode = E010;
},
{
glyphname = uniE011;
lastChange = "2012-08-09 08:55:34 -0700";
layers = (
{
layerId = "8581214D-6E4F-46FC-B69F-48918E6333A9";
name = Regular;
paths = (
{
closed = 1;
nodes = (
"955 -150 LINE",
"15 -150 LINE",
"15 -45 LINE SMOOTH",
"15 -30 OFFCURVE",
"33 -11 OFFCURVE",
"70 11 CURVE SMOOTH",
"107 33 OFFCURVE",
"156 55 OFFCURVE",
"219 78 CURVE SMOOTH",
"280 101 OFFCURVE",
"322 122 OFFCURVE",
"347 147 CURVE SMOOTH",
"372 172 OFFCURVE",
"382 202 OFFCURVE",
"382 242 CURVE SMOOTH",
"382 256 OFFCURVE",
"379 267 OFFCURVE",
"372 274 CURVE",
"359 289 OFFCURVE",
"336 312 OFFCURVE",
"327 363 CURVE SMOOTH",
"324 379 OFFCURVE",
"315 385 OFFCURVE",
"304 389 CURVE",
"293 392 OFFCURVE",
"288 410 OFFCURVE",
"285 423 CURVE SMOOTH",
"282 436 OFFCURVE",
"282 449 OFFCURVE",
"283 461 CURVE SMOOTH",
"284 473 OFFCURVE",
"290 485 OFFCURVE",
"294 488 CURVE",
"299 491 LINE",
"292 524 OFFCURVE",
"289 554 OFFCURVE",
"286 579 CURVE SMOOTH",
"283 607 OFFCURVE",
"293 643 OFFCURVE",
"320 682 CURVE SMOOTH",
"347 721 OFFCURVE",
"405 750 OFFCURVE",
"485 750 CURVE SMOOTH",
"565 750 OFFCURVE",
"624 721 OFFCURVE",
"651 682 CURVE SMOOTH",
"678 643 OFFCURVE",
"687 607 OFFCURVE",
"684 579 CURVE",
"671 491 LINE",
"695 480 OFFCURVE",
"690 426 OFFCURVE",
"681 406 CURVE SMOOTH",
"676 395 OFFCURVE",
"671 390 OFFCURVE",
"667 389 CURVE",
"656 385 OFFCURVE",
"646 379 OFFCURVE",
"643 363 CURVE SMOOTH",
"634 312 OFFCURVE",
"611 289 OFFCURVE",
"598 274 CURVE",
"591 267 OFFCURVE",
"588 256 OFFCURVE",
"588 242 CURVE SMOOTH",
"588 202 OFFCURVE",
"598 172 OFFCURVE",
"623 147 CURVE SMOOTH",
"648 122 OFFCURVE",
"688 101 OFFCURVE",
"751 78 CURVE SMOOTH",
"814 55 OFFCURVE",
"863 33 OFFCURVE",
"900 11 CURVE SMOOTH",
"937 -11 OFFCURVE",
"955 -30 OFFCURVE",
"955 -45 CURVE SMOOTH"
);
}
);
width = 970;
}
);
unicode = E011;
},
{
glyphname = uniE012;
lastChange = "2012-08-09 08:55:34 -0700";
layers = (
{
layerId = "8581214D-6E4F-46FC-B69F-48918E6333A9";
name = Regular;
paths = (
{
closed = 1;
nodes = (
"710 -125 LINE",
"15 -125 LINE",
"15 51 LINE SMOOTH",
"15 78 OFFCURVE",
"42 101 OFFCURVE",
"59 110 CURVE",
"64 112 OFFCURVE",
"69 114 OFFCURVE",
"75 117 CURVE",
"80 119 OFFCURVE",
"87 122 OFFCURVE",
"94 125 CURVE",
"95 126 OFFCURVE",
"96 126 OFFCURVE",
"97 126 CURVE SMOOTH",
"98 126 OFFCURVE",
"98 126 OFFCURVE",
"99 127 CURVE",
"148 147 OFFCURVE",
"182 165 OFFCURVE",
"202 188 CURVE SMOOTH",
"222 211 OFFCURVE",
"230 237 OFFCURVE",
"230 273 CURVE SMOOTH",
"230 286 OFFCURVE",
"224 300 OFFCURVE",
"212 315 CURVE SMOOTH",
"200 329 OFFCURVE",
"191 351 OFFCURVE",
"186 381 CURVE",
"183 394 OFFCURVE",
"175 400 OFFCURVE",
"167 403 CURVE",
"158 406 OFFCURVE",
"155 422 OFFCURVE",
"152 435 CURVE SMOOTH",
"149 447 OFFCURVE",
"148 467 OFFCURVE",
"153 480 CURVE",
"155 486 OFFCURVE",
"157 490 OFFCURVE",
"160 492 CURVE",
"164 494 LINE",
"159 525 OFFCURVE",
"156 550 OFFCURVE",
"153 573 CURVE SMOOTH",
"146 624 OFFCURVE",
"183 684 OFFCURVE",
"230 708 CURVE SMOOTH",
"253 719 OFFCURVE",
"281 725 OFFCURVE",
"313 725 CURVE SMOOTH",
"377 725 OFFCURVE",
"425 699 OFFCURVE",
"446 664 CURVE SMOOTH",
"467 629 OFFCURVE",
"475 598 OFFCURVE",
"472 573 CURVE SMOOTH",
"462 494 LINE",
"471 489 OFFCURVE",
"476 476 OFFCURVE",
"476 457 CURVE",
"475 440 OFFCURVE",
"472 427 OFFCURVE",
"469 418 CURVE",
"465 409 OFFCURVE",
"461 404 OFFCURVE",
"458 403 CURVE",
"450 400 OFFCURVE",
"442 394 OFFCURVE",
"439 381 CURVE",
"434 352 OFFCURVE",
"425 330 OFFCURVE",
"414 315 CURVE",
"402 300 OFFCURVE",
"396 286 OFFCURVE",
"396 273 CURVE SMOOTH",
"396 237 OFFCURVE",
"404 211 OFFCURVE",
"424 188 CURVE SMOOTH",
"444 165 OFFCURVE",
"477 147 OFFCURVE",
"526 127 CURVE SMOOTH",
"586 103 OFFCURVE",
"631 82 OFFCURVE",
"663 63 CURVE SMOOTH",
"694 44 OFFCURVE",
"710 25 OFFCURVE",
"710 7 CURVE SMOOTH"
);
},
{
closed = 1;
nodes = (
"1014 -125 LINE",
"790 -125 LINE",
"790 19 LINE SMOOTH",
"790 88 OFFCURVE",
"758 104 OFFCURVE",
"707 133 CURVE SMOOTH",
"682 147 OFFCURVE",
"648 164 OFFCURVE",
"606 183 CURVE",
"633 202 OFFCURVE",
"647 229 OFFCURVE",
"647 264 CURVE SMOOTH",
"647 274 OFFCURVE",
"643 285 OFFCURVE",
"634 296 CURVE SMOOTH",
"624 308 OFFCURVE",
"618 324 OFFCURVE",
"615 345 CURVE",
"614 356 OFFCURVE",
"606 359 OFFCURVE",
"601 362 CURVE",
"598 363 OFFCURVE",
"596 366 OFFCURVE",
"593 373 CURVE",
"586 386 OFFCURVE",
"586 410 OFFCURVE",
"590 419 CURVE",
"591 424 OFFCURVE",
"592 427 OFFCURVE",
"595 428 CURVE",
"598 430 LINE",
"594 453 OFFCURVE",
"591 472 OFFCURVE",
"590 489 CURVE SMOOTH",
"589 508 OFFCURVE",
"594 531 OFFCURVE",
"610 558 CURVE SMOOTH",
"626 585 OFFCURVE",
"662 603 OFFCURVE",
"710 603 CURVE SMOOTH",
"758 603 OFFCURVE",
"794 585 OFFCURVE",
"810 558 CURVE SMOOTH",
"825 531 OFFCURVE",
"830 508 OFFCURVE",
"829 489 CURVE",
"822 430 LINE",
"829 426 OFFCURVE",
"831 415 OFFCURVE",
"832 404 CURVE",
"832 392 OFFCURVE",
"830 380 OFFCURVE",
"827 373 CURVE",
"824 367 OFFCURVE",
"821 363 OFFCURVE",
"818 362 CURVE",
"813 359 OFFCURVE",
"805 356 OFFCURVE",
"804 345 CURVE",
"801 323 OFFCURVE",
"795 307 OFFCURVE",
"786 296 CURVE",
"777 283 OFFCURVE",
"772 273 OFFCURVE",
"772 264 CURVE SMOOTH",
"772 237 OFFCURVE",
"778 217 OFFCURVE",
"793 201 CURVE SMOOTH",
"808 184 OFFCURVE",
"833 170 OFFCURVE",
"870 154 CURVE SMOOTH",
"911 137 OFFCURVE",
"941 124 OFFCURVE",
"960 113 CURVE SMOOTH",
"980 102 OFFCURVE",
"990 96 OFFCURVE",
"998 84 CURVE",
"1005 71 OFFCURVE",
"1007 52 OFFCURVE",
"1010 19 CURVE SMOOTH",
"1011 2 OFFCURVE",
"1012 -15 OFFCURVE",
"1013 -31 CURVE",
"1013 -47 OFFCURVE",
"1013 -63 OFFCURVE",
"1014 -78 CURVE"
);
}
);
width = 1030;
}
);
unicode = E012;
},
{
glyphname = uniE013;
lastChange = "2012-08-09 08:55:34 -0700";
layers = (
{
layerId = "8581214D-6E4F-46FC-B69F-48918E6333A9";
name = Regular;
paths = (
{
closed = 1;
nodes = (
"815 -150 LINE",
"15 -150 LINE",
"15 51 LINE",
"32 59 OFFCURVE",
"56 66 OFFCURVE",
"77 73 CURVE",
"82 74 OFFCURVE",
"87 75 OFFCURVE",
"90 76 CURVE SMOOTH",
"93 77 OFFCURVE",
"95 77 OFFCURVE",
"96 78 CURVE",
"159 101 OFFCURVE",
"200 122 OFFCURVE",
"226 147 CURVE SMOOTH",
"252 172 OFFCURVE",
"261 202 OFFCURVE",
"261 242 CURVE SMOOTH",
"261 256 OFFCURVE",
"258 267 OFFCURVE",
"251 274 CURVE",
"238 289 OFFCURVE",
"215 312 OFFCURVE",
"206 363 CURVE SMOOTH",
"203 379 OFFCURVE",
"191 385 OFFCURVE",
"182 389 CURVE",
"174 390 OFFCURVE",
"166 410 OFFCURVE",
"163 423 CURVE SMOOTH",
"160 436 OFFCURVE",
"160 449 OFFCURVE",
"161 461 CURVE SMOOTH",
"162 473 OFFCURVE",
"168 485 OFFCURVE",
"172 488 CURVE",
"177 491 LINE",
"170 524 OFFCURVE",
"167 554 OFFCURVE",
"164 579 CURVE SMOOTH",
"161 607 OFFCURVE",
"170 643 OFFCURVE",
"197 682 CURVE SMOOTH",
"224 721 OFFCURVE",
"284 750 OFFCURVE",
"365 750 CURVE SMOOTH",
"446 750 OFFCURVE",
"506 721 OFFCURVE",
"533 682 CURVE SMOOTH",
"560 643 OFFCURVE",
"569 607 OFFCURVE",
"566 579 CURVE",
"553 491 LINE",
"565 486 OFFCURVE",
"571 472 OFFCURVE",
"571 449 CURVE",
"570 429 OFFCURVE",
"567 415 OFFCURVE",
"562 406 CURVE",
"557 395 OFFCURVE",
"552 390 OFFCURVE",
"548 389 CURVE",
"539 385 OFFCURVE",
"527 379 OFFCURVE",
"524 363 CURVE SMOOTH",
"515 312 OFFCURVE",
"492 289 OFFCURVE",
"479 274 CURVE",
"472 267 OFFCURVE",
"469 256 OFFCURVE",
"469 242 CURVE SMOOTH",
"469 202 OFFCURVE",
"479 172 OFFCURVE",
"505 147 CURVE SMOOTH",
"531 122 OFFCURVE",
"571 101 OFFCURVE",
"634 78 CURVE SMOOTH",
"692 57 OFFCURVE",
"737 36 OFFCURVE",
"769 13 CURVE SMOOTH",
"800 -9 OFFCURVE",
"815 -28 OFFCURVE",
"815 -45 CURVE SMOOTH"
);
},
{
closed = 1;
nodes = (
"865 350 LINE",
"1015 350 LINE",
"1015 250 LINE",
"865 250 LINE",
"865 100 LINE",
"765 100 LINE",
"765 250 LINE",
"615 250 LINE",
"615 350 LINE",
"765 350 LINE",
"765 500 LINE",
"865 500 LINE"
);
}
);
width = 1030;
}
);
unicode = E013;
},
{
glyphname = uniE014;
lastChange = "2012-08-09 08:55:34 -0700";
layers = (
{
layerId = "8581214D-6E4F-46FC-B69F-48918E6333A9";
name = Regular;
paths = (
{
closed = 1;
nodes = (
"185 600 LINE SMOOTH",
"238 600 OFFCURVE",
"265 573 OFFCURVE",
"265 520 CURVE SMOOTH",
"265 430 LINE SMOOTH",
"265 377 OFFCURVE",
"238 350 OFFCURVE",
"185 350 CURVE SMOOTH",
"95 350 LINE SMOOTH",
"42 350 OFFCURVE",
"15 377 OFFCURVE",
"15 430 CURVE SMOOTH",
"15 520 LINE SMOOTH",
"15 573 OFFCURVE",
"42 600 OFFCURVE",
"95 600 CURVE SMOOTH"
);
},
{
closed = 1;
nodes = (
"535 600 LINE SMOOTH",
"588 600 OFFCURVE",
"615 573 OFFCURVE",
"615 520 CURVE SMOOTH",
"615 430 LINE SMOOTH",
"615 377 OFFCURVE",
"588 350 OFFCURVE",
"535 350 CURVE SMOOTH",
"445 350 LINE SMOOTH",
"392 350 OFFCURVE",
"365 377 OFFCURVE",
"365 430 CURVE SMOOTH",
"365 520 LINE SMOOTH",
"365 573 OFFCURVE",
"392 600 OFFCURVE",
"445 600 CURVE SMOOTH"
);
},
{
closed = 1;
nodes = (
"185 250 LINE SMOOTH",
"238 250 OFFCURVE",
"265 223 OFFCURVE",
"265 170 CURVE SMOOTH",
"265 80 LINE SMOOTH",
"265 27 OFFCURVE",
"238 0 OFFCURVE",
"185 0 CURVE SMOOTH",
"95 0 LINE SMOOTH",
"42 0 OFFCURVE",
"15 27 OFFCURVE",
"15 80 CURVE SMOOTH",
"15 170 LINE SMOOTH",
"15 223 OFFCURVE",
"42 250 OFFCURVE",
"95 250 CURVE SMOOTH"
);
},
{
closed = 1;
nodes = (
"535 250 LINE SMOOTH",
"588 250 OFFCURVE",
"615 223 OFFCURVE",
"615 170 CURVE SMOOTH",
"615 80 LINE SMOOTH",
"615 27 OFFCURVE",
"588 0 OFFCURVE",
"535 0 CURVE SMOOTH",
"445 0 LINE SMOOTH",
"392 0 OFFCURVE",
"365 27 OFFCURVE",
"365 80 CURVE SMOOTH",
"365 170 LINE SMOOTH",
"365 223 OFFCURVE",
"392 250 OFFCURVE",
"445 250 CURVE SMOOTH"
);
}
);
width = 630;
}
);
unicode = E014;
},
{
glyphname = uniE015;
lastChange = "2012-08-09 08:55:34 -0700";
layers = (
{
layerId = "8581214D-6E4F-46FC-B69F-48918E6333A9";
name = Regular;
paths = (
{
closed = 1;
nodes = (
"65 450 LINE SMOOTH",
"37 450 OFFCURVE",
"15 472 OFFCURVE",
"15 500 CURVE SMOOTH",
"15 528 OFFCURVE",
"37 550 OFFCURVE",
"65 550 CURVE SMOOTH",
"665 550 LINE SMOOTH",
"693 550 OFFCURVE",
"715 528 OFFCURVE",
"715 500 CURVE SMOOTH",
"715 472 OFFCURVE",
"693 450 OFFCURVE",
"665 450 CURVE SMOOTH"
);
},
{
closed = 1;
nodes = (
"665 350 LINE SMOOTH",
"693 350 OFFCURVE",
"715 328 OFFCURVE",
"715 300 CURVE SMOOTH",
"715 272 OFFCURVE",
"693 250 OFFCURVE",
"665 250 CURVE SMOOTH",
"65 250 LINE SMOOTH",
"37 250 OFFCURVE",
"15 272 OFFCURVE",
"15 300 CURVE SMOOTH",
"15 328 OFFCURVE",
"37 350 OFFCURVE",
"65 350 CURVE SMOOTH"
);
},
{
closed = 1;
nodes = (
"665 150 LINE SMOOTH",
"693 150 OFFCURVE",
"715 128 OFFCURVE",
"715 100 CURVE SMOOTH",
"715 72 OFFCURVE",
"693 50 OFFCURVE",
"665 50 CURVE SMOOTH",
"65 50 LINE SMOOTH",
"37 50 OFFCURVE",
"15 72 OFFCURVE",
"15 100 CURVE SMOOTH",
"15 128 OFFCURVE",
"37 150 OFFCURVE",
"65 150 CURVE SMOOTH"
);
}
);
width = 730;
}
);
unicode = E015;
},
{
glyphname = uniE016;
lastChange = "2012-08-09 08:55:34 -0700";
layers = (
{
layerId = "8581214D-6E4F-46FC-B69F-48918E6333A9";
name = Regular;
paths = (
{
closed = 1;
nodes = (
"240 -50 OFFCURVE",
"222 -41 OFFCURVE",
"208 -22 CURVE SMOOTH",
"29 214 LINE SMOOTH",
"6 245 OFFCURVE",
"12 288 OFFCURVE",
"43 311 CURVE SMOOTH",
"74 334 OFFCURVE",
"117 329 OFFCURVE",
"140 298 CURVE SMOOTH",
"258 143 LINE",
"553 617 LINE SMOOTH",
"573 650 OFFCURVE",
"616 659 OFFCURVE",
"649 639 CURVE SMOOTH",
"682 619 OFFCURVE",
"692 576 OFFCURVE",
"672 543 CURVE SMOOTH",
"323 -17 LINE SMOOTH",
"309 -39 OFFCURVE",
"289 -50 OFFCURVE",
"263 -50 CURVE SMOOTH"
);
}
);
width = 697;
}
);
unicode = E016;
},
{
glyphname = uniE01A;
lastChange = "2012-08-09 08:55:34 -0700";
layers = (
{
layerId = "8581214D-6E4F-46FC-B69F-48918E6333A9";
name = Regular;
paths = (
{
closed = 1;
nodes = (
"911 264 LINE",
"778 208 LINE",
"773 194 OFFCURVE",
"769 184 OFFCURVE",
"766 177 CURVE",
"821 44 LINE",
"742 -34 LINE",
"607 18 LINE",
"600 15 OFFCURVE",
"590 11 OFFCURVE",
"576 6 CURVE",
"521 -127 LINE",
"409 -127 LINE",
"353 5 LINE",
"350 6 OFFCURVE",
"345 8 OFFCURVE",
"340 10 CURVE",
"334 12 OFFCURVE",
"327 15 OFFCURVE",
"320 18 CURVE",
"188 -36 LINE",
"110 42 LINE",
"163 176 LINE",
"162 177 OFFCURVE",
"162 179 OFFCURVE",
"162 180 CURVE",
"161 181 OFFCURVE",
"160 183 OFFCURVE",
"159 186 CURVE",
"153 195 OFFCURVE",
"150 203 OFFCURVE",
"149 208 CURVE",
"18 263 LINE",
"18 375 LINE",
"149 431 LINE",
"163 464 LINE",
"109 596 LINE",
"187 675 LINE",
"320 621 LINE",
"327 624 OFFCURVE",
"334 627 OFFCURVE",
"340 629 CURVE",
"345 631 OFFCURVE",
"350 633 OFFCURVE",
"353 634 CURVE",
"408 766 LINE",
"520 766 LINE",
"576 634 LINE",
"585 631 OFFCURVE",
"596 626 OFFCURVE",
"607 621 CURVE",
"740 676 LINE",
"820 597 LINE",
"766 462 LINE",
"770 454 OFFCURVE",
"774 444 OFFCURVE",
"778 432 CURVE",
"911 376 LINE"
);
},
{
closed = 1;
nodes = (
"378 169 OFFCURVE",
"417 153 OFFCURVE",
"464 153 CURVE SMOOTH",
"509 153 OFFCURVE",
"551 172 OFFCURVE",
"582 202 CURVE SMOOTH",
"613 232 OFFCURVE",
"631 273 OFFCURVE",
"631 320 CURVE SMOOTH",
"631 365 OFFCURVE",
"613 409 OFFCURVE",
"582 439 CURVE SMOOTH",
"551 469 OFFCURVE",
"509 488 OFFCURVE",
"464 488 CURVE SMOOTH",
"417 488 OFFCURVE",
"376 469 OFFCURVE",
"345 439 CURVE SMOOTH",
"314 409 OFFCURVE",
"296 365 OFFCURVE",
"296 320 CURVE SMOOTH",
"296 273 OFFCURVE",
"312 234 OFFCURVE",
"345 202 CURVE SMOOTH"
);
}
);
width = 928;
}
);
unicode = E01A;
},
{
glyphname = uniE01B;
lastChange = "2012-08-09 08:55:34 -0700";
layers = (
{
layerId = "8581214D-6E4F-46FC-B69F-48918E6333A9";
name = Regular;
paths = (
{
closed = 1;
nodes = (
"593 733 LINE SMOOTH",
"642 782 OFFCURVE",
"708 802 OFFCURVE",
"769 786 CURVE SMOOTH",
"829 770 OFFCURVE",
"878 721 OFFCURVE",
"894 661 CURVE SMOOTH",
"910 600 OFFCURVE",
"890 534 OFFCURVE",
"841 485 CURVE SMOOTH",
"367 12 LINE SMOOTH",
"335 -20 OFFCURVE",
"298 -39 OFFCURVE",
"255 -35 CURVE SMOOTH",
"212 -31 OFFCURVE",
"182 2 OFFCURVE",
"174 38 CURVE SMOOTH",
"165 74 OFFCURVE",
"179 121 OFFCURVE",
"218 160 CURVE SMOOTH",
"551 492 LINE SMOOTH",
"558 499 OFFCURVE",
"566 502 OFFCURVE",
"576 502 CURVE SMOOTH",
"595 502 OFFCURVE",
"610 487 OFFCURVE",
"610 468 CURVE SMOOTH",
"610 458 OFFCURVE",
"607 450 OFFCURVE",
"600 443 CURVE SMOOTH",
"268 110 LINE SMOOTH",
"240 82 OFFCURVE",
"235 53 OFFCURVE",
"248 42 CURVE",
"254 36 OFFCURVE",
"262 34 OFFCURVE",
"271 35 CURVE SMOOTH",
"287 37 OFFCURVE",
"303 46 OFFCURVE",
"318 61 CURVE SMOOTH",
"791 535 LINE SMOOTH",
"824 570 OFFCURVE",
"836 606 OFFCURVE",
"826 643 CURVE SMOOTH",
"815 679 OFFCURVE",
"787 707 OFFCURVE",
"751 718 CURVE SMOOTH",
"713 729 OFFCURVE",
"677 717 OFFCURVE",
"643 683 CURVE SMOOTH",
"606 646 OFFCURVE",
"557 597 OFFCURVE",
"489 530 CURVE SMOOTH",
"455 496 OFFCURVE",
"415 456 OFFCURVE",
"369 410 CURVE SMOOTH",
"147 188 LINE SMOOTH",
"87 128 OFFCURVE",
"73 59 OFFCURVE",
"92 3 CURVE SMOOTH",
"111 -53 OFFCURVE",
"154 -96 OFFCURVE",
"210 -115 CURVE SMOOTH",
"266 -134 OFFCURVE",
"335 -120 OFFCURVE",
"395 -60 CURVE SMOOTH",
"890 436 LINE SMOOTH",
"897 443 OFFCURVE",
"905 446 OFFCURVE",
"915 446 CURVE SMOOTH",
"935 446 OFFCURVE",
"950 431 OFFCURVE",
"950 411 CURVE SMOOTH",
"950 401 OFFCURVE",
"947 393 OFFCURVE",
"940 386 CURVE SMOOTH",
"444 -109 LINE SMOOTH",
"389 -164 OFFCURVE",
"327 -192 OFFCURVE",
"259 -192 CURVE SMOOTH",
"182 -192 OFFCURVE",
"108 -154 OFFCURVE",
"65 -93 CURVE SMOOTH",
"21 -33 OFFCURVE",
"-1 40 OFFCURVE",
"26 123 CURVE SMOOTH",
"39 164 OFFCURVE",
"63 202 OFFCURVE",
"98 237 CURVE SMOOTH",
"320 459 LINE"
);
}
);
width = 965;
}
);
unicode = E01B;
},
{
glyphname = uniE01C;
lastChange = "2012-08-09 08:55:34 -0700";
layers = (
{
layerId = "8581214D-6E4F-46FC-B69F-48918E6333A9";
name = Regular;
paths = (
{
closed = 1;
nodes = (
"669 330 OFFCURVE",
"706 306 OFFCURVE",
"734 301 CURVE SMOOTH",
"761 296 OFFCURVE",
"794 272 OFFCURVE",
"811 224 CURVE SMOOTH",
"826 183 OFFCURVE",
"796 122 OFFCURVE",
"737 62 CURVE SMOOTH",
"678 2 OFFCURVE",
"589 -56 OFFCURVE",
"485 -95 CURVE SMOOTH",
"416 -122 OFFCURVE",
"344 -136 OFFCURVE",
"280 -140 CURVE SMOOTH",
"215 -145 OFFCURVE",
"157 -140 OFFCURVE",
"113 -125 CURVE",
"69 -112 OFFCURVE",
"46 -90 OFFCURVE",
"35 -66 CURVE",
"23 -43 OFFCURVE",
"23 -19 OFFCURVE",
"27 0 CURVE SMOOTH",
"30 17 OFFCURVE",
"36 33 OFFCURVE",
"46 46 CURVE SMOOTH",
"65 69 OFFCURVE",
"76 110 OFFCURVE",
"64 159 CURVE SMOOTH",
"48 219 OFFCURVE",
"38 262 OFFCURVE",
"31 301 CURVE SMOOTH",
"23 340 OFFCURVE",
"19 373 OFFCURVE",
"16 410 CURVE SMOOTH",
"11 485 OFFCURVE",
"27 529 OFFCURVE",
"60 578 CURVE SMOOTH",
"75 602 OFFCURVE",
"98 626 OFFCURVE",
"128 651 CURVE SMOOTH",
"151 670 OFFCURVE",
"159 691 OFFCURVE",
"158 704 CURVE SMOOTH",
"157 716 OFFCURVE",
"164 731 OFFCURVE",
"187 739 CURVE",
"204 746 OFFCURVE",
"220 743 OFFCURVE",
"235 730 CURVE SMOOTH",
"250 717 OFFCURVE",
"267 710 OFFCURVE",
"288 710 CURVE SMOOTH",
"364 711 OFFCURVE",
"418 694 OFFCURVE",
"462 666 CURVE",
"483 651 OFFCURVE",
"505 627 OFFCURVE",
"526 599 CURVE SMOOTH",
"547 570 OFFCURVE",
"567 537 OFFCURVE",
"584 505 CURVE SMOOTH",
"601 473 OFFCURVE",
"623 431 OFFCURVE",
"648 375 CURVE SMOOTH"
);
},
{
closed = 1;
nodes = (
"426 -44 OFFCURVE",
"499 -19 OFFCURVE",
"566 20 CURVE SMOOTH",
"633 59 OFFCURVE",
"672 95 OFFCURVE",
"704 130 CURVE SMOOTH",
"719 147 OFFCURVE",
"730 161 OFFCURVE",
"737 174 CURVE",
"744 185 OFFCURVE",
"746 194 OFFCURVE",
"744 199 CURVE SMOOTH",
"733 227 OFFCURVE",
"688 236 OFFCURVE",
"645 237 CURVE SMOOTH",
"602 237 OFFCURVE",
"548 230 OFFCURVE",
"484 214 CURVE SMOOTH",
"420 198 OFFCURVE",
"340 170 OFFCURVE",
"270 132 CURVE SMOOTH",
"200 94 OFFCURVE",
"160 61 OFFCURVE",
"132 29 CURVE SMOOTH",
"118 13 OFFCURVE",
"109 -1 OFFCURVE",
"104 -12 CURVE",
"95 -36 OFFCURVE",
"97 -44 OFFCURVE",
"122 -53 CURVE SMOOTH",
"147 -62 OFFCURVE",
"196 -70 OFFCURVE",
"252 -70 CURVE SMOOTH",
"279 -70 OFFCURVE",
"311 -66 OFFCURVE",
"350 -59 CURVE SMOOTH"
);
},
{
closed = 1;
nodes = (
"446 132 OFFCURVE",
"441 103 OFFCURVE",
"422 77 CURVE SMOOTH",
"402 51 OFFCURVE",
"372 27 OFFCURVE",
"333 12 CURVE SMOOTH",
"273 -9 OFFCURVE",
"213 -3 OFFCURVE",
"181 26 CURVE",
"235 71 OFFCURVE",
"308 111 OFFCURVE",
"399 146 CURVE",
"410 151 OFFCURVE",
"422 155 OFFCURVE",
"437 159 CURVE"
);
}
);
width = 830;
}
);
unicode = E01C;
},
{
glyphname = uniE01D;
lastChange = "2012-08-09 08:55:34 -0700";
layers = (
{
layerId = "8581214D-6E4F-46FC-B69F-48918E6333A9";
name = Regular;
paths = (
{
closed = 1;
nodes = (
"971 -74 LINE",
"979 -86 OFFCURVE",
"977 -98 OFFCURVE",
"970 -108 CURVE SMOOTH",
"963 -118 OFFCURVE",
"952 -125 OFFCURVE",
"940 -125 CURVE SMOOTH",
"50 -125 LINE SMOOTH",
"38 -125 OFFCURVE",
"27 -118 OFFCURVE",
"20 -108 CURVE SMOOTH",
"13 -98 OFFCURVE",
"11 -86 OFFCURVE",
"19 -74 CURVE",
"465 708 LINE SMOOTH",
"471 719 OFFCURVE",
"481 725 OFFCURVE",
"495 725 CURVE SMOOTH",
"509 725 OFFCURVE",
"519 719 OFFCURVE",
"525 708 CURVE SMOOTH"
);
},
{
closed = 1;
nodes = (
"556 150 LINE",
"556 450 LINE",
"434 450 LINE",
"434 150 LINE"
);
},
{
closed = 1;
nodes = (
"556 -25 LINE",
"556 75 LINE",
"434 75 LINE",
"434 -25 LINE"
);
}
);
width = 990;
}
);
unicode = E01D;
},
{
glyphname = uniE020;
lastChange = "2012-08-09 08:55:34 -0700";
layers = (
{
layerId = "8581214D-6E4F-46FC-B69F-48918E6333A9";
name = Regular;
paths = (
{
closed = 1;
nodes = (
"539 467 LINE",
"612 507 OFFCURVE",
"686 516 OFFCURVE",
"735 479 CURVE SMOOTH",
"770 452 OFFCURVE",
"787 408 OFFCURVE",
"786 352 CURVE SMOOTH",
"785 296 OFFCURVE",
"766 232 OFFCURVE",
"729 171 CURVE",
"941 -32 LINE SMOOTH",
"948 -39 OFFCURVE",
"950 -50 OFFCURVE",
"943 -57 CURVE",
"940 -63 OFFCURVE",
"934 -66 OFFCURVE",
"927 -66 CURVE SMOOTH",
"926 -66 OFFCURVE",
"923 -65 OFFCURVE",
"918 -64 CURVE",
"663 82 LINE",
"614 30 OFFCURVE",
"558 -8 OFFCURVE",
"506 -24 CURVE SMOOTH",
"454 -41 OFFCURVE",
"405 -39 OFFCURVE",
"368 -11 CURVE SMOOTH",
"320 25 OFFCURVE",
"306 98 OFFCURVE",
"325 179 CURVE",
"177 291 LINE",
"153 280 OFFCURVE",
"129 275 OFFCURVE",
"104 275 CURVE SMOOTH",
"57 275 OFFCURVE",
"23 302 OFFCURVE",
"8 346 CURVE SMOOTH",
"-20 435 OFFCURVE",
"31 535 OFFCURVE",
"73 591 CURVE SMOOTH",
"115 647 OFFCURVE",
"168 688 OFFCURVE",
"218 709 CURVE SMOOTH",
"268 729 OFFCURVE",
"314 729 OFFCURVE",
"349 704 CURVE SMOOTH",
"384 679 OFFCURVE",
"396 630 OFFCURVE",
"391 577 CURVE"
);
},
{
closed = 1;
nodes = (
"81 380 OFFCURVE",
"82 368 OFFCURVE",
"93 361 CURVE",
"98 356 OFFCURVE",
"106 353 OFFCURVE",
"116 353 CURVE SMOOTH",
"137 353 OFFCURVE",
"160 365 OFFCURVE",
"184 385 CURVE",
"209 404 OFFCURVE",
"232 428 OFFCURVE",
"253 457 CURVE SMOOTH",
"260 466 OFFCURVE",
"259 477 OFFCURVE",
"248 485 CURVE",
"240 492 OFFCURVE",
"228 490 OFFCURVE",
"221 481 CURVE SMOOTH",
"196 447 OFFCURVE",
"173 423 OFFCURVE",
"152 410 CURVE SMOOTH",
"132 397 OFFCURVE",
"120 391 OFFCURVE",
"116 392 CURVE",
"107 399 OFFCURVE",
"97 398 OFFCURVE",
"88 388 CURVE SMOOTH"
);
},
{
closed = 1;
nodes = (
"409 188 LINE",
"414 185 OFFCURVE",
"418 184 OFFCURVE",
"421 184 CURVE SMOOTH",
"436 184 OFFCURVE",
"442 195 OFFCURVE",
"441 206 CURVE",
"440 212 OFFCURVE",
"437 216 OFFCURVE",
"434 219 CURVE",
"262 347 LINE",
"251 338 OFFCURVE",
"241 329 OFFCURVE",
"231 322 CURVE"
);
},
{
closed = 1;
nodes = (
"399 60 OFFCURVE",
"425 44 OFFCURVE",
"453 44 CURVE SMOOTH",
"480 44 OFFCURVE",
"511 59 OFFCURVE",
"543 83 CURVE SMOOTH",
"574 107 OFFCURVE",
"606 138 OFFCURVE",
"633 173 CURVE",
"640 184 OFFCURVE",
"639 194 OFFCURVE",
"628 202 CURVE",
"620 209 OFFCURVE",
"608 206 OFFCURVE",
"601 197 CURVE SMOOTH",
"568 153 OFFCURVE",
"532 122 OFFCURVE",
"503 103 CURVE",
"488 94 OFFCURVE",
"475 88 OFFCURVE",
"465 85 CURVE SMOOTH",
"454 82 OFFCURVE",
"446 83 OFFCURVE",
"441 87 CURVE",
"433 94 OFFCURVE",
"421 91 OFFCURVE",
"414 83 CURVE"
);
}
);
width = 947;
}
);
unicode = E020;
},
{
glyphname = uniE021;
lastChange = "2012-08-09 08:55:34 -0700";
layers = (
{
layerId = "8581214D-6E4F-46FC-B69F-48918E6333A9";
name = Regular;
paths = (
{
closed = 1;
nodes = (
"0 663 LINE SMOOTH",
"0 696 OFFCURVE",
"28 724 OFFCURVE",
"61 724 CURVE SMOOTH",
"291 724 LINE SMOOTH",
"307 724 OFFCURVE",
"327 719 OFFCURVE",
"347 711 CURVE SMOOTH",
"366 703 OFFCURVE",
"383 693 OFFCURVE",
"395 681 CURVE SMOOTH",
"772 304 LINE",
"783 291 OFFCURVE",
"789 277 OFFCURVE",
"789 261 CURVE SMOOTH",
"789 244 OFFCURVE",
"783 230 OFFCURVE",
"772 217 CURVE",
"506 -48 LINE SMOOTH",
"494 -60 OFFCURVE",
"480 -66 OFFCURVE",
"463 -66 CURVE SMOOTH",
"446 -66 OFFCURVE",
"432 -60 OFFCURVE",
"420 -48 CURVE SMOOTH",
"43 329 LINE SMOOTH",
"19 353 OFFCURVE",
"0 400 OFFCURVE",
"0 433 CURVE SMOOTH"
);
},
{
closed = 1;
nodes = (
"105 596 OFFCURVE",
"99 582 OFFCURVE",
"99 566 CURVE SMOOTH",
"99 534 OFFCURVE",
"126 507 OFFCURVE",
"158 507 CURVE SMOOTH",
"190 507 OFFCURVE",
"217 534 OFFCURVE",
"217 566 CURVE SMOOTH",
"217 598 OFFCURVE",
"190 625 OFFCURVE",
"158 625 CURVE SMOOTH",
"142 625 OFFCURVE",
"128 619 OFFCURVE",
"117 608 CURVE SMOOTH"
);
}
);
width = 789;
}
);
unicode = E021;
},
{
glyphname = uniE022;
lastChange = "2012-08-09 08:55:34 -0700";
layers = (
{
layerId = "8581214D-6E4F-46FC-B69F-48918E6333A9";
name = Regular;
paths = (
{
closed = 1;
nodes = (
"0 663 LINE SMOOTH",
"0 696 OFFCURVE",
"28 724 OFFCURVE",
"61 724 CURVE SMOOTH",
"289 724 LINE SMOOTH",
"324 724 OFFCURVE",
"371 705 OFFCURVE",
"394 681 CURVE SMOOTH",
"732 304 LINE SMOOTH",
"753 280 OFFCURVE",
"755 241 OFFCURVE",
"732 217 CURVE SMOOTH",
"466 -47 LINE SMOOTH",
"442 -71 OFFCURVE",
"404 -72 OFFCURVE",
"380 -47 CURVE",
"43 330 LINE SMOOTH",
"20 355 OFFCURVE",
"0 401 OFFCURVE",
"0 434 CURVE SMOOTH"
);
},
{
closed = 1;
nodes = (
"486 723 LINE SMOOTH",
"521 723 OFFCURVE",
"568 703 OFFCURVE",
"591 679 CURVE SMOOTH",
"928 303 LINE SMOOTH",
"951 278 OFFCURVE",
"952 240 OFFCURVE",
"928 216 CURVE SMOOTH",
"663 -48 LINE SMOOTH",
"639 -72 OFFCURVE",
"601 -73 OFFCURVE",
"577 -48 CURVE",
"571 -41 LINE",
"829 217 LINE SMOOTH",
"853 241 OFFCURVE",
"852 280 OFFCURVE",
"829 304 CURVE",
"493 681 LINE",
"472 702 OFFCURVE",
"431 720 OFFCURVE",
"399 723 CURVE"
);
},
{
closed = 1;
nodes = (
"105 596 OFFCURVE",
"99 582 OFFCURVE",
"99 566 CURVE SMOOTH",
"99 534 OFFCURVE",
"126 507 OFFCURVE",
"158 507 CURVE SMOOTH",
"190 507 OFFCURVE",
"217 534 OFFCURVE",
"217 566 CURVE SMOOTH",
"217 598 OFFCURVE",
"190 625 OFFCURVE",
"158 625 CURVE SMOOTH",
"142 625 OFFCURVE",
"128 619 OFFCURVE",
"117 608 CURVE SMOOTH"
);
}
);
width = 945;
}
);
unicode = E022;
},
{
glyphname = uniE023;
lastChange = "2012-08-09 08:55:34 -0700";
layers = (
{
layerId = "8581214D-6E4F-46FC-B69F-48918E6333A9";
name = Regular;
paths = (
{
closed = 1;
nodes = (
"484 675 LINE",
"493 651 OFFCURVE",
"494 631 OFFCURVE",
"491 608 CURVE",
"522 607 OFFCURVE",
"562 604 OFFCURVE",
"598 600 CURVE SMOOTH",
"634 595 OFFCURVE",
"665 590 OFFCURVE",
"681 582 CURVE",
"682 579 OFFCURVE",
"682 576 OFFCURVE",
"682 573 CURVE SMOOTH",
"682 570 OFFCURVE",
"682 567 OFFCURVE",
"682 564 CURVE SMOOTH",
"682 530 LINE SMOOTH",
"682 527 OFFCURVE",
"682 525 OFFCURVE",
"682 522 CURVE SMOOTH",
"682 519 OFFCURVE",
"682 515 OFFCURVE",
"681 512 CURVE",
"668 504 OFFCURVE",
"636 498 OFFCURVE",
"601 494 CURVE SMOOTH",
"566 490 OFFCURVE",
"528 487 OFFCURVE",
"497 486 CURVE",
"490 485 OFFCURVE",
"483 485 OFFCURVE",
"476 485 CURVE SMOOTH",
"469 485 OFFCURVE",
"463 485 OFFCURVE",
"458 485 CURVE",
"453 484 OFFCURVE",
"449 484 OFFCURVE",
"446 484 CURVE SMOOTH",
"443 484 OFFCURVE",
"442 484 OFFCURVE",
"441 484 CURVE SMOOTH",
"341 484 LINE",
"327 483 LINE",
"298 483 LINE SMOOTH",
"291 483 OFFCURVE",
"283 483 OFFCURVE",
"274 483 CURVE SMOOTH",
"265 483 OFFCURVE",
"254 483 OFFCURVE",
"241 484 CURVE",
"240 484 OFFCURVE",
"239 484 OFFCURVE",
"236 484 CURVE SMOOTH",
"233 484 OFFCURVE",
"229 484 OFFCURVE",
"224 485 CURVE",
"203 485 OFFCURVE",
"171 486 OFFCURVE",
"135 489 CURVE SMOOTH",
"98 492 OFFCURVE",
"62 495 OFFCURVE",
"34 502 CURVE",
"18 505 OFFCURVE",
"7 509 OFFCURVE",
"1 512 CURVE",
"1 530 LINE",
"0 533 OFFCURVE",
"0 535 OFFCURVE",
"0 538 CURVE SMOOTH",
"0 541 OFFCURVE",
"0 544 OFFCURVE",
"0 547 CURVE SMOOTH",
"0 550 OFFCURVE",
"0 552 OFFCURVE",
"0 555 CURVE SMOOTH",
"0 558 OFFCURVE",
"0 561 OFFCURVE",
"1 564 CURVE",
"1 582 LINE",
"17 590 OFFCURVE",
"49 595 OFFCURVE",
"85 600 CURVE SMOOTH",
"121 604 OFFCURVE",
"160 607 OFFCURVE",
"192 608 CURVE",
"188 630 OFFCURVE",
"190 653 OFFCURVE",
"198 676 CURVE",
"199 681 OFFCURVE",
"201 685 OFFCURVE",
"204 689 CURVE",
"207 694 OFFCURVE",
"213 699 OFFCURVE",
"224 704 CURVE",
"243 715 OFFCURVE",
"277 724 OFFCURVE",
"341 724 CURVE SMOOTH",
"405 724 OFFCURVE",
"439 715 OFFCURVE",
"459 704 CURVE SMOOTH",
"468 699 OFFCURVE",
"475 693 OFFCURVE",
"478 688 CURVE"
);
},
{
closed = 1;
nodes = (
"412 611 LINE",
"413 622 OFFCURVE",
"414 630 OFFCURVE",
"413 637 CURVE",
"397 642 OFFCURVE",
"369 644 OFFCURVE",
"341 644 CURVE SMOOTH",
"313 644 OFFCURVE",
"285 642 OFFCURVE",
"269 637 CURVE",
"268 630 OFFCURVE",
"268 622 OFFCURVE",
"271 610 CURVE",
"274 611 OFFCURVE",
"278 611 OFFCURVE",
"281 611 CURVE SMOOTH",
"284 611 OFFCURVE",
"288 611 OFFCURVE",
"292 611 CURVE SMOOTH"
);
},
{
closed = 1;
nodes = (
"418 431 LINE SMOOTH",
"423 431 OFFCURVE",
"428 431 OFFCURVE",
"432 431 CURVE SMOOTH",
"435 431 OFFCURVE",
"439 431 OFFCURVE",
"442 432 CURVE",
"489 433 OFFCURVE",
"552 436 OFFCURVE",
"612 444 CURVE",
"608 391 OFFCURVE",
"605 337 OFFCURVE",
"603 281 CURVE SMOOTH",
"602 253 OFFCURVE",
"601 226 OFFCURVE",
"600 199 CURVE SMOOTH",
"599 172 OFFCURVE",
"597 145 OFFCURVE",
"596 118 CURVE",
"595 111 OFFCURVE",
"595 104 OFFCURVE",
"595 97 CURVE SMOOTH",
"595 90 OFFCURVE",
"595 82 OFFCURVE",
"595 74 CURVE SMOOTH",
"594 41 OFFCURVE",
"593 11 OFFCURVE",
"586 -16 CURVE SMOOTH",
"579 -44 OFFCURVE",
"569 -57 OFFCURVE",
"527 -62 CURVE SMOOTH",
"506 -65 OFFCURVE",
"485 -66 OFFCURVE",
"465 -66 CURVE SMOOTH",
"217 -66 LINE SMOOTH",
"176 -66 OFFCURVE",
"128 -62 OFFCURVE",
"112 -47 CURVE SMOOTH",
"97 -32 OFFCURVE",
"93 -5 OFFCURVE",
"90 26 CURVE SMOOTH",
"89 41 OFFCURVE",
"88 57 OFFCURVE",
"88 74 CURVE",
"87 82 OFFCURVE",
"87 90 OFFCURVE",
"87 97 CURVE SMOOTH",
"87 104 OFFCURVE",
"87 111 OFFCURVE",
"86 118 CURVE",
"85 145 OFFCURVE",
"84 172 OFFCURVE",
"83 199 CURVE SMOOTH",
"81 253 OFFCURVE",
"78 310 OFFCURVE",
"75 364 CURVE SMOOTH",
"74 391 OFFCURVE",
"72 417 OFFCURVE",
"71 444 CURVE",
"128 436 OFFCURVE",
"194 433 OFFCURVE",
"239 432 CURVE",
"242 431 OFFCURVE",
"246 431 OFFCURVE",
"250 431 CURVE SMOOTH",
"253 431 OFFCURVE",
"258 431 OFFCURVE",
"263 431 CURVE SMOOTH"
);
},
{
closed = 1;
nodes = (
"166 71 LINE SMOOTH",
"166 63 OFFCURVE",
"167 52 OFFCURVE",
"168 36 CURVE SMOOTH",
"169 25 OFFCURVE",
"185 15 OFFCURVE",
"193 15 CURVE",
"195 14 OFFCURVE",
"198 14 OFFCURVE",
"203 14 CURVE SMOOTH",
"207 14 OFFCURVE",
"210 14 OFFCURVE",
"212 13 CURVE",
"223 13 LINE SMOOTH",
"226 13 OFFCURVE",
"228 20 OFFCURVE",
"228 33 CURVE SMOOTH",
"228 334 LINE SMOOTH",
"228 347 OFFCURVE",
"221 354 OFFCURVE",
"208 354 CURVE",
"174 356 LINE",
"161 356 OFFCURVE",
"155 350 OFFCURVE",
"155 337 CURVE",
"156 332 OFFCURVE",
"156 327 OFFCURVE",
"156 322 CURVE SMOOTH",
"156 317 OFFCURVE",
"156 313 OFFCURVE",
"156 308 CURVE SMOOTH",
"156 289 OFFCURVE",
"157 276 OFFCURVE",
"158 265 CURVE",
"159 241 OFFCURVE",
"161 217 OFFCURVE",
"162 193 CURVE",
"163 181 OFFCURVE",
"163 169 OFFCURVE",
"164 158 CURVE",
"164 146 OFFCURVE",
"164 134 OFFCURVE",
"165 123 CURVE",
"166 120 OFFCURVE",
"166 117 OFFCURVE",
"166 114 CURVE SMOOTH",
"166 111 OFFCURVE",
"166 108 OFFCURVE",
"166 105 CURVE SMOOTH"
);
},
{
closed = 1;
nodes = (
"455 33 LINE SMOOTH",
"455 20 OFFCURVE",
"456 13 OFFCURVE",
"459 13 CURVE SMOOTH",
"471 13 LINE",
"475 14 OFFCURVE",
"493 15 OFFCURVE",
"500 15 CURVE",
"508 16 OFFCURVE",
"513 23 OFFCURVE",
"514 36 CURVE",
"514 40 OFFCURVE",
"514 44 OFFCURVE",
"514 47 CURVE SMOOTH",
"514 50 OFFCURVE",
"514 54 OFFCURVE",
"515 57 CURVE",
"515 71 LINE SMOOTH",
"515 77 OFFCURVE",
"515 81 OFFCURVE",
"516 84 CURVE",
"516 105 LINE SMOOTH",
"516 108 OFFCURVE",
"516 111 OFFCURVE",
"516 114 CURVE SMOOTH",
"516 117 OFFCURVE",
"516 120 OFFCURVE",
"517 123 CURVE",
"518 134 OFFCURVE",
"518 146 OFFCURVE",
"519 158 CURVE",
"519 169 OFFCURVE",
"519 181 OFFCURVE",
"520 193 CURVE SMOOTH",
"521 204 OFFCURVE",
"521 216 OFFCURVE",
"522 228 CURVE",
"522 240 OFFCURVE",
"522 252 OFFCURVE",
"523 264 CURVE",
"523 267 OFFCURVE",
"523 271 OFFCURVE",
"523 274 CURVE SMOOTH",
"523 277 OFFCURVE",
"523 281 OFFCURVE",
"524 285 CURVE",
"525 288 OFFCURVE",
"525 292 OFFCURVE",
"525 296 CURVE SMOOTH",
"525 299 OFFCURVE",
"525 303 OFFCURVE",
"526 308 CURVE",
"526 313 OFFCURVE",
"526 317 OFFCURVE",
"526 322 CURVE SMOOTH",
"526 327 OFFCURVE",
"526 332 OFFCURVE",
"527 337 CURVE",
"527 350 OFFCURVE",
"521 356 OFFCURVE",
"508 356 CURVE",
"474 354 LINE",
"461 354 OFFCURVE",
"455 347 OFFCURVE",
"455 334 CURVE SMOOTH"
);
},
{
closed = 1;
nodes = (
"307 33 LINE SMOOTH",
"307 22 OFFCURVE",
"315 13 OFFCURVE",
"326 13 CURVE SMOOTH",
"356 13 LINE SMOOTH",
"367 13 OFFCURVE",
"376 22 OFFCURVE",
"376 33 CURVE SMOOTH",
"376 333 LINE SMOOTH",
"376 345 OFFCURVE",
"354 352 OFFCURVE",
"349 352 CURVE SMOOTH",
"334 352 LINE SMOOTH",
"330 352 OFFCURVE",
"307 345 OFFCURVE",
"307 333 CURVE SMOOTH"
);
}
);
width = 682;
}
);
unicode = E023;
},
{
glyphname = uniE024;
lastChange = "2012-08-09 08:55:34 -0700";
layers = (
{
layerId = "8581214D-6E4F-46FC-B69F-48918E6333A9";
name = Regular;
paths = (
{
closed = 1;
nodes = (
"315 740 OFFCURVE",
"392 760 OFFCURVE",
"475 760 CURVE SMOOTH",
"559 760 OFFCURVE",
"638 738 OFFCURVE",
"707 699 CURVE SMOOTH",
"775 659 OFFCURVE",
"833 602 OFFCURVE",
"874 531 CURVE SMOOTH",
"915 460 OFFCURVE",
"935 383 OFFCURVE",
"935 300 CURVE SMOOTH",
"935 216 OFFCURVE",
"913 137 OFFCURVE",
"874 69 CURVE SMOOTH",
"834 1 OFFCURVE",
"777 -57 OFFCURVE",
"706 -98 CURVE SMOOTH",
"635 -139 OFFCURVE",
"558 -160 OFFCURVE",
"475 -160 CURVE SMOOTH",
"391 -160 OFFCURVE",
"312 -138 OFFCURVE",
"244 -98 CURVE SMOOTH",
"176 -59 OFFCURVE",
"118 -2 OFFCURVE",
"77 69 CURVE SMOOTH",
"36 140 OFFCURVE",
"15 217 OFFCURVE",
"15 300 CURVE SMOOTH",
"15 384 OFFCURVE",
"37 463 OFFCURVE",
"77 532 CURVE SMOOTH",
"116 600 OFFCURVE",
"173 658 OFFCURVE",
"244 699 CURVE SMOOTH"
);
},
{
closed = 1;
nodes = (
"696 571 LINE",
"631 624 OFFCURVE",
"558 650 OFFCURVE",
"475 650 CURVE SMOOTH",
"379 650 OFFCURVE",
"291 611 OFFCURVE",
"228 548 CURVE SMOOTH",
"164 484 OFFCURVE",
"125 396 OFFCURVE",
"125 300 CURVE SMOOTH",
"125 217 OFFCURVE",
"151 143 OFFCURVE",
"204 78 CURVE"
);
},
{
closed = 1;
nodes = (
"254 29 LINE",
"319 -24 OFFCURVE",
"392 -50 OFFCURVE",
"475 -50 CURVE SMOOTH",
"571 -50 OFFCURVE",
"659 -11 OFFCURVE",
"723 53 CURVE SMOOTH",
"786 116 OFFCURVE",
"825 204 OFFCURVE",
"825 300 CURVE SMOOTH",
"825 383 OFFCURVE",
"799 456 OFFCURVE",
"746 521 CURVE"
);
}
);
width = 950;
}
);
unicode = E024;
},
{
glyphname = uniE025;
lastChange = "2012-08-09 08:55:34 -0700";
layers = (
{
layerId = "8581214D-6E4F-46FC-B69F-48918E6333A9";
name = Regular;
paths = (
{
closed = 1;
nodes = (
"0 704 LINE SMOOTH",
"0 717 OFFCURVE",
"7 724 OFFCURVE",
"20 724 CURVE SMOOTH",
"139 724 LINE SMOOTH",
"150 724 OFFCURVE",
"166 720 OFFCURVE",
"177 717 CURVE",
"188 709 OFFCURVE",
"195 693 OFFCURVE",
"199 684 CURVE",
"200 679 OFFCURVE",
"201 676 OFFCURVE",
"202 673 CURVE",
"216 609 LINE",
"908 609 LINE SMOOTH",
"932 609 OFFCURVE",
"950 588 OFFCURVE",
"946 565 CURVE SMOOTH",
"891 268 LINE",
"886 251 OFFCURVE",
"871 237 OFFCURVE",
"852 237 CURVE SMOOTH",
"295 237 LINE",
"313 151 LINE SMOOTH",
"316 138 OFFCURVE",
"324 132 OFFCURVE",
"337 132 CURVE SMOOTH",
"777 132 LINE SMOOTH",
"788 132 OFFCURVE",
"797 124 OFFCURVE",
"797 112 CURVE SMOOTH",
"797 72 LINE SMOOTH",
"797 61 OFFCURVE",
"788 53 OFFCURVE",
"777 53 CURVE SMOOTH",
"304 53 LINE SMOOTH",
"293 53 OFFCURVE",
"278 55 OFFCURVE",
"267 59 CURVE",
"258 66 OFFCURVE",
"249 84 OFFCURVE",
"246 93 CURVE",
"244 97 OFFCURVE",
"243 101 OFFCURVE",
"242 104 CURVE",
"132 626 LINE",
"127 639 OFFCURVE",
"119 645 OFFCURVE",
"107 645 CURVE SMOOTH",
"20 645 LINE SMOOTH",
"7 645 OFFCURVE",
"0 652 OFFCURVE",
"0 665 CURVE SMOOTH"
);
},
{
closed = 1;
nodes = (
"305 -37 OFFCURVE",
"299 -24 OFFCURVE",
"299 -7 CURVE SMOOTH",
"299 25 OFFCURVE",
"326 53 OFFCURVE",
"358 53 CURVE SMOOTH",
"391 53 OFFCURVE",
"418 25 OFFCURVE",
"418 -7 CURVE SMOOTH",
"418 -39 OFFCURVE",
"391 -66 OFFCURVE",
"358 -66 CURVE SMOOTH",
"341 -66 OFFCURVE",
"328 -60 OFFCURVE",
"317 -48 CURVE"
);
},
{
closed = 1;
nodes = (
"640 -37 OFFCURVE",
"634 -23 OFFCURVE",
"634 -7 CURVE SMOOTH",
"634 25 OFFCURVE",
"660 53 OFFCURVE",
"693 53 CURVE SMOOTH",
"725 53 OFFCURVE",
"752 25 OFFCURVE",
"752 -7 CURVE SMOOTH",
"752 -39 OFFCURVE",
"725 -66 OFFCURVE",
"693 -66 CURVE SMOOTH",
"676 -66 OFFCURVE",
"662 -60 OFFCURVE",
"651 -48 CURVE"
);
}
);
width = 947;
}
);
unicode = E025;
},
{
glyphname = uniE026;
lastChange = "2012-08-09 08:59:53 -0700";
layers = (
{
layerId = "8581214D-6E4F-46FC-B69F-48918E6333A9";
name = Regular;
paths = (
{
closed = 1;
nodes = (
"891 143 OFFCURVE",
"877 100 OFFCURVE",
"844 76 CURVE",
"895 -84 OFFCURVE",
"652 -81 OFFCURVE",
"451 -18 CURVE SMOOTH",
"416 -7 OFFCURVE",
"395 2 OFFCURVE",
"388 9 CURVE",
"388 -49 LINE SMOOTH",
"388 -65 OFFCURVE",
"374 -79 OFFCURVE",
"359 -79 CURVE SMOOTH",
"154 -79 LINE SMOOTH",
"138 -79 OFFCURVE",
"125 -65 OFFCURVE",
"125 -49 CURVE SMOOTH",
"125 432 LINE SMOOTH",
"125 448 OFFCURVE",
"138 461 OFFCURVE",
"154 461 CURVE SMOOTH",
"359 461 LINE SMOOTH",
"374 461 OFFCURVE",
"388 448 OFFCURVE",
"388 432 CURVE SMOOTH",
"388 400 LINE",
"445 439 OFFCURVE",
"500 533 OFFCURVE",
"520 582 CURVE SMOOTH",
"529 606 OFFCURVE",
"535 622 OFFCURVE",
"536 630 CURVE",
"552 698 OFFCURVE",
"587 732 OFFCURVE",
"642 732 CURVE SMOOTH",
"706 732 OFFCURVE",
"765 669 OFFCURVE",
"765 561 CURVE SMOOTH",
"765 526 OFFCURVE",
"755 491 OFFCURVE",
"736 454 CURVE",
"754 454 LINE SMOOTH",
"842 454 OFFCURVE",
"908 409 OFFCURVE",
"884 312 CURVE",
"908 261 OFFCURVE",
"898 214 OFFCURVE",
"871 190 CURVE"
);
},
{
closed = 1;
nodes = (
"752 192 OFFCURVE",
"747 199 OFFCURVE",
"751 204 CURVE",
"753 207 OFFCURVE",
"756 208 OFFCURVE",
"761 208 CURVE SMOOTH",
"806 208 OFFCURVE",
"828 239 OFFCURVE",
"813 265 CURVE SMOOTH",
"805 278 OFFCURVE",
"791 284 OFFCURVE",
"770 285 CURVE",
"762 285 OFFCURVE",
"758 291 OFFCURVE",
"762 296 CURVE",
"763 299 OFFCURVE",
"766 300 OFFCURVE",
"770 300 CURVE SMOOTH",
"822 300 OFFCURVE",
"826 355 OFFCURVE",
"785 376 CURVE",
"776 380 OFFCURVE",
"765 382 OFFCURVE",
"754 382 CURVE SMOOTH",
"680 382 LINE SMOOTH",
"655 382 OFFCURVE",
"641 396 OFFCURVE",
"641 415 CURVE SMOOTH",
"641 424 OFFCURVE",
"650 445 OFFCURVE",
"668 480 CURVE SMOOTH",
"685 515 OFFCURVE",
"694 541 OFFCURVE",
"694 560 CURVE SMOOTH",
"694 619 OFFCURVE",
"666 661 OFFCURVE",
"642 661 CURVE SMOOTH",
"622 661 OFFCURVE",
"611 648 OFFCURVE",
"608 622 CURVE",
"592 519 OFFCURVE",
"479 355 OFFCURVE",
"388 315 CURVE",
"388 89 LINE",
"477 44 OFFCURVE",
"579 20 OFFCURVE",
"695 15 CURVE SMOOTH",
"734 14 OFFCURVE",
"762 24 OFFCURVE",
"778 45 CURVE SMOOTH",
"791 63 OFFCURVE",
"785 78 OFFCURVE",
"760 91 CURVE",
"753 94 OFFCURVE",
"744 97 OFFCURVE",
"735 99 CURVE",
"715 102 OFFCURVE",
"718 118 OFFCURVE",
"731 118 CURVE SMOOTH",
"771 118 OFFCURVE",
"795 128 OFFCURVE",
"802 149 CURVE",
"809 166 OFFCURVE",
"802 178 OFFCURVE",
"782 186 CURVE SMOOTH",
"775 189 OFFCURVE",
"768 190 OFFCURVE",
"761 191 CURVE SMOOTH"
);
}
);
width = 998;
}
);
unicode = E026;
},
{
glyphname = uniE027;
lastChange = "2012-08-09 09:00:09 -0700";
layers = (
{
layerId = "8581214D-6E4F-46FC-B69F-48918E6333A9";
name = Regular;
paths = (
{
closed = 1;
nodes = (
"107 477 OFFCURVE",
"122 520 OFFCURVE",
"155 544 CURVE",
"103 704 OFFCURVE",
"345 701 OFFCURVE",
"548 638 CURVE SMOOTH",
"583 627 OFFCURVE",
"604 618 OFFCURVE",
"611 611 CURVE",
"611 669 LINE SMOOTH",
"611 685 OFFCURVE",
"625 699 OFFCURVE",
"640 699 CURVE SMOOTH",
"844 699 LINE SMOOTH",
"860 699 OFFCURVE",
"874 685 OFFCURVE",
"874 669 CURVE SMOOTH",
"874 188 LINE SMOOTH",
"874 172 OFFCURVE",
"860 159 OFFCURVE",
"844 159 CURVE SMOOTH",
"640 159 LINE SMOOTH",
"625 159 OFFCURVE",
"611 172 OFFCURVE",
"611 188 CURVE SMOOTH",
"611 220 LINE",
"554 181 OFFCURVE",
"497 87 OFFCURVE",
"479 39 CURVE SMOOTH",
"470 14 OFFCURVE",
"464 -2 OFFCURVE",
"462 -10 CURVE SMOOTH",
"446 -78 OFFCURVE",
"410 -112 OFFCURVE",
"355 -112 CURVE SMOOTH",
"294 -112 OFFCURVE",
"234 -49 OFFCURVE",
"234 59 CURVE SMOOTH",
"234 96 OFFCURVE",
"243 132 OFFCURVE",
"262 166 CURVE",
"244 166 LINE SMOOTH",
"157 166 OFFCURVE",
"90 211 OFFCURVE",
"114 308 CURVE",
"90 359 OFFCURVE",
"101 406 OFFCURVE",
"128 430 CURVE"
);
},
{
closed = 1;
nodes = (
"247 428 OFFCURVE",
"252 421 OFFCURVE",
"248 416 CURVE",
"246 413 OFFCURVE",
"243 412 OFFCURVE",
"238 412 CURVE SMOOTH",
"193 412 OFFCURVE",
"171 382 OFFCURVE",
"187 356 CURVE",
"194 343 OFFCURVE",
"208 336 OFFCURVE",
"229 335 CURVE",
"237 335 OFFCURVE",
"241 329 OFFCURVE",
"238 324 CURVE",
"236 321 OFFCURVE",
"233 320 OFFCURVE",
"229 320 CURVE SMOOTH",
"177 320 OFFCURVE",
"171 265 OFFCURVE",
"212 245 CURVE",
"221 240 OFFCURVE",
"232 238 OFFCURVE",
"244 238 CURVE SMOOTH",
"319 238 LINE SMOOTH",
"344 238 OFFCURVE",
"356 224 OFFCURVE",
"356 205 CURVE SMOOTH",
"356 196 OFFCURVE",
"348 175 OFFCURVE",
"331 140 CURVE SMOOTH",
"314 105 OFFCURVE",
"305 79 OFFCURVE",
"305 60 CURVE SMOOTH",
"305 1 OFFCURVE",
"332 -41 OFFCURVE",
"355 -41 CURVE SMOOTH",
"376 -41 OFFCURVE",
"388 -28 OFFCURVE",
"391 -2 CURVE SMOOTH",
"406 101 OFFCURVE",
"519 265 OFFCURVE",
"611 305 CURVE",
"611 531 LINE",
"518 577 OFFCURVE",
"416 601 OFFCURVE",
"304 604 CURVE SMOOTH",
"264 605 OFFCURVE",
"236 595 OFFCURVE",
"221 574 CURVE SMOOTH",
"208 557 OFFCURVE",
"214 542 OFFCURVE",
"239 529 CURVE",
"246 526 OFFCURVE",
"255 523 OFFCURVE",
"264 521 CURVE",
"284 518 OFFCURVE",
"282 502 OFFCURVE",
"266 502 CURVE SMOOTH",
"225 502 OFFCURVE",
"202 491 OFFCURVE",
"195 470 CURVE SMOOTH",
"189 453 OFFCURVE",
"197 441 OFFCURVE",
"219 432 CURVE",
"225 430 OFFCURVE",
"231 429 OFFCURVE",
"238 428 CURVE"
);
}
);
width = 998;
}
);
unicode = E027;
},
{
glyphname = uniE028;
lastChange = "2012-09-04 10:41:00 -0700";
layers = (
{
layerId = "8581214D-6E4F-46FC-B69F-48918E6333A9";
name = Regular;
paths = (
{
closed = 1;
nodes = (
"4 277 OFFCURVE",
"0 291 OFFCURVE",
"0 306 CURVE SMOOTH",
"0 321 OFFCURVE",
"4 335 OFFCURVE",
"13 348 CURVE",
"66 433 OFFCURVE",
"136 502 OFFCURVE",
"216 550 CURVE SMOOTH",
"295 597 OFFCURVE",
"382 622 OFFCURVE",
"474 622 CURVE SMOOTH",
"566 622 OFFCURVE",
"654 597 OFFCURVE",
"733 550 CURVE SMOOTH",
"812 503 OFFCURVE",
"881 435 OFFCURVE",
"936 348 CURVE",
"943 335 OFFCURVE",
"947 321 OFFCURVE",
"947 306 CURVE SMOOTH",
"947 291 OFFCURVE",
"943 277 OFFCURVE",
"936 264 CURVE",
"881 176 OFFCURVE",
"812 108 OFFCURVE",
"733 62 CURVE SMOOTH",
"654 16 OFFCURVE",
"566 -10 OFFCURVE",
"474 -10 CURVE SMOOTH",
"382 -10 OFFCURVE",
"295 15 OFFCURVE",
"216 62 CURVE SMOOTH",
"136 109 OFFCURVE",
"66 177 OFFCURVE",
"13 264 CURVE"
);
},
{
closed = 1;
nodes = (
"124 234 OFFCURVE",
"182 174 OFFCURVE",
"250 134 CURVE SMOOTH",
"317 93 OFFCURVE",
"393 69 OFFCURVE",
"474 69 CURVE SMOOTH",
"555 69 OFFCURVE",
"630 93 OFFCURVE",
"698 134 CURVE SMOOTH",
"765 174 OFFCURVE",
"824 234 OFFCURVE",
"868 306 CURVE",
"813 394 OFFCURVE",
"739 462 OFFCURVE",
"651 503 CURVE",
"686 462 OFFCURVE",
"706 411 OFFCURVE",
"706 352 CURVE SMOOTH",
"706 287 OFFCURVE",
"680 228 OFFCURVE",
"637 185 CURVE SMOOTH",
"593 141 OFFCURVE",
"534 115 OFFCURVE",
"469 115 CURVE SMOOTH",
"404 115 OFFCURVE",
"346 141 OFFCURVE",
"302 185 CURVE SMOOTH",
"258 228 OFFCURVE",
"233 287 OFFCURVE",
"233 352 CURVE SMOOTH",
"233 405 OFFCURVE",
"252 455 OFFCURVE",
"281 494 CURVE",
"201 454 OFFCURVE",
"131 389 OFFCURVE",
"79 306 CURVE"
);
},
{
closed = 1;
nodes = (
"316 337 OFFCURVE",
"329 323 OFFCURVE",
"346 323 CURVE SMOOTH",
"362 323 OFFCURVE",
"375 337 OFFCURVE",
"375 352 CURVE SMOOTH",
"375 405 OFFCURVE",
"416 447 OFFCURVE",
"469 447 CURVE SMOOTH",
"486 447 OFFCURVE",
"499 461 OFFCURVE",
"499 476 CURVE SMOOTH",
"499 493 OFFCURVE",
"486 506 OFFCURVE",
"469 506 CURVE SMOOTH",
"428 506 OFFCURVE",
"388 489 OFFCURVE",
"361 462 CURVE SMOOTH",
"333 434 OFFCURVE",
"316 395 OFFCURVE",
"316 352 CURVE SMOOTH"
);
}
);
width = 947;
}
);
unicode = E028;
},
{
glyphname = uniE02A;
lastChange = "2012-08-09 08:55:34 -0700";
layers = (
{
layerId = "8581214D-6E4F-46FC-B69F-48918E6333A9";
name = Regular;
paths = (
{
closed = 1;
nodes = (
"80 475 LINE SMOOTH",
"63 475 OFFCURVE",
"56 487 OFFCURVE",
"60 499 CURVE",
"62 504 OFFCURVE",
"65 508 OFFCURVE",
"70 510 CURVE",
"192 553 OFFCURVE",
"259 575 OFFCURVE",
"270 575 CURVE SMOOTH",
"315 575 LINE",
"315 725 LINE",
"695 725 LINE",
"695 575 LINE",
"740 575 LINE SMOOTH",
"751 575 OFFCURVE",
"818 553 OFFCURVE",
"940 510 CURVE",
"949 506 OFFCURVE",
"955 494 OFFCURVE",
"948 483 CURVE SMOOTH",
"945 478 OFFCURVE",
"939 475 OFFCURVE",
"930 475 CURVE SMOOTH"
);
},
{
closed = 1;
nodes = (
"940 420 LINE SMOOTH",
"968 420 OFFCURVE",
"995 388 OFFCURVE",
"995 360 CURVE SMOOTH",
"995 185 LINE SMOOTH",
"995 157 OFFCURVE",
"968 125 OFFCURVE",
"940 125 CURVE SMOOTH",
"841 125 LINE",
"885 -125 LINE",
"125 -125 LINE",
"169 125 LINE",
"70 125 LINE SMOOTH",
"42 125 OFFCURVE",
"15 157 OFFCURVE",
"15 185 CURVE SMOOTH",
"15 360 LINE SMOOTH",
"15 388 OFFCURVE",
"42 420 OFFCURVE",
"70 420 CURVE SMOOTH"
);
},
{
closed = 1;
nodes = (
"225 -25 LINE",
"785 -25 LINE",
"715 300 LINE",
"295 300 LINE"
);
}
);
width = 1010;
}
);
unicode = E02A;
},
{
glyphname = uniE02B;
lastChange = "2012-08-09 08:55:34 -0700";
layers = (
{
layerId = "8581214D-6E4F-46FC-B69F-48918E6333A9";
name = Regular;
paths = (
{
closed = 1;
nodes = (
"683 357 LINE",
"607 357 OFFCURVE",
"551 352 OFFCURVE",
"505 340 CURVE SMOOTH",
"459 328 OFFCURVE",
"422 308 OFFCURVE",
"389 277 CURVE SMOOTH",
"356 246 OFFCURVE",
"319 199 OFFCURVE",
"280 135 CURVE",
"280 138 OFFCURVE",
"280 141 OFFCURVE",
"280 145 CURVE SMOOTH",
"280 152 OFFCURVE",
"280 160 OFFCURVE",
"284 180 CURVE",
"287 200 OFFCURVE",
"292 226 OFFCURVE",
"300 254 CURVE SMOOTH",
"307 281 OFFCURVE",
"315 305 OFFCURVE",
"330 334 CURVE SMOOTH",
"345 362 OFFCURVE",
"365 391 OFFCURVE",
"389 418 CURVE SMOOTH",
"401 431 OFFCURVE",
"414 444 OFFCURVE",
"427 455 CURVE SMOOTH",
"482 499 OFFCURVE",
"574 533 OFFCURVE",
"683 533 CURVE",
"683 690 LINE",
"1015 440 LINE",
"683 180 LINE"
);
},
{
closed = 1;
nodes = (
"765 10 LINE",
"765 65 LINE",
"865 147 LINE",
"865 -40 LINE SMOOTH",
"865 -68 OFFCURVE",
"843 -90 OFFCURVE",
"815 -90 CURVE SMOOTH",
"65 -90 LINE SMOOTH",
"37 -90 OFFCURVE",
"15 -68 OFFCURVE",
"15 -40 CURVE SMOOTH",
"15 510 LINE SMOOTH",
"15 538 OFFCURVE",
"37 560 OFFCURVE",
"65 560 CURVE SMOOTH",
"353 560 LINE",
"309 528 OFFCURVE",
"269 490 OFFCURVE",
"256 473 CURVE",
"245 460 LINE",
"115 460 LINE",
"115 10 LINE"
);
}
);
width = 1030;
}
);
unicode = E02B;
},
{
glyphname = uniE030;
lastChange = "2012-08-09 08:55:34 -0700";
layers = (
{
layerId = "8581214D-6E4F-46FC-B69F-48918E6333A9";
name = Regular;
paths = (
{
closed = 1;
nodes = (
"328 759 OFFCURVE",
"408 780 OFFCURVE",
"495 780 CURVE SMOOTH",
"582 780 OFFCURVE",
"664 757 OFFCURVE",
"736 716 CURVE SMOOTH",
"807 675 OFFCURVE",
"868 614 OFFCURVE",
"911 541 CURVE SMOOTH",
"954 468 OFFCURVE",
"975 387 OFFCURVE",
"975 300 CURVE SMOOTH",
"975 213 OFFCURVE",
"952 131 OFFCURVE",
"911 60 CURVE SMOOTH",
"870 -12 OFFCURVE",
"809 -72 OFFCURVE",
"736 -115 CURVE SMOOTH",
"661 -158 OFFCURVE",
"581 -180 OFFCURVE",
"495 -180 CURVE SMOOTH",
"408 -180 OFFCURVE",
"326 -157 OFFCURVE",
"255 -115 CURVE SMOOTH",
"183 -73 OFFCURVE",
"123 -15 OFFCURVE",
"80 60 CURVE SMOOTH",
"37 133 OFFCURVE",
"15 213 OFFCURVE",
"15 300 CURVE SMOOTH",
"15 387 OFFCURVE",
"38 469 OFFCURVE",
"80 541 CURVE SMOOTH",
"122 612 OFFCURVE",
"180 673 OFFCURVE",
"255 716 CURVE SMOOTH"
);
},
{
closed = 1;
nodes = (
"364 694 OFFCURVE",
"297 664 OFFCURVE",
"241 620 CURVE SMOOTH",
"184 575 OFFCURVE",
"140 515 OFFCURVE",
"113 447 CURVE",
"113 447 OFFCURVE",
"115 447 OFFCURVE",
"120 447 CURVE",
"128 446 OFFCURVE",
"139 445 OFFCURVE",
"151 445 CURVE",
"156 444 OFFCURVE",
"161 444 OFFCURVE",
"164 443 CURVE",
"176 440 OFFCURVE",
"201 436 OFFCURVE",
"213 429 CURVE SMOOTH",
"218 426 OFFCURVE",
"222 422 OFFCURVE",
"224 417 CURVE SMOOTH",
"227 410 OFFCURVE",
"222 395 OFFCURVE",
"211 373 CURVE",
"199 351 OFFCURVE",
"193 331 OFFCURVE",
"193 312 CURVE SMOOTH",
"193 285 OFFCURVE",
"211 266 OFFCURVE",
"231 255 CURVE SMOOTH",
"250 244 OFFCURVE",
"268 228 OFFCURVE",
"268 208 CURVE SMOOTH",
"268 191 OFFCURVE",
"271 169 OFFCURVE",
"277 142 CURVE",
"282 113 OFFCURVE",
"285 98 OFFCURVE",
"285 97 CURVE SMOOTH",
"285 89 OFFCURVE",
"301 65 OFFCURVE",
"320 43 CURVE SMOOTH",
"339 21 OFFCURVE",
"360 0 OFFCURVE",
"372 0 CURVE SMOOTH",
"385 0 OFFCURVE",
"385 30 OFFCURVE",
"385 48 CURVE",
"384 57 OFFCURVE",
"383 67 OFFCURVE",
"382 78 CURVE SMOOTH",
"381 89 OFFCURVE",
"380 97 OFFCURVE",
"379 104 CURVE SMOOTH",
"378 110 OFFCURVE",
"378 114 OFFCURVE",
"378 116 CURVE",
"381 157 OFFCURVE",
"393 211 OFFCURVE",
"416 235 CURVE SMOOTH",
"427 247 OFFCURVE",
"439 256 OFFCURVE",
"450 261 CURVE SMOOTH",
"473 272 OFFCURVE",
"498 286 OFFCURVE",
"506 306 CURVE",
"518 349 OFFCURVE",
"522 377 OFFCURVE",
"506 401 CURVE SMOOTH",
"490 424 OFFCURVE",
"474 436 OFFCURVE",
"447 447 CURVE SMOOTH",
"420 458 OFFCURVE",
"403 460 OFFCURVE",
"383 464 CURVE SMOOTH",
"372 466 OFFCURVE",
"366 467 OFFCURVE",
"365 468 CURVE",
"353 472 OFFCURVE",
"338 474 OFFCURVE",
"323 475 CURVE",
"308 475 OFFCURVE",
"295 475 OFFCURVE",
"287 472 CURVE SMOOTH",
"279 469 OFFCURVE",
"268 475 OFFCURVE",
"259 484 CURVE",
"250 492 OFFCURVE",
"242 503 OFFCURVE",
"242 514 CURVE SMOOTH",
"242 520 OFFCURVE",
"247 529 OFFCURVE",
"257 540 CURVE SMOOTH",
"267 551 OFFCURVE",
"279 563 OFFCURVE",
"293 576 CURVE",
"306 589 OFFCURVE",
"315 599 OFFCURVE",
"320 608 CURVE",
"331 625 OFFCURVE",
"341 632 OFFCURVE",
"360 644 CURVE SMOOTH",
"368 649 OFFCURVE",
"377 655 OFFCURVE",
"387 664 CURVE",
"388 665 OFFCURVE",
"391 667 OFFCURVE",
"395 670 CURVE SMOOTH",
"399 673 OFFCURVE",
"405 676 OFFCURVE",
"412 681 CURVE",
"426 690 OFFCURVE",
"435 698 OFFCURVE",
"439 705 CURVE"
);
},
{
closed = 1;
nodes = (
"688 612 LINE SMOOTH",
"709 620 OFFCURVE",
"723 602 OFFCURVE",
"718 582 CURVE",
"715 572 OFFCURVE",
"709 563 OFFCURVE",
"700 555 CURVE SMOOTH",
"680 538 OFFCURVE",
"660 513 OFFCURVE",
"653 485 CURVE SMOOTH",
"649 470 OFFCURVE",
"655 450 OFFCURVE",
"665 430 CURVE SMOOTH",
"675 410 OFFCURVE",
"688 392 OFFCURVE",
"703 383 CURVE SMOOTH",
"718 374 OFFCURVE",
"737 369 OFFCURVE",
"759 368 CURVE",
"771 368 OFFCURVE",
"783 360 OFFCURVE",
"792 348 CURVE SMOOTH",
"801 336 OFFCURVE",
"808 320 OFFCURVE",
"812 307 CURVE",
"813 300 OFFCURVE",
"815 293 OFFCURVE",
"816 286 CURVE",
"819 273 OFFCURVE",
"820 258 OFFCURVE",
"820 233 CURVE SMOOTH",
"820 208 OFFCURVE",
"817 180 OFFCURVE",
"813 156 CURVE",
"810 144 OFFCURVE",
"807 134 OFFCURVE",
"804 127 CURVE",
"792 91 OFFCURVE",
"803 66 OFFCURVE",
"820 51 CURVE",
"876 124 OFFCURVE",
"904 207 OFFCURVE",
"904 300 CURVE SMOOTH",
"904 388 OFFCURVE",
"875 472 OFFCURVE",
"826 540 CURVE SMOOTH",
"777 608 OFFCURVE",
"706 660 OFFCURVE",
"625 688 CURVE",
"601 659 OFFCURVE",
"607 622 OFFCURVE",
"627 606 CURVE",
"636 597 OFFCURVE",
"645 595 OFFCURVE",
"656 599 CURVE"
);
},
{
closed = 1;
nodes = (
"409 -102 OFFCURVE",
"452 -109 OFFCURVE",
"495 -109 CURVE SMOOTH",
"576 -109 OFFCURVE",
"652 -86 OFFCURVE",
"721 -41 CURVE",
"713 -26 OFFCURVE",
"695 -17 OFFCURVE",
"673 -12 CURVE SMOOTH",
"651 -7 OFFCURVE",
"625 -6 OFFCURVE",
"602 -7 CURVE SMOOTH",
"586 -8 OFFCURVE",
"565 -14 OFFCURVE",
"538 -25 CURVE SMOOTH",
"525 -30 OFFCURVE",
"514 -34 OFFCURVE",
"506 -37 CURVE SMOOTH",
"498 -40 OFFCURVE",
"493 -41 OFFCURVE",
"491 -42 CURVE",
"490 -43 OFFCURVE",
"486 -43 OFFCURVE",
"481 -44 CURVE SMOOTH",
"476 -45 OFFCURVE",
"468 -47 OFFCURVE",
"459 -50 CURVE",
"440 -55 OFFCURVE",
"427 -57 OFFCURVE",
"416 -58 CURVE SMOOTH",
"407 -59 OFFCURVE",
"399 -64 OFFCURVE",
"390 -71 CURVE",
"380 -80 OFFCURVE",
"372 -86 OFFCURVE",
"366 -89 CURVE"
);
}
);
width = 990;
}
);
unicode = E030;
},
{
glyphname = uniE031;
lastChange = "2012-08-09 08:55:34 -0700";
layers = (
{
layerId = "8581214D-6E4F-46FC-B69F-48918E6333A9";
name = Regular;
paths = (
{
closed = 1;
nodes = (
"655 425 LINE SMOOTH",
"668 425 OFFCURVE",
"684 417 OFFCURVE",
"696 406 CURVE",
"707 394 OFFCURVE",
"715 378 OFFCURVE",
"715 365 CURVE SMOOTH",
"715 -25 LINE SMOOTH",
"715 -53 OFFCURVE",
"694 -82 OFFCURVE",
"667 -90 CURVE",
"608 -110 LINE SMOOTH",
"575 -120 OFFCURVE",
"542 -125 OFFCURVE",
"510 -125 CURVE SMOOTH",
"220 -125 LINE SMOOTH",
"187 -125 OFFCURVE",
"155 -120 OFFCURVE",
"122 -110 CURVE SMOOTH",
"63 -90 LINE",
"36 -82 OFFCURVE",
"15 -53 OFFCURVE",
"15 -25 CURVE SMOOTH",
"15 365 LINE SMOOTH",
"15 394 OFFCURVE",
"38 425 OFFCURVE",
"65 425 CURVE SMOOTH",
"165 425 LINE",
"165 495 LINE SMOOTH",
"165 643 OFFCURVE",
"233 725 OFFCURVE",
"365 725 CURVE SMOOTH",
"497 725 OFFCURVE",
"565 643 OFFCURVE",
"565 495 CURVE SMOOTH",
"565 425 LINE"
);
},
{
closed = 1;
nodes = (
"265 425 LINE",
"465 425 LINE",
"465 515 LINE SMOOTH",
"465 587 OFFCURVE",
"426 625 OFFCURVE",
"365 625 CURVE SMOOTH",
"304 625 OFFCURVE",
"265 587 OFFCURVE",
"265 515 CURVE SMOOTH"
);
}
);
width = 730;
}
);
unicode = E031;
},
{
glyphname = uniE032;
lastChange = "2012-08-09 08:55:34 -0700";
layers = (
{
layerId = "8581214D-6E4F-46FC-B69F-48918E6333A9";
name = Regular;
paths = (
{
closed = 1;
nodes = (
"655 400 LINE SMOOTH",
"668 400 OFFCURVE",
"684 392 OFFCURVE",
"696 381 CURVE",
"707 369 OFFCURVE",
"715 353 OFFCURVE",
"715 340 CURVE SMOOTH",
"715 -50 LINE SMOOTH",
"715 -78 OFFCURVE",
"694 -107 OFFCURVE",
"667 -115 CURVE",
"608 -135 LINE SMOOTH",
"575 -145 OFFCURVE",
"542 -150 OFFCURVE",
"510 -150 CURVE SMOOTH",
"220 -150 LINE SMOOTH",
"187 -150 OFFCURVE",
"155 -145 OFFCURVE",
"122 -135 CURVE SMOOTH",
"63 -115 LINE",
"36 -107 OFFCURVE",
"15 -78 OFFCURVE",
"15 -50 CURVE SMOOTH",
"15 340 LINE SMOOTH",
"15 369 OFFCURVE",
"38 400 OFFCURVE",
"65 400 CURVE SMOOTH",
"465 400 LINE",
"465 540 LINE SMOOTH",
"465 612 OFFCURVE",
"426 650 OFFCURVE",
"365 650 CURVE SMOOTH",
"304 650 OFFCURVE",
"265 612 OFFCURVE",
"265 540 CURVE SMOOTH",
"265 500 LINE",
"165 500 LINE",
"165 520 LINE SMOOTH",
"165 668 OFFCURVE",
"233 750 OFFCURVE",
"365 750 CURVE SMOOTH",
"497 750 OFFCURVE",
"565 668 OFFCURVE",
"565 520 CURVE SMOOTH",
"565 400 LINE"
);
}
);
width = 730;
}
);
unicode = E032;
},
{
glyphname = uniE033;
lastChange = "2012-08-09 08:55:34 -0700";
layers = (
{
layerId = "8581214D-6E4F-46FC-B69F-48918E6333A9";
name = Regular;
paths = (
{
closed = 1;
nodes = (
"265 -100 LINE",
"263 -97 OFFCURVE",
"261 -94 OFFCURVE",
"258 -91 CURVE SMOOTH",
"255 -88 OFFCURVE",
"253 -84 OFFCURVE",
"250 -80 CURVE SMOOTH",
"247 -76 OFFCURVE",
"243 -71 OFFCURVE",
"238 -65 CURVE SMOOTH",
"226 -50 OFFCURVE",
"203 -17 OFFCURVE",
"178 24 CURVE SMOOTH",
"153 64 OFFCURVE",
"123 111 OFFCURVE",
"102 154 CURVE",
"79 195 OFFCURVE",
"58 248 OFFCURVE",
"42 300 CURVE SMOOTH",
"26 352 OFFCURVE",
"15 406 OFFCURVE",
"15 450 CURVE SMOOTH",
"15 587 OFFCURVE",
"128 700 OFFCURVE",
"265 700 CURVE SMOOTH",
"333 700 OFFCURVE",
"396 672 OFFCURVE",
"441 627 CURVE SMOOTH",
"486 582 OFFCURVE",
"515 519 OFFCURVE",
"515 450 CURVE SMOOTH",
"515 406 OFFCURVE",
"505 354 OFFCURVE",
"489 302 CURVE SMOOTH",
"473 250 OFFCURVE",
"451 198 OFFCURVE",
"427 153 CURVE SMOOTH",
"378 61 OFFCURVE",
"325 -22 OFFCURVE",
"290 -66 CURVE"
);
},
{
closed = 1;
nodes = (
"196 325 OFFCURVE",
"228 312 OFFCURVE",
"265 312 CURVE SMOOTH",
"302 312 OFFCURVE",
"336 327 OFFCURVE",
"361 352 CURVE SMOOTH",
"385 376 OFFCURVE",
"400 410 OFFCURVE",
"400 447 CURVE SMOOTH",
"400 484 OFFCURVE",
"385 518 OFFCURVE",
"361 543 CURVE",
"336 567 OFFCURVE",
"302 582 OFFCURVE",
"265 582 CURVE SMOOTH",
"228 582 OFFCURVE",
"194 567 OFFCURVE",
"170 543 CURVE SMOOTH",
"145 518 OFFCURVE",
"130 484 OFFCURVE",
"130 447 CURVE SMOOTH",
"130 410 OFFCURVE",
"143 378 OFFCURVE",
"170 352 CURVE"
);
}
);
width = 530;
}
);
unicode = E033;
},
{
glyphname = uniE034;
lastChange = "2012-09-04 10:41:19 -0700";
layers = (
{
layerId = "8581214D-6E4F-46FC-B69F-48918E6333A9";
name = Regular;
paths = (
{
closed = 1;
nodes = (
"504 722 OFFCURVE",
"490 716 OFFCURVE",
"474 716 CURVE SMOOTH",
"442 716 OFFCURVE",
"416 742 OFFCURVE",
"416 774 CURVE SMOOTH",
"416 806 OFFCURVE",
"442 831 OFFCURVE",
"474 831 CURVE SMOOTH",
"506 831 OFFCURVE",
"531 806 OFFCURVE",
"531 774 CURVE SMOOTH",
"531 758 OFFCURVE",
"526 744 OFFCURVE",
"515 733 CURVE SMOOTH"
);
},
{
closed = 1;
nodes = (
"801 -28 LINE SMOOTH",
"810 -51 OFFCURVE",
"798 -78 OFFCURVE",
"775 -86 CURVE",
"772 -88 OFFCURVE",
"766 -89 OFFCURVE",
"759 -89 CURVE SMOOTH",
"738 -89 OFFCURVE",
"725 -79 OFFCURVE",
"718 -60 CURVE SMOOTH",
"704 -25 LINE",
"476 -25 LINE",
"244 -25 LINE",
"230 -60 LINE SMOOTH",
"223 -79 OFFCURVE",
"210 -89 OFFCURVE",
"189 -89 CURVE SMOOTH",
"182 -89 OFFCURVE",
"176 -88 OFFCURVE",
"172 -86 CURVE",
"149 -78 OFFCURVE",
"138 -51 OFFCURVE",
"146 -28 CURVE",
"424 686 LINE",
"466 715 LINE",
"482 715 LINE",
"524 686 LINE"
);
},
{
closed = 1;
nodes = (
"622 184 LINE",
"579 295 LINE",
"508 224 LINE",
"585 148 LINE"
);
},
{
closed = 1;
nodes = (
"474 566 LINE",
"404 385 LINE",
"544 385 LINE"
);
},
{
closed = 1;
nodes = (
"561 340 LINE",
"391 340 LINE",
"476 256 LINE"
);
},
{
closed = 1;
nodes = (
"370 299 LINE",
"326 188 LINE",
"368 148 LINE",
"445 224 LINE"
);
},
{
closed = 1;
nodes = (
"261 20 LINE",
"431 20 LINE",
"309 141 LINE"
);
},
{
closed = 1;
nodes = (
"476 38 LINE",
"554 115 LINE",
"476 192 LINE",
"399 115 LINE"
);
},
{
closed = 1;
nodes = (
"521 20 LINE",
"686 20 LINE",
"640 139 LINE"
);
},
{
closed = 1;
nodes = (
"649 639 LINE",
"676 664 OFFCURVE",
"689 695 OFFCURVE",
"689 734 CURVE SMOOTH",
"689 767 OFFCURVE",
"677 797 OFFCURVE",
"652 822 CURVE",
"688 858 LINE",
"724 817 OFFCURVE",
"742 774 OFFCURVE",
"742 729 CURVE SMOOTH",
"742 682 OFFCURVE",
"723 639 OFFCURVE",
"686 602 CURVE"
);
},
{
closed = 1;
nodes = (
"781 569 LINE",
"826 612 OFFCURVE",
"848 666 OFFCURVE",
"846 730 CURVE",
"848 793 OFFCURVE",
"826 847 OFFCURVE",
"781 892 CURVE",
"819 929 LINE",
"874 875 OFFCURVE",
"902 807 OFFCURVE",
"904 726 CURVE",
"902 648 OFFCURVE",
"874 583 OFFCURVE",
"820 530 CURVE"
);
},
{
closed = 1;
nodes = (
"305 824 LINE",
"278 799 OFFCURVE",
"265 767 OFFCURVE",
"265 730 CURVE SMOOTH",
"265 695 OFFCURVE",
"277 666 OFFCURVE",
"301 641 CURVE",
"266 606 LINE",
"229 643 OFFCURVE",
"211 685 OFFCURVE",
"211 734 CURVE SMOOTH",
"211 781 OFFCURVE",
"230 824 OFFCURVE",
"269 861 CURVE"
);
},
{
closed = 1;
nodes = (
"172 894 LINE",
"128 851 OFFCURVE",
"106 797 OFFCURVE",
"106 732 CURVE SMOOTH",
"106 669 OFFCURVE",
"128 616 OFFCURVE",
"172 571 CURVE",
"135 532 LINE",
"80 587 OFFCURVE",
"51 655 OFFCURVE",
"50 736 CURVE",
"51 815 OFFCURVE",
"79 881 OFFCURVE",
"134 934 CURVE"
);
}
);
width = 953;
}
);
unicode = E034;
},
{
glyphname = uniE03A;
lastChange = "2012-08-09 08:55:34 -0700";
layers = (
{
layerId = "8581214D-6E4F-46FC-B69F-48918E6333A9";
name = Regular;
paths = (
{
closed = 1;
nodes = (
"688 -127 LINE",
"688 766 LINE",
"911 766 LINE",
"911 -127 LINE"
);
},
{
closed = 1;
nodes = (
"353 -127 LINE",
"353 543 LINE",
"576 543 LINE",
"576 -127 LINE"
);
},
{
closed = 1;
nodes = (
"18 -127 LINE",
"18 320 LINE",
"241 320 LINE",
"241 -127 LINE"
);
}
);
width = 928;
}
);
unicode = E03A;
},
{
glyphname = uniE03B;
lastChange = "2012-08-09 08:55:34 -0700";
layers = (
{
layerId = "8581214D-6E4F-46FC-B69F-48918E6333A9";
name = Regular;
paths = (
{
closed = 1;
nodes = (
"464 320 LINE",
"144 640 LINE",
"239 717 OFFCURVE",
"345 759 OFFCURVE",
"464 766 CURVE"
);
},
{
closed = 1;
nodes = (
"574 651 LINE",
"670 636 OFFCURVE",
"754 589 OFFCURVE",
"815 521 CURVE SMOOTH",
"875 453 OFFCURVE",
"911 363 OFFCURVE",
"911 266 CURVE SMOOTH",
"911 157 OFFCURVE",
"867 59 OFFCURVE",
"796 -12 CURVE SMOOTH",
"724 -84 OFFCURVE",
"625 -127 OFFCURVE",
"516 -127 CURVE SMOOTH",
"434 -127 OFFCURVE",
"358 -101 OFFCURVE",
"287 -48 CURVE",
"574 242 LINE"
);
},
{
closed = 1;
nodes = (
"402 225 LINE",
"122 -54 LINE",
"53 27 OFFCURVE",
"18 121 OFFCURVE",
"18 226 CURVE SMOOTH",
"18 331 OFFCURVE",
"53 423 OFFCURVE",
"122 504 CURVE"
);
}
);
width = 928;
}
);
unicode = E03B;
},
{
glyphname = uniE040;
lastChange = "2012-08-09 08:55:34 -0700";
layers = (
{
layerId = "8581214D-6E4F-46FC-B69F-48918E6333A9";
name = Regular;
paths = (
{
closed = 1;
nodes = (
"775 286 LINE",
"584 286 LINE",
"584 -65 LINE",
"206 -65 LINE",
"206 286 LINE",
"15 286 LINE",
"395 665 LINE"
);
}
);
width = 790;
}
);
unicode = E040;
},
{
glyphname = uniE041;
lastChange = "2012-08-09 08:55:34 -0700";
layers = (
{
layerId = "8581214D-6E4F-46FC-B69F-48918E6333A9";
name = Regular;
paths = (
{
closed = 1;
nodes = (
"775 314 LINE",
"395 -65 LINE",
"15 314 LINE",
"206 314 LINE",
"206 665 LINE",
"584 665 LINE",
"584 314 LINE"
);
}
);
width = 790;
}
);
unicode = E041;
},
{
glyphname = uniE042;
lastChange = "2012-08-09 08:55:34 -0700";
layers = (
{
layerId = "8581214D-6E4F-46FC-B69F-48918E6333A9";
name = Regular;
paths = (
{
closed = 1;
nodes = (
"366 680 LINE",
"745 300 LINE",
"366 -80 LINE",
"366 111 LINE",
"15 111 LINE",
"15 489 LINE",
"366 489 LINE"
);
}
);
width = 760;
}
);
unicode = E042;
},
{
glyphname = uniE043;
lastChange = "2012-08-09 08:55:34 -0700";
layers = (
{
layerId = "8581214D-6E4F-46FC-B69F-48918E6333A9";
name = Regular;
paths = (
{
closed = 1;
nodes = (
"394 -80 LINE",
"15 300 LINE",
"394 680 LINE",
"394 489 LINE",
"745 489 LINE",
"745 111 LINE",
"394 111 LINE"
);
}
);
width = 760;
}
);
unicode = E043;
},
{
glyphname = uniE044;
lastChange = "2012-08-09 08:55:34 -0700";
layers = (
{
layerId = "8581214D-6E4F-46FC-B69F-48918E6333A9";
name = Regular;
paths = (
{
closed = 1;
nodes = (
"200 504 LINE",
"18 687 LINE",
"97 766 LINE",
"280 584 LINE",
"353 654 LINE",
"353 431 LINE",
"130 431 LINE"
);
},
{
closed = 1;
nodes = (
"800 431 LINE",
"576 431 LINE",
"576 656 LINE",
"649 584 LINE",
"832 766 LINE",
"911 687 LINE",
"728 504 LINE"
);
},
{
closed = 1;
nodes = (
"18 -48 LINE",
"202 136 LINE",
"130 208 LINE",
"353 208 LINE",
"353 -15 LINE",
"281 57 LINE",
"97 -127 LINE"
);
},
{
closed = 1;
nodes = (
"648 57 LINE",
"576 -15 LINE",
"576 208 LINE",
"799 208 LINE",
"727 136 LINE",
"911 -48 LINE",
"832 -127 LINE"
);
}
);
width = 928;
}
);
unicode = E044;
},
{
glyphname = uniE045;
lastChange = "2012-08-09 08:55:34 -0700";
layers = (
{
layerId = "8581214D-6E4F-46FC-B69F-48918E6333A9";
name = Regular;
paths = (
{
closed = 1;
nodes = (
"780 37 LINE",
"786 30 OFFCURVE",
"789 22 OFFCURVE",
"789 13 CURVE SMOOTH",
"789 4 OFFCURVE",
"786 -4 OFFCURVE",
"780 -10 CURVE SMOOTH",
"734 -56 LINE SMOOTH",
"727 -63 OFFCURVE",
"720 -66 OFFCURVE",
"711 -66 CURVE SMOOTH",
"702 -66 OFFCURVE",
"694 -63 OFFCURVE",
"687 -56 CURVE SMOOTH",
"511 121 LINE",
"457 84 OFFCURVE",
"396 66 OFFCURVE",
"329 66 CURVE SMOOTH",
"237 66 OFFCURVE",
"157 102 OFFCURVE",
"97 162 CURVE SMOOTH",
"36 223 OFFCURVE",
"0 304 OFFCURVE",
"0 395 CURVE SMOOTH",
"0 487 OFFCURVE",
"37 568 OFFCURVE",
"97 628 CURVE SMOOTH",
"157 688 OFFCURVE",
"237 724 OFFCURVE",
"329 724 CURVE SMOOTH",
"421 724 OFFCURVE",
"502 688 OFFCURVE",
"562 628 CURVE SMOOTH",
"622 568 OFFCURVE",
"658 486 OFFCURVE",
"658 394 CURVE SMOOTH",
"658 326 OFFCURVE",
"638 266 OFFCURVE",
"603 213 CURVE"
);
},
{
closed = 1;
nodes = (
"137 447 OFFCURVE",
"132 421 OFFCURVE",
"132 394 CURVE SMOOTH",
"132 338 OFFCURVE",
"153 291 OFFCURVE",
"189 255 CURVE SMOOTH",
"225 219 OFFCURVE",
"274 197 OFFCURVE",
"330 197 CURVE SMOOTH",
"386 197 OFFCURVE",
"433 219 OFFCURVE",
"469 255 CURVE SMOOTH",
"505 291 OFFCURVE",
"526 338 OFFCURVE",
"526 394 CURVE SMOOTH",
"526 450 OFFCURVE",
"505 498 OFFCURVE",
"469 534 CURVE SMOOTH",
"433 570 OFFCURVE",
"386 592 OFFCURVE",
"330 592 CURVE SMOOTH",
"274 592 OFFCURVE",
"225 570 OFFCURVE",
"189 534 CURVE SMOOTH",
"171 516 OFFCURVE",
"157 495 OFFCURVE",
"147 471 CURVE SMOOTH"
);
},
{
closed = 1;
nodes = (
"198 411 LINE SMOOTH",
"198 420 OFFCURVE",
"205 428 OFFCURVE",
"214 428 CURVE SMOOTH",
"444 428 LINE SMOOTH",
"455 428 OFFCURVE",
"461 422 OFFCURVE",
"461 411 CURVE SMOOTH",
"461 378 LINE SMOOTH",
"461 367 OFFCURVE",
"455 362 OFFCURVE",
"444 362 CURVE SMOOTH",
"214 362 LINE SMOOTH",
"203 362 OFFCURVE",
"198 367 OFFCURVE",
"198 378 CURVE SMOOTH"
);
}
);
width = 789;
}
);
unicode = E045;
},
{
glyphname = uniE046;
lastChange = "2012-08-09 08:55:34 -0700";
layers = (
{
layerId = "8581214D-6E4F-46FC-B69F-48918E6333A9";
name = Regular;
paths = (
{
closed = 1;
nodes = (
"780 37 LINE",
"786 30 OFFCURVE",
"789 22 OFFCURVE",
"789 13 CURVE SMOOTH",
"789 4 OFFCURVE",
"786 -4 OFFCURVE",
"780 -10 CURVE SMOOTH",
"734 -56 LINE SMOOTH",
"727 -63 OFFCURVE",
"720 -66 OFFCURVE",
"711 -66 CURVE SMOOTH",
"702 -66 OFFCURVE",
"694 -63 OFFCURVE",
"687 -56 CURVE SMOOTH",
"511 121 LINE",
"457 84 OFFCURVE",
"396 66 OFFCURVE",
"329 66 CURVE SMOOTH",
"237 66 OFFCURVE",
"157 102 OFFCURVE",
"97 162 CURVE SMOOTH",
"36 223 OFFCURVE",
"0 304 OFFCURVE",
"0 395 CURVE SMOOTH",
"0 487 OFFCURVE",
"37 568 OFFCURVE",
"97 628 CURVE SMOOTH",
"157 688 OFFCURVE",
"237 724 OFFCURVE",
"329 724 CURVE SMOOTH",
"421 724 OFFCURVE",
"502 688 OFFCURVE",
"562 628 CURVE SMOOTH",
"622 568 OFFCURVE",
"658 486 OFFCURVE",
"658 394 CURVE SMOOTH",
"658 326 OFFCURVE",
"638 266 OFFCURVE",
"603 213 CURVE"
);
},
{
closed = 1;
nodes = (
"137 447 OFFCURVE",
"132 421 OFFCURVE",
"132 394 CURVE SMOOTH",
"132 338 OFFCURVE",
"153 291 OFFCURVE",
"189 255 CURVE SMOOTH",
"225 219 OFFCURVE",
"274 197 OFFCURVE",
"330 197 CURVE SMOOTH",
"386 197 OFFCURVE",
"433 219 OFFCURVE",
"469 255 CURVE SMOOTH",
"505 291 OFFCURVE",
"526 338 OFFCURVE",
"526 394 CURVE SMOOTH",
"526 450 OFFCURVE",
"505 498 OFFCURVE",
"469 534 CURVE SMOOTH",
"433 570 OFFCURVE",
"386 592 OFFCURVE",
"330 592 CURVE SMOOTH",
"274 592 OFFCURVE",
"225 570 OFFCURVE",
"189 534 CURVE SMOOTH",
"171 516 OFFCURVE",
"157 495 OFFCURVE",
"147 471 CURVE SMOOTH"
);
},
{
closed = 1;
nodes = (
"198 411 LINE SMOOTH",
"198 420 OFFCURVE",
"205 428 OFFCURVE",
"214 428 CURVE SMOOTH",
"296 428 LINE",
"296 510 LINE SMOOTH",
"296 518 OFFCURVE",
"302 526 OFFCURVE",
"313 526 CURVE SMOOTH",
"345 526 LINE SMOOTH",
"356 526 OFFCURVE",
"362 518 OFFCURVE",
"362 510 CURVE SMOOTH",
"362 428 LINE",
"444 428 LINE SMOOTH",
"455 428 OFFCURVE",
"461 422 OFFCURVE",
"461 411 CURVE SMOOTH",
"461 378 LINE SMOOTH",
"461 367 OFFCURVE",
"455 362 OFFCURVE",
"444 362 CURVE SMOOTH",
"362 362 LINE",
"362 279 LINE SMOOTH",
"362 268 OFFCURVE",
"356 263 OFFCURVE",
"345 263 CURVE SMOOTH",
"313 263 LINE SMOOTH",
"302 263 OFFCURVE",
"296 268 OFFCURVE",
"296 279 CURVE SMOOTH",
"296 362 LINE",
"214 362 LINE SMOOTH",
"203 362 OFFCURVE",
"198 367 OFFCURVE",
"198 378 CURVE SMOOTH"
);
}
);
width = 789;
}
);
unicode = E046;
},
{
glyphname = uniE047;
lastChange = "2012-08-09 08:55:34 -0700";
layers = (
{
layerId = "8581214D-6E4F-46FC-B69F-48918E6333A9";
name = Regular;
paths = (
{
closed = 1;
nodes = (
"353 766 LINE",
"224 639 LINE",
"352 512 LINE",
"272 432 LINE",
"146 560 LINE",
"18 431 LINE",
"18 766 LINE"
);
},
{
closed = 1;
nodes = (
"911 766 LINE",
"911 431 LINE",
"784 560 LINE",
"656 432 LINE",
"577 512 LINE",
"704 639 LINE",
"576 766 LINE"
);
},
{
closed = 1;
nodes = (
"353 129 LINE",
"224 2 LINE",
"353 -127 LINE",
"18 -127 LINE",
"18 208 LINE",
"146 80 LINE",
"274 208 LINE"
);
},
{
closed = 1;
nodes = (
"784 80 LINE",
"911 208 LINE",
"911 -127 LINE",
"576 -127 LINE",
"704 2 LINE",
"576 129 LINE",
"655 208 LINE"
);
}
);
width = 928;
}
);
unicode = E047;
},
{
glyphname = uniE04A;
lastChange = "2012-08-09 08:55:34 -0700";
layers = (
{
layerId = "8581214D-6E4F-46FC-B69F-48918E6333A9";
name = Regular;
paths = (
{
closed = 1;
nodes = (
"305 335 LINE",
"110 147 LINE",
"82 122 OFFCURVE",
"56 122 OFFCURVE",
"31 147 CURVE",
"10 170 OFFCURVE",
"11 207 OFFCURVE",
"31 228 CURVE",
"266 453 LINE SMOOTH",
"277 464 OFFCURVE",
"290 470 OFFCURVE",
"305 470 CURVE SMOOTH",
"320 470 OFFCURVE",
"333 464 OFFCURVE",
"344 453 CURVE SMOOTH",
"416 384 OFFCURVE",
"472 332 OFFCURVE",
"511 295 CURVE SMOOTH",
"550 258 OFFCURVE",
"572 235 OFFCURVE",
"579 228 CURVE SMOOTH",
"599 207 OFFCURVE",
"600 170 OFFCURVE",
"579 147 CURVE",
"554 122 OFFCURVE",
"528 122 OFFCURVE",
"500 147 CURVE"
);
}
);
width = 610;
}
);
unicode = E04A;
},
{
glyphname = uniE04B;
lastChange = "2012-08-09 08:55:34 -0700";
layers = (
{
layerId = "8581214D-6E4F-46FC-B69F-48918E6333A9";
name = Regular;
paths = (
{
closed = 1;
nodes = (
"344 147 LINE SMOOTH",
"333 136 OFFCURVE",
"320 130 OFFCURVE",
"305 130 CURVE SMOOTH",
"290 130 OFFCURVE",
"277 136 OFFCURVE",
"266 147 CURVE SMOOTH",
"194 216 OFFCURVE",
"139 269 OFFCURVE",
"100 306 CURVE SMOOTH",
"61 343 OFFCURVE",
"38 365 OFFCURVE",
"31 372 CURVE SMOOTH",
"11 393 OFFCURVE",
"10 430 OFFCURVE",
"31 453 CURVE",
"56 478 OFFCURVE",
"82 478 OFFCURVE",
"110 453 CURVE",
"305 265 LINE",
"500 453 LINE",
"528 478 OFFCURVE",
"554 478 OFFCURVE",
"579 453 CURVE",
"600 430 OFFCURVE",
"599 393 OFFCURVE",
"579 372 CURVE"
);
}
);
width = 610;
}
);
unicode = E04B;
},
{
glyphname = uniE04C;
lastChange = "2012-08-09 08:55:34 -0700";
layers = (
{
layerId = "8581214D-6E4F-46FC-B69F-48918E6333A9";
name = Regular;
paths = (
{
closed = 1;
nodes = (
"338 339 LINE SMOOTH",
"349 328 OFFCURVE",
"355 315 OFFCURVE",
"355 300 CURVE SMOOTH",
"355 285 OFFCURVE",
"349 272 OFFCURVE",
"338 261 CURVE SMOOTH",
"269 189 OFFCURVE",
"217 134 OFFCURVE",
"180 95 CURVE SMOOTH",
"143 56 OFFCURVE",
"120 33 OFFCURVE",
"113 26 CURVE SMOOTH",
"92 6 OFFCURVE",
"55 5 OFFCURVE",
"32 26 CURVE",
"7 51 OFFCURVE",
"7 77 OFFCURVE",
"32 105 CURVE",
"220 300 LINE",
"32 495 LINE",
"7 523 OFFCURVE",
"7 549 OFFCURVE",
"32 574 CURVE",
"55 595 OFFCURVE",
"92 594 OFFCURVE",
"113 574 CURVE"
);
}
);
width = 370;
}
);
unicode = E04C;
},
{
glyphname = uniE04D;
lastChange = "2012-08-09 08:55:34 -0700";
layers = (
{
layerId = "8581214D-6E4F-46FC-B69F-48918E6333A9";
name = Regular;
paths = (
{
closed = 1;
nodes = (
"150 300 LINE",
"338 105 LINE",
"363 77 OFFCURVE",
"363 51 OFFCURVE",
"338 26 CURVE",
"315 5 OFFCURVE",
"278 6 OFFCURVE",
"257 26 CURVE",
"32 261 LINE SMOOTH",
"21 272 OFFCURVE",
"15 285 OFFCURVE",
"15 300 CURVE SMOOTH",
"15 315 OFFCURVE",
"21 328 OFFCURVE",
"32 339 CURVE SMOOTH",
"101 411 OFFCURVE",
"154 467 OFFCURVE",
"191 506 CURVE SMOOTH",
"228 545 OFFCURVE",
"250 567 OFFCURVE",
"257 574 CURVE SMOOTH",
"278 594 OFFCURVE",
"315 595 OFFCURVE",
"338 574 CURVE",
"363 549 OFFCURVE",
"363 523 OFFCURVE",
"338 495 CURVE"
);
}
);
width = 370;
}
);
unicode = E04D;
},
{
glyphname = uniE051;
lastChange = "2012-08-09 08:55:34 -0700";
layers = (
{
layerId = "8581214D-6E4F-46FC-B69F-48918E6333A9";
name = Regular;
paths = (
{
closed = 1;
nodes = (
"515 725 LINE",
"785 471 LINE",
"635 471 LINE",
"635 225 LINE",
"395 225 LINE",
"395 471 LINE",
"245 471 LINE"
);
},
{
closed = 1;
nodes = (
"982 148 LINE",
"1006 135 OFFCURVE",
"1020 102 OFFCURVE",
"1013 75 CURVE",
"985 -78 LINE SMOOTH",
"980 -103 OFFCURVE",
"951 -125 OFFCURVE",
"923 -125 CURVE SMOOTH",
"107 -125 LINE SMOOTH",
"79 -125 OFFCURVE",
"50 -103 OFFCURVE",
"45 -78 CURVE SMOOTH",
"17 75 LINE",
"10 102 OFFCURVE",
"24 135 OFFCURVE",
"48 148 CURVE",
"207 255 LINE",
"305 255 LINE",
"135 125 LINE",
"313 125 LINE SMOOTH",
"319 125 OFFCURVE",
"323 123 OFFCURVE",
"325 118 CURVE",
"365 6 LINE",
"665 6 LINE",
"705 118 LINE",
"707 123 OFFCURVE",
"711 125 OFFCURVE",
"717 125 CURVE SMOOTH",
"895 125 LINE",
"725 255 LINE",
"823 255 LINE"
);
}
);
width = 1030;
}
);
unicode = E051;
},
{
glyphname = uniE052;
lastChange = "2012-08-09 08:55:34 -0700";
layers = (
{
layerId = "8581214D-6E4F-46FC-B69F-48918E6333A9";
name = Regular;
paths = (
{
closed = 1;
nodes = (
"785 479 LINE",
"515 225 LINE",
"245 479 LINE",
"395 479 LINE",
"395 725 LINE",
"635 725 LINE",
"635 479 LINE"
);
},
{
closed = 1;
nodes = (
"982 148 LINE",
"1006 135 OFFCURVE",
"1020 102 OFFCURVE",
"1013 75 CURVE",
"985 -78 LINE SMOOTH",
"980 -103 OFFCURVE",
"951 -125 OFFCURVE",
"923 -125 CURVE SMOOTH",
"107 -125 LINE SMOOTH",
"79 -125 OFFCURVE",
"50 -103 OFFCURVE",
"45 -78 CURVE SMOOTH",
"17 75 LINE",
"10 102 OFFCURVE",
"24 135 OFFCURVE",
"48 148 CURVE",
"207 255 LINE",
"305 255 LINE",
"135 124 LINE",
"313 124 LINE SMOOTH",
"319 124 OFFCURVE",
"323 122 OFFCURVE",
"325 118 CURVE",
"365 6 LINE",
"665 6 LINE",
"705 118 LINE",
"707 122 OFFCURVE",
"711 124 OFFCURVE",
"717 124 CURVE SMOOTH",
"895 124 LINE",
"725 255 LINE",
"823 255 LINE"
);
}
);
width = 1030;
}
);
unicode = E052;
},
{
glyphname = uniE053;
lastChange = "2012-08-09 08:55:34 -0700";
layers = (
{
layerId = "8581214D-6E4F-46FC-B69F-48918E6333A9";
name = Regular;
paths = (
{
closed = 1;
nodes = (
"196 -25 LINE SMOOTH",
"145 -25 OFFCURVE",
"101 -5 OFFCURVE",
"68 27 CURVE SMOOTH",
"35 59 OFFCURVE",
"15 104 OFFCURVE",
"15 152 CURVE SMOOTH",
"15 200 OFFCURVE",
"35 245 OFFCURVE",
"68 277 CURVE SMOOTH",
"101 309 OFFCURVE",
"145 329 OFFCURVE",
"196 329 CURVE SMOOTH",
"201 329 OFFCURVE",
"208 328 OFFCURVE",
"217 327 CURVE",
"215 339 OFFCURVE",
"214 352 OFFCURVE",
"214 365 CURVE SMOOTH",
"214 437 OFFCURVE",
"244 502 OFFCURVE",
"292 549 CURVE SMOOTH",
"340 596 OFFCURVE",
"407 625 OFFCURVE",
"480 625 CURVE SMOOTH",
"540 625 OFFCURVE",
"595 606 OFFCURVE",
"640 573 CURVE SMOOTH",
"684 540 OFFCURVE",
"719 493 OFFCURVE",
"735 440 CURVE",
"748 442 OFFCURVE",
"761 443 OFFCURVE",
"776 443 CURVE SMOOTH",
"841 443 OFFCURVE",
"902 417 OFFCURVE",
"945 375 CURVE SMOOTH",
"988 333 OFFCURVE",
"1015 273 OFFCURVE",
"1015 209 CURVE SMOOTH",
"1015 145 OFFCURVE",
"988 86 OFFCURVE",
"945 44 CURVE SMOOTH",
"902 2 OFFCURVE",
"841 -25 OFFCURVE",
"776 -25 CURVE SMOOTH"
);
}
);
width = 1030;
}
);
unicode = E053;
},
{
glyphname = uniE05A;
lastChange = "2012-08-09 08:55:34 -0700";
layers = (
{
layerId = "8581214D-6E4F-46FC-B69F-48918E6333A9";
name = Regular;
paths = (
{
closed = 1;
nodes = (
"220 679 OFFCURVE",
"319 720 OFFCURVE",
"435 720 CURVE SMOOTH",
"551 720 OFFCURVE",
"656 673 OFFCURVE",
"732 597 CURVE SMOOTH",
"808 521 OFFCURVE",
"855 416 OFFCURVE",
"855 300 CURVE SMOOTH",
"855 184 OFFCURVE",
"808 79 OFFCURVE",
"732 3 CURVE SMOOTH",
"656 -73 OFFCURVE",
"551 -120 OFFCURVE",
"435 -120 CURVE SMOOTH",
"319 -120 OFFCURVE",
"214 -73 OFFCURVE",
"138 3 CURVE SMOOTH",
"62 79 OFFCURVE",
"15 184 OFFCURVE",
"15 300 CURVE SMOOTH",
"15 416 OFFCURVE",
"56 515 OFFCURVE",
"138 597 CURVE SMOOTH"
);
},
{
closed = 1;
nodes = (
"486 249 LINE",
"688 249 LINE",
"688 351 LINE",
"486 351 LINE",
"486 552 LINE",
"384 552 LINE",
"384 351 LINE",
"182 351 LINE",
"182 249 LINE",
"384 249 LINE",
"384 47 LINE",
"486 47 LINE"
);
}
);
width = 870;
}
);
unicode = E05A;
},
{
glyphname = uniE05B;
lastChange = "2012-08-09 08:55:34 -0700";
layers = (
{
layerId = "8581214D-6E4F-46FC-B69F-48918E6333A9";
name = Regular;
paths = (
{
closed = 1;
nodes = (
"220 679 OFFCURVE",
"319 720 OFFCURVE",
"435 720 CURVE SMOOTH",
"551 720 OFFCURVE",
"656 673 OFFCURVE",
"732 597 CURVE SMOOTH",
"808 521 OFFCURVE",
"855 416 OFFCURVE",
"855 300 CURVE SMOOTH",
"855 184 OFFCURVE",
"808 79 OFFCURVE",
"732 3 CURVE SMOOTH",
"656 -73 OFFCURVE",
"551 -120 OFFCURVE",
"435 -120 CURVE SMOOTH",
"319 -120 OFFCURVE",
"214 -73 OFFCURVE",
"138 3 CURVE SMOOTH",
"62 79 OFFCURVE",
"15 184 OFFCURVE",
"15 300 CURVE SMOOTH",
"15 416 OFFCURVE",
"56 515 OFFCURVE",
"138 597 CURVE SMOOTH"
);
},
{
closed = 1;
nodes = (
"687 351 LINE",
"182 351 LINE",
"182 249 LINE",
"687 249 LINE"
);
}
);
width = 870;
}
);
unicode = E05B;
},
{
glyphname = uniE05C;
lastChange = "2012-08-09 08:55:34 -0700";
layers = (
{
layerId = "8581214D-6E4F-46FC-B69F-48918E6333A9";
name = Regular;
paths = (
{
closed = 1;
nodes = (
"220 679 OFFCURVE",
"319 720 OFFCURVE",
"435 720 CURVE SMOOTH",
"551 720 OFFCURVE",
"656 673 OFFCURVE",
"732 597 CURVE SMOOTH",
"808 521 OFFCURVE",
"855 416 OFFCURVE",
"855 300 CURVE SMOOTH",
"855 184 OFFCURVE",
"808 79 OFFCURVE",
"732 3 CURVE SMOOTH",
"656 -73 OFFCURVE",
"551 -120 OFFCURVE",
"435 -120 CURVE SMOOTH",
"319 -120 OFFCURVE",
"214 -73 OFFCURVE",
"138 3 CURVE SMOOTH",
"62 79 OFFCURVE",
"15 184 OFFCURVE",
"15 300 CURVE SMOOTH",
"15 416 OFFCURVE",
"56 515 OFFCURVE",
"138 597 CURVE SMOOTH"
);
},
{
closed = 1;
nodes = (
"521 300 LINE",
"674 453 LINE",
"588 539 LINE",
"435 386 LINE",
"282 539 LINE",
"196 453 LINE",
"349 300 LINE",
"196 147 LINE",
"282 60 LINE",
"435 214 LINE",
"588 61 LINE",
"674 147 LINE"
);
}
);
width = 870;
}
);
unicode = E05C;
},
{
glyphname = uniE05D;
lastChange = "2012-08-09 08:55:34 -0700";
layers = (
{
layerId = "8581214D-6E4F-46FC-B69F-48918E6333A9";
name = Regular;
paths = (
{
closed = 1;
nodes = (
"404 773 OFFCURVE",
"534 773 OFFCURVE",
"649 726 CURVE SMOOTH",
"764 677 OFFCURVE",
"847 597 OFFCURVE",
"897 485 CURVE SMOOTH",
"948 372 OFFCURVE",
"948 242 OFFCURVE",
"901 127 CURVE SMOOTH",
"852 12 OFFCURVE",
"772 -71 OFFCURVE",
"660 -121 CURVE SMOOTH",
"547 -172 OFFCURVE",
"417 -173 OFFCURVE",
"302 -125 CURVE SMOOTH",
"187 -78 OFFCURVE",
"104 3 OFFCURVE",
"54 116 CURVE SMOOTH",
"3 229 OFFCURVE",
"2 359 OFFCURVE",
"50 474 CURVE SMOOTH",
"97 589 OFFCURVE",
"178 672 OFFCURVE",
"291 722 CURVE SMOOTH"
);
},
{
closed = 1;
nodes = (
"516 210 LINE",
"516 238 OFFCURVE",
"520 254 OFFCURVE",
"549 278 CURVE",
"577 297 LINE",
"587 305 OFFCURVE",
"596 312 OFFCURVE",
"603 317 CURVE",
"617 328 OFFCURVE",
"626 338 OFFCURVE",
"635 350 CURVE",
"639 356 OFFCURVE",
"643 363 OFFCURVE",
"647 371 CURVE SMOOTH",
"655 387 OFFCURVE",
"659 405 OFFCURVE",
"659 426 CURVE SMOOTH",
"659 475 OFFCURVE",
"640 515 OFFCURVE",
"606 541 CURVE SMOOTH",
"572 567 OFFCURVE",
"525 580 OFFCURVE",
"470 580 CURVE SMOOTH",
"357 580 OFFCURVE",
"299 516 OFFCURVE",
"294 403 CURVE",
"405 403 LINE",
"405 408 LINE SMOOTH",
"405 427 OFFCURVE",
"409 446 OFFCURVE",
"421 461 CURVE",
"432 476 OFFCURVE",
"448 486 OFFCURVE",
"475 486 CURVE SMOOTH",
"520 486 OFFCURVE",
"542 464 OFFCURVE",
"542 420 CURVE SMOOTH",
"542 401 OFFCURVE",
"524 374 OFFCURVE",
"507 361 CURVE",
"504 360 OFFCURVE",
"499 356 OFFCURVE",
"491 351 CURVE",
"487 348 OFFCURVE",
"482 344 OFFCURVE",
"476 340 CURVE",
"464 331 OFFCURVE",
"452 321 OFFCURVE",
"441 311 CURVE",
"436 306 OFFCURVE",
"431 301 OFFCURVE",
"427 297 CURVE",
"416 284 OFFCURVE",
"410 255 OFFCURVE",
"409 210 CURVE"
);
},
{
closed = 1;
nodes = (
"536 125 OFFCURVE",
"508 153 OFFCURVE",
"467 154 CURVE SMOOTH",
"428 154 OFFCURVE",
"400 125 OFFCURVE",
"399 88 CURVE SMOOTH",
"398 48 OFFCURVE",
"426 21 OFFCURVE",
"467 20 CURVE SMOOTH",
"506 20 OFFCURVE",
"534 47 OFFCURVE",
"535 84 CURVE SMOOTH"
);
}
);
width = 950;
}
);
unicode = E05D;
},
{
glyphname = uniE05E;
lastChange = "2012-08-09 08:55:34 -0700";
layers = (
{
layerId = "8581214D-6E4F-46FC-B69F-48918E6333A9";
name = Regular;
paths = (
{
closed = 1;
nodes = (
"404 773 OFFCURVE",
"534 773 OFFCURVE",
"649 726 CURVE SMOOTH",
"764 677 OFFCURVE",
"847 597 OFFCURVE",
"897 485 CURVE SMOOTH",
"948 372 OFFCURVE",
"948 242 OFFCURVE",
"901 127 CURVE SMOOTH",
"852 12 OFFCURVE",
"772 -71 OFFCURVE",
"660 -121 CURVE SMOOTH",
"547 -172 OFFCURVE",
"417 -173 OFFCURVE",
"302 -125 CURVE SMOOTH",
"187 -78 OFFCURVE",
"104 3 OFFCURVE",
"54 116 CURVE SMOOTH",
"3 229 OFFCURVE",
"2 359 OFFCURVE",
"50 474 CURVE SMOOTH",
"97 589 OFFCURVE",
"178 672 OFFCURVE",
"291 722 CURVE SMOOTH"
);
},
{
closed = 1;
nodes = (
"463 607 OFFCURVE",
"432 569 OFFCURVE",
"432 533 CURVE SMOOTH",
"431 496 OFFCURVE",
"453 474 OFFCURVE",
"496 474 CURVE SMOOTH",
"547 474 OFFCURVE",
"580 507 OFFCURVE",
"580 548 CURVE SMOOTH",
"580 587 OFFCURVE",
"560 607 OFFCURVE",
"520 607 CURVE SMOOTH"
);
},
{
closed = 1;
nodes = (
"572 141 LINE",
"541 117 OFFCURVE",
"517 105 OFFCURVE",
"500 105 CURVE SMOOTH",
"492 105 OFFCURVE",
"491 118 OFFCURVE",
"497 143 CURVE SMOOTH",
"539 302 LINE SMOOTH",
"556 366 OFFCURVE",
"549 398 OFFCURVE",
"518 398 CURVE SMOOTH",
"498 398 OFFCURVE",
"464 388 OFFCURVE",
"427 370 CURVE SMOOTH",
"390 352 OFFCURVE",
"348 326 OFFCURVE",
"312 295 CURVE",
"328 269 LINE",
"340 277 OFFCURVE",
"355 284 OFFCURVE",
"371 291 CURVE SMOOTH",
"386 298 OFFCURVE",
"399 302 OFFCURVE",
"404 302 CURVE SMOOTH",
"409 302 OFFCURVE",
"409 291 OFFCURVE",
"404 268 CURVE SMOOTH",
"367 117 LINE SMOOTH",
"349 47 OFFCURVE",
"360 12 OFFCURVE",
"400 12 CURVE SMOOTH",
"420 12 OFFCURVE",
"451 22 OFFCURVE",
"485 39 CURVE SMOOTH",
"519 56 OFFCURVE",
"555 82 OFFCURVE",
"590 117 CURVE"
);
}
);
width = 950;
}
);
unicode = E05E;
},
{
glyphname = uniE05F;
lastChange = "2012-08-09 08:55:34 -0700";
layers = (
{
layerId = "8581214D-6E4F-46FC-B69F-48918E6333A9";
name = Regular;
paths = (
{
closed = 1;
nodes = (
"900 -21 LINE SMOOTH",
"900 -64 OFFCURVE",
"864 -100 OFFCURVE",
"821 -100 CURVE SMOOTH",
"79 -100 LINE SMOOTH",
"36 -100 OFFCURVE",
"0 -64 OFFCURVE",
"0 -21 CURVE SMOOTH",
"0 721 LINE SMOOTH",
"0 764 OFFCURVE",
"36 800 OFFCURVE",
"79 800 CURVE SMOOTH",
"821 800 LINE SMOOTH",
"864 800 OFFCURVE",
"900 764 OFFCURVE",
"900 721 CURVE SMOOTH"
);
},
{
closed = 1;
nodes = (
"768 32 LINE",
"768 117 OFFCURVE",
"750 202 OFFCURVE",
"718 279 CURVE SMOOTH",
"685 356 OFFCURVE",
"638 426 OFFCURVE",
"582 482 CURVE SMOOTH",
"526 538 OFFCURVE",
"456 585 OFFCURVE",
"379 618 CURVE SMOOTH",
"302 650 OFFCURVE",
"217 668 OFFCURVE",
"132 668 CURVE",
"132 546 LINE",
"224 546 OFFCURVE",
"313 521 OFFCURVE",
"390 477 CURVE SMOOTH",
"466 433 OFFCURVE",
"530 369 OFFCURVE",
"577 290 CURVE SMOOTH",
"622 211 OFFCURVE",
"645 125 OFFCURVE",
"645 32 CURVE"
);
},
{
closed = 1;
nodes = (
"552 32 LINE",
"552 108 OFFCURVE",
"532 181 OFFCURVE",
"496 243 CURVE SMOOTH",
"459 305 OFFCURVE",
"407 357 OFFCURVE",
"343 396 CURVE SMOOTH",
"278 433 OFFCURVE",
"207 452 OFFCURVE",
"132 452 CURVE",
"132 330 LINE",
"213 330 OFFCURVE",
"289 298 OFFCURVE",
"342 244 CURVE SMOOTH",
"395 190 OFFCURVE",
"429 116 OFFCURVE",
"429 32 CURVE"
);
},
{
closed = 1;
nodes = (
"292 156 OFFCURVE",
"256 192 OFFCURVE",
"212 192 CURVE SMOOTH",
"168 192 OFFCURVE",
"132 156 OFFCURVE",
"132 112 CURVE SMOOTH",
"132 68 OFFCURVE",
"168 32 OFFCURVE",
"212 32 CURVE SMOOTH",
"256 32 OFFCURVE",
"292 68 OFFCURVE",
"292 112 CURVE SMOOTH"
);
}
);
width = 900;
}
);
unicode = E05F;
},
{
glyphname = uniE060;
lastChange = "2012-08-09 08:55:34 -0700";
layers = (
{
layerId = "8581214D-6E4F-46FC-B69F-48918E6333A9";
name = Regular;
paths = (
{
closed = 1;
nodes = (
"495 790 LINE SMOOTH",
"551 790 OFFCURVE",
"595 746 OFFCURVE",
"595 690 CURVE SMOOTH",
"595 -90 LINE SMOOTH",
"595 -146 OFFCURVE",
"551 -190 OFFCURVE",
"495 -190 CURVE SMOOTH",
"115 -190 LINE SMOOTH",
"59 -190 OFFCURVE",
"15 -146 OFFCURVE",
"15 -90 CURVE SMOOTH",
"15 690 LINE SMOOTH",
"15 746 OFFCURVE",
"59 790 OFFCURVE",
"115 790 CURVE SMOOTH"
);
},
{
closed = 1;
nodes = (
"515 0 LINE",
"515 660 LINE",
"95 660 LINE",
"95 0 LINE"
);
},
{
closed = 1;
nodes = (
"269 -145 OFFCURVE",
"285 -150 OFFCURVE",
"305 -150 CURVE SMOOTH",
"344 -150 OFFCURVE",
"375 -128 OFFCURVE",
"375 -100 CURVE SMOOTH",
"375 -72 OFFCURVE",
"344 -50 OFFCURVE",
"305 -50 CURVE SMOOTH",
"266 -50 OFFCURVE",
"235 -72 OFFCURVE",
"235 -100 CURVE SMOOTH",
"235 -115 OFFCURVE",
"242 -126 OFFCURVE",
"256 -135 CURVE"
);
}
);
width = 610;
}
);
unicode = E060;
},
{
glyphname = uniE061;
lastChange = "2012-08-09 08:55:34 -0700";
layers = (
{
layerId = "8581214D-6E4F-46FC-B69F-48918E6333A9";
name = Regular;
paths = (
{
closed = 1;
nodes = (
"915 740 LINE SMOOTH",
"971 740 OFFCURVE",
"1015 696 OFFCURVE",
"1015 640 CURVE SMOOTH",
"1015 90 LINE SMOOTH",
"1015 62 OFFCURVE",
"1004 36 OFFCURVE",
"986 14 CURVE SMOOTH",
"968 -8 OFFCURVE",
"944 -25 OFFCURVE",
"917 -30 CURVE SMOOTH",
"698 -73 LINE",
"703 -75 OFFCURVE",
"708 -77 OFFCURVE",
"715 -80 CURVE SMOOTH",
"726 -85 OFFCURVE",
"743 -92 OFFCURVE",
"766 -101 CURVE",
"820 -127 OFFCURVE",
"820 -140 OFFCURVE",
"765 -140 CURVE SMOOTH",
"265 -140 LINE SMOOTH",
"236 -140 OFFCURVE",
"219 -138 OFFCURVE",
"215 -134 CURVE SMOOTH",
"211 -130 OFFCURVE",
"214 -125 OFFCURVE",
"225 -118 CURVE",
"236 -112 OFFCURVE",
"251 -105 OFFCURVE",
"272 -97 CURVE SMOOTH",
"292 -89 OFFCURVE",
"312 -81 OFFCURVE",
"332 -73 CURVE",
"113 -30 LINE SMOOTH",
"86 -25 OFFCURVE",
"63 -8 OFFCURVE",
"45 14 CURVE SMOOTH",
"27 36 OFFCURVE",
"15 62 OFFCURVE",
"15 90 CURVE SMOOTH",
"15 640 LINE SMOOTH",
"15 696 OFFCURVE",
"59 740 OFFCURVE",
"115 740 CURVE SMOOTH"
);
},
{
closed = 1;
nodes = (
"915 95 LINE",
"915 650 LINE",
"115 650 LINE",
"115 95 LINE"
);
}
);
width = 1030;
}
);
unicode = E061;
},
{
glyphname = uniE06A;
lastChange = "2012-08-09 08:55:34 -0700";
layers = (
{
layerId = "8581214D-6E4F-46FC-B69F-48918E6333A9";
name = Regular;
paths = (
{
closed = 1;
nodes = (
"148 300 LINE",
"396 76 LINE",
"405 67 OFFCURVE",
"410 56 OFFCURVE",
"410 45 CURVE SMOOTH",
"410 20 OFFCURVE",
"388 0 OFFCURVE",
"365 0 CURVE SMOOTH",
"353 0 OFFCURVE",
"343 4 OFFCURVE",
"334 13 CURVE",
"15 300 LINE",
"334 587 LINE",
"343 596 OFFCURVE",
"353 600 OFFCURVE",
"365 600 CURVE SMOOTH",
"388 600 OFFCURVE",
"410 580 OFFCURVE",
"410 556 CURVE SMOOTH",
"410 544 OFFCURVE",
"405 533 OFFCURVE",
"396 524 CURVE"
);
},
{
closed = 1;
nodes = (
"1015 300 LINE",
"696 13 LINE",
"687 4 OFFCURVE",
"677 0 OFFCURVE",
"665 0 CURVE SMOOTH",
"642 0 OFFCURVE",
"621 20 OFFCURVE",
"621 45 CURVE SMOOTH",
"621 56 OFFCURVE",
"626 67 OFFCURVE",
"635 76 CURVE",
"882 300 LINE",
"635 524 LINE",
"626 533 OFFCURVE",
"621 544 OFFCURVE",
"621 556 CURVE SMOOTH",
"621 580 OFFCURVE",
"642 600 OFFCURVE",
"665 600 CURVE SMOOTH",
"677 600 OFFCURVE",
"687 596 OFFCURVE",
"696 587 CURVE"
);
}
);
width = 1030;
}
);
unicode = E06A;
},
{
glyphname = uniE06B;
lastChange = "2012-08-09 08:55:34 -0700";
layers = (
{
layerId = "8581214D-6E4F-46FC-B69F-48918E6333A9";
name = Regular;
paths = (
{
closed = 1;
nodes = (
"15 40 LINE",
"79 40 OFFCURVE",
"135 72 OFFCURVE",
"173 116 CURVE SMOOTH",
"211 160 OFFCURVE",
"232 215 OFFCURVE",
"231 259 CURVE SMOOTH",
"230 300 OFFCURVE",
"212 323 OFFCURVE",
"176 329 CURVE",
"173 330 OFFCURVE",
"168 330 OFFCURVE",
"161 330 CURVE SMOOTH",
"121 330 OFFCURVE",
"84 347 OFFCURVE",
"58 374 CURVE SMOOTH",
"32 401 OFFCURVE",
"15 439 OFFCURVE",
"15 480 CURVE SMOOTH",
"15 521 OFFCURVE",
"32 559 OFFCURVE",
"58 586 CURVE SMOOTH",
"84 613 OFFCURVE",
"121 630 OFFCURVE",
"161 630 CURVE SMOOTH",
"245 630 OFFCURVE",
"303 587 OFFCURVE",
"333 520 CURVE SMOOTH",
"363 453 OFFCURVE",
"364 361 OFFCURVE",
"336 265 CURVE SMOOTH",
"308 168 OFFCURVE",
"260 93 OFFCURVE",
"203 44 CURVE SMOOTH",
"146 -5 OFFCURVE",
"79 -30 OFFCURVE",
"15 -30 CURVE"
);
},
{
closed = 1;
nodes = (
"435 40 LINE",
"499 40 OFFCURVE",
"555 72 OFFCURVE",
"593 116 CURVE SMOOTH",
"631 160 OFFCURVE",
"652 215 OFFCURVE",
"651 259 CURVE SMOOTH",
"650 300 OFFCURVE",
"632 323 OFFCURVE",
"596 329 CURVE",
"593 330 OFFCURVE",
"588 330 OFFCURVE",
"581 330 CURVE SMOOTH",
"541 330 OFFCURVE",
"504 347 OFFCURVE",
"478 374 CURVE SMOOTH",
"452 401 OFFCURVE",
"435 439 OFFCURVE",
"435 480 CURVE SMOOTH",
"435 521 OFFCURVE",
"452 559 OFFCURVE",
"478 586 CURVE SMOOTH",
"504 613 OFFCURVE",
"541 630 OFFCURVE",
"581 630 CURVE SMOOTH",
"665 630 OFFCURVE",
"723 587 OFFCURVE",
"753 520 CURVE SMOOTH",
"783 453 OFFCURVE",
"784 361 OFFCURVE",
"756 265 CURVE SMOOTH",
"728 168 OFFCURVE",
"680 93 OFFCURVE",
"623 44 CURVE SMOOTH",
"566 -5 OFFCURVE",
"499 -30 OFFCURVE",
"435 -30 CURVE"
);
}
);
width = 790;
}
);
unicode = E06B;
},
{
glyphname = uniE06C;
lastChange = "2012-08-09 08:55:34 -0700";
layers = (
{
layerId = "8581214D-6E4F-46FC-B69F-48918E6333A9";
name = Regular;
paths = (
{
closed = 1;
nodes = (
"945 600 LINE SMOOTH",
"984 600 OFFCURVE",
"1015 567 OFFCURVE",
"1015 530 CURVE SMOOTH",
"1015 70 LINE SMOOTH",
"1015 33 OFFCURVE",
"984 0 OFFCURVE",
"945 0 CURVE SMOOTH",
"85 0 LINE SMOOTH",
"46 0 OFFCURVE",
"15 33 OFFCURVE",
"15 70 CURVE SMOOTH",
"15 530 LINE SMOOTH",
"15 567 OFFCURVE",
"46 600 OFFCURVE",
"85 600 CURVE SMOOTH"
);
},
{
closed = 1;
nodes = (
"115 500 LINE",
"115 400 LINE",
"215 400 LINE",
"215 500 LINE"
);
},
{
closed = 1;
nodes = (
"265 500 LINE",
"265 400 LINE",
"365 400 LINE",
"365 500 LINE"
);
},
{
closed = 1;
nodes = (
"415 500 LINE",
"415 400 LINE",
"515 400 LINE",
"515 500 LINE"
);
},
{
closed = 1;
nodes = (
"565 500 LINE",
"565 400 LINE",
"665 400 LINE",
"665 500 LINE"
);
},
{
closed = 1;
nodes = (
"915 400 LINE",
"915 500 LINE",
"715 500 LINE",
"715 400 LINE"
);
},
{
closed = 1;
nodes = (
"265 350 LINE",
"165 350 LINE",
"165 250 LINE",
"265 250 LINE"
);
},
{
closed = 1;
nodes = (
"415 350 LINE",
"315 350 LINE",
"315 250 LINE",
"415 250 LINE"
);
},
{
closed = 1;
nodes = (
"565 350 LINE",
"465 350 LINE",
"465 250 LINE",
"565 250 LINE"
);
},
{
closed = 1;
nodes = (
"715 350 LINE",
"615 350 LINE",
"615 250 LINE",
"715 250 LINE"
);
},
{
closed = 1;
nodes = (
"765 250 LINE",
"865 250 LINE",
"865 350 LINE",
"765 350 LINE"
);
},
{
closed = 1;
nodes = (
"215 100 LINE",
"215 200 LINE",
"115 200 LINE",
"115 100 LINE"
);
},
{
closed = 1;
nodes = (
"765 100 LINE",
"765 200 LINE",
"265 200 LINE",
"265 100 LINE"
);
},
{
closed = 1;
nodes = (
"915 100 LINE",
"915 200 LINE",
"815 200 LINE",
"815 100 LINE"
);
}
);
width = 1030;
}
);
unicode = E06C;
},
{
glyphname = uniE070;
lastChange = "2012-08-09 08:55:34 -0700";
layers = (
{
layerId = "8581214D-6E4F-46FC-B69F-48918E6333A9";
name = Regular;
paths = (
{
closed = 1;
nodes = (
"68 399 OFFCURVE",
"94 410 OFFCURVE",
"125 410 CURVE SMOOTH",
"156 410 OFFCURVE",
"183 398 OFFCURVE",
"203 378 CURVE SMOOTH",
"223 358 OFFCURVE",
"235 331 OFFCURVE",
"235 300 CURVE SMOOTH",
"235 269 OFFCURVE",
"223 242 OFFCURVE",
"203 222 CURVE SMOOTH",
"183 202 OFFCURVE",
"156 190 OFFCURVE",
"125 190 CURVE SMOOTH",
"94 190 OFFCURVE",
"67 202 OFFCURVE",
"47 222 CURVE SMOOTH",
"27 242 OFFCURVE",
"15 269 OFFCURVE",
"15 300 CURVE SMOOTH",
"15 331 OFFCURVE",
"26 357 OFFCURVE",
"47 378 CURVE SMOOTH"
);
}
);
width = 250;
}
);
unicode = E070;
},
{
glyphname = uniE071;
lastChange = "2012-08-09 08:55:34 -0700";
layers = (
{
layerId = "8581214D-6E4F-46FC-B69F-48918E6333A9";
name = Regular;
paths = (
{
closed = 1;
nodes = (
"68 399 OFFCURVE",
"94 410 OFFCURVE",
"125 410 CURVE SMOOTH",
"156 410 OFFCURVE",
"183 398 OFFCURVE",
"203 378 CURVE SMOOTH",
"223 358 OFFCURVE",
"235 331 OFFCURVE",
"235 300 CURVE SMOOTH",
"235 269 OFFCURVE",
"223 242 OFFCURVE",
"203 222 CURVE SMOOTH",
"183 202 OFFCURVE",
"156 190 OFFCURVE",
"125 190 CURVE SMOOTH",
"94 190 OFFCURVE",
"67 202 OFFCURVE",
"47 222 CURVE SMOOTH",
"27 242 OFFCURVE",
"15 269 OFFCURVE",
"15 300 CURVE SMOOTH",
"15 331 OFFCURVE",
"26 357 OFFCURVE",
"47 378 CURVE SMOOTH"
);
},
{
closed = 1;
nodes = (
"418 399 OFFCURVE",
"444 410 OFFCURVE",
"475 410 CURVE SMOOTH",
"506 410 OFFCURVE",
"533 398 OFFCURVE",
"553 378 CURVE SMOOTH",
"573 358 OFFCURVE",
"585 331 OFFCURVE",
"585 300 CURVE SMOOTH",
"585 269 OFFCURVE",
"573 242 OFFCURVE",
"553 222 CURVE SMOOTH",
"533 202 OFFCURVE",
"506 190 OFFCURVE",
"475 190 CURVE SMOOTH",
"444 190 OFFCURVE",
"417 202 OFFCURVE",
"397 222 CURVE SMOOTH",
"377 242 OFFCURVE",
"365 269 OFFCURVE",
"365 300 CURVE SMOOTH",
"365 331 OFFCURVE",
"376 357 OFFCURVE",
"397 378 CURVE SMOOTH"
);
}
);
width = 600;
}
);
unicode = E071;
},
{
glyphname = uniE072;
lastChange = "2012-08-09 08:55:34 -0700";
layers = (
{
layerId = "8581214D-6E4F-46FC-B69F-48918E6333A9";
name = Regular;
paths = (
{
closed = 1;
nodes = (
"68 399 OFFCURVE",
"94 410 OFFCURVE",
"125 410 CURVE SMOOTH",
"156 410 OFFCURVE",
"183 398 OFFCURVE",
"203 378 CURVE SMOOTH",
"223 358 OFFCURVE",
"235 331 OFFCURVE",
"235 300 CURVE SMOOTH",
"235 269 OFFCURVE",
"223 242 OFFCURVE",
"203 222 CURVE SMOOTH",
"183 202 OFFCURVE",
"156 190 OFFCURVE",
"125 190 CURVE SMOOTH",
"94 190 OFFCURVE",
"67 202 OFFCURVE",
"47 222 CURVE SMOOTH",
"27 242 OFFCURVE",
"15 269 OFFCURVE",
"15 300 CURVE SMOOTH",
"15 331 OFFCURVE",
"26 357 OFFCURVE",
"47 378 CURVE SMOOTH"
);
},
{
closed = 1;
nodes = (
"418 399 OFFCURVE",
"444 410 OFFCURVE",
"475 410 CURVE SMOOTH",
"506 410 OFFCURVE",
"533 398 OFFCURVE",
"553 378 CURVE SMOOTH",
"573 358 OFFCURVE",
"585 331 OFFCURVE",
"585 300 CURVE SMOOTH",
"585 269 OFFCURVE",
"573 242 OFFCURVE",
"553 222 CURVE SMOOTH",
"533 202 OFFCURVE",
"506 190 OFFCURVE",
"475 190 CURVE SMOOTH",
"444 190 OFFCURVE",
"417 202 OFFCURVE",
"397 222 CURVE SMOOTH",
"377 242 OFFCURVE",
"365 269 OFFCURVE",
"365 300 CURVE SMOOTH",
"365 331 OFFCURVE",
"376 357 OFFCURVE",
"397 378 CURVE SMOOTH"
);
},
{
closed = 1;
nodes = (
"768 399 OFFCURVE",
"794 410 OFFCURVE",
"825 410 CURVE SMOOTH",
"856 410 OFFCURVE",
"883 398 OFFCURVE",
"903 378 CURVE SMOOTH",
"923 358 OFFCURVE",
"935 331 OFFCURVE",
"935 300 CURVE SMOOTH",
"935 269 OFFCURVE",
"923 242 OFFCURVE",
"903 222 CURVE SMOOTH",
"883 202 OFFCURVE",
"856 190 OFFCURVE",
"825 190 CURVE SMOOTH",
"794 190 OFFCURVE",
"767 202 OFFCURVE",
"747 222 CURVE SMOOTH",
"727 242 OFFCURVE",
"715 269 OFFCURVE",
"715 300 CURVE SMOOTH",
"715 331 OFFCURVE",
"726 357 OFFCURVE",
"747 378 CURVE SMOOTH"
);
}
);
width = 950;
}
);
unicode = E072;
},
{
glyphname = uniE100;
lastChange = "2012-08-09 08:55:34 -0700";
layers = (
{
layerId = "8581214D-6E4F-46FC-B69F-48918E6333A9";
name = Regular;
paths = (
{
closed = 1;
nodes = (
"871 466 LINE",
"771 466 LINE",
"647 617 LINE",
"433 466 LINE",
"253 466 LINE SMOOTH",
"217 466 OFFCURVE",
"186 452 OFFCURVE",
"163 428 CURVE SMOOTH",
"139 404 OFFCURVE",
"125 372 OFFCURVE",
"125 336 CURVE SMOOTH",
"125 177 LINE",
"18 474 LINE SMOOTH",
"10 495 OFFCURVE",
"20 518 OFFCURVE",
"40 525 CURVE SMOOTH",
"720 773 LINE SMOOTH",
"740 780 OFFCURVE",
"761 769 OFFCURVE",
"769 748 CURVE SMOOTH"
);
},
{
closed = 1;
nodes = (
"977 376 LINE SMOOTH",
"998 376 OFFCURVE",
"1015 359 OFFCURVE",
"1015 336 CURVE SMOOTH",
"1015 -135 LINE SMOOTH",
"1015 -158 OFFCURVE",
"998 -175 OFFCURVE",
"977 -175 CURVE SMOOTH",
"253 -175 LINE SMOOTH",
"232 -175 OFFCURVE",
"215 -158 OFFCURVE",
"215 -135 CURVE SMOOTH",
"215 336 LINE SMOOTH",
"215 359 OFFCURVE",
"232 376 OFFCURVE",
"253 376 CURVE SMOOTH"
);
},
{
closed = 1;
nodes = (
"922 -75 LINE",
"922 86 LINE",
"849 247 LINE",
"682 187 LINE",
"553 54 LINE",
"414 226 LINE",
"322 11 LINE",
"322 -75 LINE"
);
}
);
width = 1030;
}
);
unicode = E100;
},
{
glyphname = uniE101;
lastChange = "2012-08-09 08:55:34 -0700";
layers = (
{
layerId = "8581214D-6E4F-46FC-B69F-48918E6333A9";
name = Regular;
paths = (
{
closed = 1;
nodes = (
"995 550 LINE",
"895 550 LINE",
"895 450 LINE",
"995 450 LINE",
"995 350 LINE",
"895 350 LINE",
"895 250 LINE",
"995 250 LINE",
"995 150 LINE",
"895 150 LINE",
"895 50 LINE",
"995 50 LINE",
"995 -10 LINE SMOOTH",
"995 -31 OFFCURVE",
"978 -50 OFFCURVE",
"955 -50 CURVE SMOOTH",
"55 -50 LINE SMOOTH",
"32 -50 OFFCURVE",
"15 -31 OFFCURVE",
"15 -10 CURVE SMOOTH",
"15 50 LINE",
"115 50 LINE",
"115 150 LINE",
"15 150 LINE",
"15 250 LINE",
"115 250 LINE",
"115 350 LINE",
"15 350 LINE",
"15 450 LINE",
"115 450 LINE",
"115 550 LINE",
"15 550 LINE",
"15 610 LINE SMOOTH",
"15 631 OFFCURVE",
"32 650 OFFCURVE",
"55 650 CURVE SMOOTH",
"955 650 LINE SMOOTH",
"978 650 OFFCURVE",
"995 631 OFFCURVE",
"995 610 CURVE SMOOTH"
);
},
{
closed = 1;
nodes = (
"395 150 LINE",
"645 300 LINE",
"395 450 LINE"
);
}
);
width = 1010;
}
);
unicode = E101;
},
{
glyphname = uniE102;
lastChange = "2012-08-09 08:55:34 -0700";
layers = (
{
layerId = "8581214D-6E4F-46FC-B69F-48918E6333A9";
name = Regular;
paths = (
{
closed = 1;
nodes = (
"615 750 LINE SMOOTH",
"671 750 OFFCURVE",
"715 706 OFFCURVE",
"715 650 CURVE SMOOTH",
"715 -50 LINE SMOOTH",
"715 -106 OFFCURVE",
"671 -150 OFFCURVE",
"615 -150 CURVE SMOOTH",
"115 -150 LINE SMOOTH",
"59 -150 OFFCURVE",
"15 -106 OFFCURVE",
"15 -50 CURVE SMOOTH",
"15 650 LINE SMOOTH",
"15 706 OFFCURVE",
"59 750 OFFCURVE",
"115 750 CURVE SMOOTH"
);
},
{
closed = 1;
nodes = (
"615 -50 LINE",
"615 650 LINE",
"115 650 LINE",
"115 -50 LINE"
);
},
{
closed = 1;
nodes = (
"505 541 LINE",
"505 454 LINE",
"225 454 LINE",
"225 541 LINE"
);
},
{
closed = 1;
nodes = (
"226 256 LINE",
"226 346 LINE",
"506 346 LINE",
"506 256 LINE"
);
},
{
closed = 1;
nodes = (
"505 149 LINE",
"505 61 LINE",
"225 61 LINE",
"225 149 LINE"
);
}
);
width = 730;
}
);
unicode = E102;
},
{
glyphname = uniE103;
lastChange = "2012-08-09 08:55:34 -0700";
layers = (
{
layerId = "8581214D-6E4F-46FC-B69F-48918E6333A9";
name = Regular;
paths = (
{
closed = 1;
nodes = (
"0 428 LINE SMOOTH",
"0 439 OFFCURVE",
"9 448 OFFCURVE",
"20 448 CURVE SMOOTH",
"292 448 LINE",
"253 448 OFFCURVE",
"219 463 OFFCURVE",
"194 488 CURVE SMOOTH",
"169 513 OFFCURVE",
"153 547 OFFCURVE",
"153 586 CURVE SMOOTH",
"153 625 OFFCURVE",
"169 659 OFFCURVE",
"194 684 CURVE SMOOTH",
"219 708 OFFCURVE",
"253 724 OFFCURVE",
"292 724 CURVE SMOOTH",
"332 724 OFFCURVE",
"371 707 OFFCURVE",
"395 676 CURVE SMOOTH",
"474 574 LINE",
"553 676 LINE SMOOTH",
"577 707 OFFCURVE",
"615 724 OFFCURVE",
"656 724 CURVE SMOOTH",
"693 724 OFFCURVE",
"729 708 OFFCURVE",
"754 684 CURVE SMOOTH",
"779 659 OFFCURVE",
"795 625 OFFCURVE",
"795 586 CURVE SMOOTH",
"795 547 OFFCURVE",
"779 513 OFFCURVE",
"754 488 CURVE SMOOTH",
"729 463 OFFCURVE",
"693 448 OFFCURVE",
"656 448 CURVE",
"927 448 LINE SMOOTH",
"939 448 OFFCURVE",
"947 439 OFFCURVE",
"947 428 CURVE SMOOTH",
"947 230 LINE SMOOTH",
"947 217 OFFCURVE",
"940 211 OFFCURVE",
"927 211 CURVE SMOOTH",
"868 211 LINE",
"868 -7 LINE SMOOTH",
"868 -39 OFFCURVE",
"842 -66 OFFCURVE",
"809 -66 CURVE SMOOTH",
"138 -66 LINE SMOOTH",
"106 -66 OFFCURVE",
"79 -39 OFFCURVE",
"79 -7 CURVE SMOOTH",
"79 211 LINE",
"20 211 LINE SMOOTH",
"9 211 OFFCURVE",
"0 219 OFFCURVE",
"0 230 CURVE SMOOTH"
);
},
{
closed = 1;
nodes = (
"411 527 LINE",
"334 626 LINE",
"326 633 OFFCURVE",
"312 645 OFFCURVE",
"292 645 CURVE SMOOTH",
"259 645 OFFCURVE",
"232 618 OFFCURVE",
"232 586 CURVE SMOOTH",
"232 554 OFFCURVE",
"259 527 OFFCURVE",
"292 527 CURVE SMOOTH"
);
},
{
closed = 1;
nodes = (
"536 527 LINE",
"656 527 LINE SMOOTH",
"688 527 OFFCURVE",
"716 554 OFFCURVE",
"716 586 CURVE SMOOTH",
"716 618 OFFCURVE",
"688 645 OFFCURVE",
"656 645 CURVE SMOOTH",
"635 645 OFFCURVE",
"621 633 OFFCURVE",
"614 626 CURVE"
);
},
{
closed = 1;
nodes = (
"375 45 LINE SMOOTH",
"375 24 OFFCURVE",
"392 6 OFFCURVE",
"415 6 CURVE SMOOTH",
"533 6 LINE SMOOTH",
"554 6 OFFCURVE",
"573 24 OFFCURVE",
"573 45 CURVE SMOOTH",
"573 448 LINE",
"375 448 LINE"
);
}
);
width = 947;
}
);
unicode = E103;
},
{
glyphname = uniE104;
lastChange = "2012-09-26 13:54:49 -0700";
layers = (
{
layerId = "8581214D-6E4F-46FC-B69F-48918E6333A9";
name = Regular;
paths = (
{
closed = 1;
nodes = (
"14 -4 OFFCURVE",
"73 -64 OFFCURVE",
"147 -64 CURVE SMOOTH",
"596 -64 LINE SMOOTH",
"654 -64 OFFCURVE",
"703 -15 OFFCURVE",
"703 42 CURVE SMOOTH",
"703 520 LINE",
"729 520 LINE SMOOTH",
"802 520 OFFCURVE",
"862 580 OFFCURVE",
"862 652 CURVE SMOOTH",
"862 727 OFFCURVE",
"805 785 OFFCURVE",
"729 785 CURVE SMOOTH",
"385 785 LINE SMOOTH",
"295 785 OFFCURVE",
"227 716 OFFCURVE",
"227 626 CURVE SMOOTH",
"227 202 LINE",
"147 202 LINE SMOOTH",
"71 202 OFFCURVE",
"14 145 OFFCURVE",
"14 69 CURVE SMOOTH"
);
},
{
closed = 1;
nodes = (
"66 115 OFFCURVE",
"101 149 OFFCURVE",
"147 149 CURVE SMOOTH",
"227 149 LINE",
"227 42 LINE SMOOTH",
"227 16 OFFCURVE",
"198 -12 OFFCURVE",
"172 -12 CURVE SMOOTH",
"147 -12 LINE SMOOTH",
"101 -12 OFFCURVE",
"66 25 OFFCURVE",
"66 69 CURVE SMOOTH"
);
},
{
closed = 1;
nodes = (
"261 -12 LINE",
"273 7 OFFCURVE",
"280 24 OFFCURVE",
"280 42 CURVE SMOOTH",
"280 626 LINE SMOOTH",
"280 686 OFFCURVE",
"326 731 OFFCURVE",
"385 731 CURVE SMOOTH",
"429 731 OFFCURVE",
"465 698 OFFCURVE",
"465 652 CURVE SMOOTH",
"465 610 OFFCURVE",
"428 572 OFFCURVE",
"385 572 CURVE SMOOTH",
"367 572 OFFCURVE",
"358 565 OFFCURVE",
"358 546 CURVE SMOOTH",
"358 533 OFFCURVE",
"371 520 OFFCURVE",
"385 520 CURVE SMOOTH",
"650 520 LINE",
"650 42 LINE SMOOTH",
"650 16 OFFCURVE",
"624 -12 OFFCURVE",
"596 -12 CURVE SMOOTH"
);
},
{
closed = 1;
nodes = (
"358 100 OFFCURVE",
"364 95 OFFCURVE",
"372 95 CURVE SMOOTH",
"557 95 LINE SMOOTH",
"563 95 OFFCURVE",
"570 103 OFFCURVE",
"570 109 CURVE SMOOTH",
"570 116 OFFCURVE",
"566 121 OFFCURVE",
"557 121 CURVE SMOOTH",
"372 121 LINE SMOOTH",
"362 121 OFFCURVE",
"358 118 OFFCURVE",
"358 109 CURVE SMOOTH"
);
},
{
closed = 1;
nodes = (
"358 206 OFFCURVE",
"364 202 OFFCURVE",
"372 202 CURVE SMOOTH",
"557 202 LINE SMOOTH",
"563 202 OFFCURVE",
"570 208 OFFCURVE",
"570 215 CURVE SMOOTH",
"570 223 OFFCURVE",
"566 228 OFFCURVE",
"557 228 CURVE SMOOTH",
"372 228 LINE SMOOTH",
"362 228 OFFCURVE",
"358 225 OFFCURVE",
"358 215 CURVE SMOOTH"
);
},
{
closed = 1;
nodes = (
"358 312 OFFCURVE",
"364 307 OFFCURVE",
"372 307 CURVE SMOOTH",
"557 307 LINE SMOOTH",
"563 307 OFFCURVE",
"570 315 OFFCURVE",
"570 321 CURVE SMOOTH",
"570 330 OFFCURVE",
"566 334 OFFCURVE",
"557 334 CURVE SMOOTH",
"372 334 LINE SMOOTH",
"362 334 OFFCURVE",
"358 332 OFFCURVE",
"358 321 CURVE SMOOTH"
);
},
{
closed = 1;
nodes = (
"358 419 OFFCURVE",
"364 414 OFFCURVE",
"372 414 CURVE SMOOTH",
"557 414 LINE SMOOTH",
"563 414 OFFCURVE",
"570 421 OFFCURVE",
"570 426 CURVE SMOOTH",
"570 435 OFFCURVE",
"566 440 OFFCURVE",
"557 440 CURVE SMOOTH",
"372 440 LINE SMOOTH",
"364 440 OFFCURVE",
"358 435 OFFCURVE",
"358 426 CURVE SMOOTH"
);
},
{
closed = 1;
nodes = (
"491 572 LINE",
"509 597 OFFCURVE",
"517 624 OFFCURVE",
"517 652 CURVE SMOOTH",
"517 685 OFFCURVE",
"509 711 OFFCURVE",
"491 731 CURVE",
"729 731 LINE SMOOTH",
"774 731 OFFCURVE",
"809 698 OFFCURVE",
"809 652 CURVE SMOOTH",
"809 610 OFFCURVE",
"774 572 OFFCURVE",
"729 572 CURVE SMOOTH"
);
}
);
width = 873;
}
);
unicode = E104;
},
{
glyphname = uniE105;
lastChange = "2012-09-04 10:41:35 -0700";
layers = (
{
layerId = "8581214D-6E4F-46FC-B69F-48918E6333A9";
name = Regular;
paths = (
{
closed = 1;
nodes = (
"1048 85 OFFCURVE",
"1048 80 OFFCURVE",
"1044 80 CURVE SMOOTH",
"184 80 LINE SMOOTH",
"181 80 OFFCURVE",
"180 81 OFFCURVE",
"180 84 CURVE SMOOTH",
"180 85 LINE",
"302 338 LINE",
"431 606 LINE",
"432 609 OFFCURVE",
"436 610 OFFCURVE",
"437 607 CURVE",
"717 260 LINE",
"854 370 LINE",
"860 370 LINE",
"861 368 LINE",
"884 338 OFFCURVE",
"915 292 OFFCURVE",
"953 229 CURVE SMOOTH",
"990 166 OFFCURVE",
"1022 118 OFFCURVE",
"1047 86 CURVE"
);
},
{
closed = 1;
nodes = (
"1001 549 OFFCURVE",
"1008 532 OFFCURVE",
"1008 512 CURVE SMOOTH",
"1008 472 OFFCURVE",
"976 440 OFFCURVE",
"936 440 CURVE SMOOTH",
"896 440 OFFCURVE",
"864 472 OFFCURVE",
"864 512 CURVE SMOOTH",
"864 552 OFFCURVE",
"896 584 OFFCURVE",
"936 584 CURVE SMOOTH",
"956 584 OFFCURVE",
"973 577 OFFCURVE",
"987 563 CURVE SMOOTH"
);
},
{
closed = 1;
nodes = (
"108 8 LINE",
"1116 8 LINE",
"1116 692 LINE",
"108 692 LINE"
);
},
{
closed = 1;
nodes = (
"1224 800 LINE",
"1224 -100 LINE",
"0 -100 LINE",
"0 800 LINE"
);
}
);
width = 1224;
}
);
unicode = E105;
},
{
glyphname = uniE200;
lastChange = "2012-08-09 08:55:34 -0700";
layers = (
{
layerId = "8581214D-6E4F-46FC-B69F-48918E6333A9";
name = Regular;
paths = (
{
closed = 1;
nodes = (
"832 850 LINE SMOOTH",
"883 850 OFFCURVE",
"929 829 OFFCURVE",
"962 797 CURVE SMOOTH",
"994 764 OFFCURVE",
"1015 718 OFFCURVE",
"1015 667 CURVE SMOOTH",
"1015 33 LINE SMOOTH",
"1015 -18 OFFCURVE",
"994 -64 OFFCURVE",
"962 -96 CURVE SMOOTH",
"929 -129 OFFCURVE",
"883 -150 OFFCURVE",
"832 -150 CURVE SMOOTH",
"690 -150 LINE",
"690 241 LINE",
"837 241 LINE",
"843 382 LINE",
"690 382 LINE",
"690 484 LINE SMOOTH",
"690 528 OFFCURVE",
"701 547 OFFCURVE",
"749 546 CURVE SMOOTH",
"839 546 LINE",
"843 678 LINE",
"814 681 OFFCURVE",
"782 683 OFFCURVE",
"743 683 CURVE SMOOTH",
"676 683 OFFCURVE",
"627 663 OFFCURVE",
"593 631 CURVE SMOOTH",
"559 599 OFFCURVE",
"542 554 OFFCURVE",
"542 502 CURVE SMOOTH",
"542 382 LINE",
"438 382 LINE",
"438 241 LINE",
"542 241 LINE",
"542 -150 LINE",
"198 -150 LINE SMOOTH",
"147 -150 OFFCURVE",
"101 -129 OFFCURVE",
"69 -96 CURVE SMOOTH",
"36 -64 OFFCURVE",
"15 -18 OFFCURVE",
"15 33 CURVE SMOOTH",
"15 667 LINE SMOOTH",
"15 718 OFFCURVE",
"36 764 OFFCURVE",
"69 797 CURVE SMOOTH",
"101 829 OFFCURVE",
"147 850 OFFCURVE",
"198 850 CURVE SMOOTH"
);
}
);
width = 1030;
}
);
unicode = E200;
},
{
glyphname = uniE201;
lastChange = "2012-08-09 08:55:34 -0700";
layers = (
{
layerId = "8581214D-6E4F-46FC-B69F-48918E6333A9";
name = Regular;
paths = (
{
closed = 1;
nodes = (
"876 714 LINE",
"936 721 OFFCURVE",
"997 699 OFFCURVE",
"1046 660 CURVE SMOOTH",
"1095 620 OFFCURVE",
"1135 562 OFFCURVE",
"1152 498 CURVE SMOOTH",
"1153 494 OFFCURVE",
"1155 489 OFFCURVE",
"1156 482 CURVE SMOOTH",
"1157 475 OFFCURVE",
"1158 470 OFFCURVE",
"1159 467 CURVE",
"1183 459 OFFCURVE",
"1215 459 OFFCURVE",
"1244 463 CURVE SMOOTH",
"1272 467 OFFCURVE",
"1298 475 OFFCURVE",
"1313 484 CURVE",
"1294 439 OFFCURVE",
"1243 405 OFFCURVE",
"1171 400 CURVE",
"1188 392 OFFCURVE",
"1215 387 OFFCURVE",
"1241 384 CURVE",
"1254 383 OFFCURVE",
"1267 382 OFFCURVE",
"1280 382 CURVE SMOOTH",
"1293 382 OFFCURVE",
"1306 383 OFFCURVE",
"1318 385 CURVE",
"1282 344 OFFCURVE",
"1230 325 OFFCURVE",
"1163 326 CURVE",
"1146 255 OFFCURVE",
"1111 190 OFFCURVE",
"1064 134 CURVE SMOOTH",
"1016 77 OFFCURVE",
"956 28 OFFCURVE",
"891 -9 CURVE SMOOTH",
"758 -84 OFFCURVE",
"591 -114 OFFCURVE",
"435 -93 CURVE SMOOTH",
"356 -84 OFFCURVE",
"278 -55 OFFCURVE",
"206 -13 CURVE SMOOTH",
"133 29 OFFCURVE",
"66 87 OFFCURVE",
"14 159 CURVE",
"55 120 OFFCURVE",
"104 92 OFFCURVE",
"163 77 CURVE SMOOTH",
"220 62 OFFCURVE",
"282 63 OFFCURVE",
"340 79 CURVE SMOOTH",
"398 94 OFFCURVE",
"453 125 OFFCURVE",
"498 173 CURVE",
"458 166 OFFCURVE",
"421 184 OFFCURVE",
"409 208 CURVE",
"396 231 OFFCURVE",
"410 263 OFFCURVE",
"457 283 CURVE",
"376 275 OFFCURVE",
"321 314 OFFCURVE",
"296 363 CURVE",
"315 383 OFFCURVE",
"345 395 OFFCURVE",
"386 398 CURVE",
"293 419 OFFCURVE",
"251 464 OFFCURVE",
"239 528 CURVE",
"275 537 OFFCURVE",
"302 540 OFFCURVE",
"320 537 CURVE",
"239 580 OFFCURVE",
"203 646 OFFCURVE",
"208 702 CURVE",
"341 652 OFFCURVE",
"452 603 OFFCURVE",
"543 554 CURVE SMOOTH",
"568 541 OFFCURVE",
"601 514 OFFCURVE",
"642 475 CURVE",
"698 626 OFFCURVE",
"755 733 OFFCURVE",
"846 790 CURVE",
"844 777 OFFCURVE",
"837 764 OFFCURVE",
"826 751 CURVE",
"856 779 OFFCURVE",
"890 795 OFFCURVE",
"929 800 CURVE",
"926 782 OFFCURVE",
"905 765 OFFCURVE",
"867 750 CURVE",
"868 751 OFFCURVE",
"870 751 OFFCURVE",
"872 752 CURVE",
"874 752 OFFCURVE",
"876 753 OFFCURVE",
"879 754 CURVE",
"884 756 OFFCURVE",
"890 758 OFFCURVE",
"895 760 CURVE SMOOTH",
"900 762 OFFCURVE",
"905 764 OFFCURVE",
"910 765 CURVE",
"930 772 OFFCURVE",
"955 779 OFFCURVE",
"972 779 CURVE",
"981 778 OFFCURVE",
"985 775 OFFCURVE",
"986 771 CURVE",
"995 751 OFFCURVE",
"959 740 OFFCURVE",
"944 736 CURVE",
"936 733 OFFCURVE",
"928 731 OFFCURVE",
"920 729 CURVE SMOOTH",
"911 727 OFFCURVE",
"906 726 OFFCURVE",
"905 725 CURVE"
);
}
);
width = 1332;
}
);
unicode = E201;
},
{
glyphname = uniE202;
lastChange = "2012-08-09 08:55:34 -0700";
layers = (
{
layerId = "8581214D-6E4F-46FC-B69F-48918E6333A9";
name = Regular;
paths = (
{
closed = 1;
nodes = (
"822 850 LINE SMOOTH",
"875 850 OFFCURVE",
"923 829 OFFCURVE",
"959 794 CURVE SMOOTH",
"994 758 OFFCURVE",
"1015 710 OFFCURVE",
"1015 657 CURVE SMOOTH",
"1015 43 LINE SMOOTH",
"1015 -10 OFFCURVE",
"994 -58 OFFCURVE",
"959 -93 CURVE SMOOTH",
"923 -129 OFFCURVE",
"875 -150 OFFCURVE",
"822 -150 CURVE SMOOTH",
"208 -150 LINE SMOOTH",
"155 -150 OFFCURVE",
"107 -129 OFFCURVE",
"72 -93 CURVE SMOOTH",
"36 -58 OFFCURVE",
"15 -10 OFFCURVE",
"15 43 CURVE SMOOTH",
"15 657 LINE SMOOTH",
"15 710 OFFCURVE",
"36 758 OFFCURVE",
"72 794 CURVE SMOOTH",
"107 829 OFFCURVE",
"155 850 OFFCURVE",
"208 850 CURVE SMOOTH"
);
},
{
closed = 1;
nodes = (
"157 444 LINE",
"190 467 OFFCURVE",
"208 478 OFFCURVE",
"213 478 CURVE SMOOTH",
"238 478 OFFCURVE",
"261 440 OFFCURVE",
"282 363 CURVE SMOOTH",
"339 151 LINE",
"368 74 OFFCURVE",
"403 36 OFFCURVE",
"445 36 CURVE SMOOTH",
"490 36 OFFCURVE",
"549 73 OFFCURVE",
"606 129 CURVE SMOOTH",
"663 184 OFFCURVE",
"720 257 OFFCURVE",
"764 327 CURVE SMOOTH",
"807 397 OFFCURVE",
"837 465 OFFCURVE",
"838 510 CURVE SMOOTH",
"841 573 OFFCURVE",
"815 616 OFFCURVE",
"778 638 CURVE SMOOTH",
"759 649 OFFCURVE",
"738 654 OFFCURVE",
"715 654 CURVE SMOOTH",
"667 654 OFFCURVE",
"620 629 OFFCURVE",
"580 580 CURVE SMOOTH",
"560 555 OFFCURVE",
"544 524 OFFCURVE",
"532 486 CURVE",
"552 493 OFFCURVE",
"570 497 OFFCURVE",
"585 497 CURVE SMOOTH",
"621 497 OFFCURVE",
"637 479 OFFCURVE",
"635 449 CURVE SMOOTH",
"633 419 OFFCURVE",
"614 377 OFFCURVE",
"585 329 CURVE SMOOTH",
"555 282 OFFCURVE",
"532 258 OFFCURVE",
"517 258 CURVE SMOOTH",
"507 258 OFFCURVE",
"499 264 OFFCURVE",
"492 275 CURVE",
"479 298 OFFCURVE",
"467 343 OFFCURVE",
"456 411 CURVE SMOOTH",
"450 445 OFFCURVE",
"443 485 OFFCURVE",
"436 531 CURVE SMOOTH",
"423 612 OFFCURVE",
"389 650 OFFCURVE",
"333 645 CURVE",
"309 642 OFFCURVE",
"291 635 OFFCURVE",
"262 612 CURVE SMOOTH",
"247 600 OFFCURVE",
"229 584 OFFCURVE",
"208 564 CURVE SMOOTH",
"186 544 OFFCURVE",
"158 519 OFFCURVE",
"123 488 CURVE"
);
}
);
width = 1030;
}
);
unicode = E202;
},
{
glyphname = uniE203;
lastChange = "2012-08-09 08:55:34 -0700";
layers = (
{
layerId = "8581214D-6E4F-46FC-B69F-48918E6333A9";
name = Regular;
paths = (
{
closed = 1;
nodes = (
"830 510 LINE",
"1014 510 LINE",
"1014 -70 LINE SMOOTH",
"1014 -119 OFFCURVE",
"975 -149 OFFCURVE",
"922 -149 CURVE SMOOTH",
"569 -149 LINE",
"576 -132 OFFCURVE",
"580 -109 OFFCURVE",
"580 -78 CURVE SMOOTH",
"580 -34 OFFCURVE",
"567 0 OFFCURVE",
"543 33 CURVE SMOOTH",
"518 65 OFFCURVE",
"481 98 OFFCURVE",
"433 139 CURVE",
"381 180 LINE SMOOTH",
"356 201 OFFCURVE",
"343 222 OFFCURVE",
"343 242 CURVE SMOOTH",
"343 263 OFFCURVE",
"357 287 OFFCURVE",
"384 314 CURVE",
"423 343 OFFCURVE",
"452 372 OFFCURVE",
"472 404 CURVE SMOOTH",
"492 436 OFFCURVE",
"502 473 OFFCURVE",
"502 521 CURVE SMOOTH",
"502 592 OFFCURVE",
"472 654 OFFCURVE",
"413 705 CURVE",
"502 705 LINE",
"583 771 LINE",
"276 771 LINE SMOOTH",
"163 770 OFFCURVE",
"76 740 OFFCURVE",
"15 679 CURVE",
"15 758 LINE SMOOTH",
"15 822 OFFCURVE",
"51 850 OFFCURVE",
"107 850 CURVE SMOOTH",
"922 850 LINE SMOOTH",
"978 850 OFFCURVE",
"1014 822 OFFCURVE",
"1014 758 CURVE SMOOTH",
"1014 587 LINE",
"830 587 LINE",
"830 771 LINE",
"751 771 LINE",
"751 587 LINE",
"567 587 LINE",
"567 510 LINE",
"751 510 LINE",
"751 324 LINE",
"830 324 LINE"
);
},
{
closed = 1;
nodes = (
"188 324 OFFCURVE",
"140 358 OFFCURVE",
"113 409 CURVE SMOOTH",
"86 460 OFFCURVE",
"72 514 OFFCURVE",
"72 566 CURVE SMOOTH",
"72 615 OFFCURVE",
"81 651 OFFCURVE",
"100 674 CURVE SMOOTH",
"123 703 OFFCURVE",
"163 722 OFFCURVE",
"202 722 CURVE SMOOTH",
"277 722 OFFCURVE",
"338 650 OFFCURVE",
"364 571 CURVE SMOOTH",
"377 531 OFFCURVE",
"383 492 OFFCURVE",
"383 454 CURVE SMOOTH",
"383 421 OFFCURVE",
"371 388 OFFCURVE",
"348 364 CURVE SMOOTH",
"325 340 OFFCURVE",
"292 324 OFFCURVE",
"248 324 CURVE SMOOTH"
);
},
{
closed = 1;
nodes = (
"15 324 LINE",
"62 285 OFFCURVE",
"115 266 OFFCURVE",
"175 266 CURVE SMOOTH",
"182 266 OFFCURVE",
"190 267 OFFCURVE",
"202 268 CURVE",
"207 269 OFFCURVE",
"212 269 OFFCURVE",
"215 269 CURVE SMOOTH",
"218 269 OFFCURVE",
"220 269 OFFCURVE",
"221 269 CURVE",
"212 244 OFFCURVE",
"207 225 OFFCURVE",
"207 212 CURVE SMOOTH",
"207 199 OFFCURVE",
"210 185 OFFCURVE",
"215 171 CURVE SMOOTH",
"220 158 OFFCURVE",
"224 149 OFFCURVE",
"229 141 CURVE",
"233 133 OFFCURVE",
"239 125 OFFCURVE",
"250 113 CURVE",
"247 112 OFFCURVE",
"242 112 OFFCURVE",
"234 112 CURVE SMOOTH",
"225 112 OFFCURVE",
"214 112 OFFCURVE",
"201 111 CURVE",
"174 110 OFFCURVE",
"152 109 OFFCURVE",
"135 108 CURVE SMOOTH",
"118 107 OFFCURVE",
"96 102 OFFCURVE",
"74 95 CURVE SMOOTH",
"52 88 OFFCURVE",
"31 78 OFFCURVE",
"15 66 CURVE"
);
},
{
closed = 1;
nodes = (
"351 36 LINE SMOOTH",
"374 20 OFFCURVE",
"390 9 OFFCURVE",
"399 2 CURVE SMOOTH",
"408 -5 OFFCURVE",
"422 -16 OFFCURVE",
"435 -27 CURVE",
"448 -39 OFFCURVE",
"459 -50 OFFCURVE",
"466 -58 CURVE",
"478 -75 OFFCURVE",
"490 -99 OFFCURVE",
"490 -123 CURVE SMOOTH",
"490 -126 OFFCURVE",
"488 -135 OFFCURVE",
"484 -149 CURVE",
"107 -149 LINE SMOOTH",
"54 -149 OFFCURVE",
"15 -119 OFFCURVE",
"15 -70 CURVE SMOOTH",
"15 -18 LINE",
"36 10 OFFCURVE",
"69 32 OFFCURVE",
"114 49 CURVE",
"162 64 OFFCURVE",
"213 72 OFFCURVE",
"266 72 CURVE SMOOTH",
"273 72 OFFCURVE",
"280 72 OFFCURVE",
"286 72 CURVE SMOOTH",
"291 72 OFFCURVE",
"296 72 OFFCURVE",
"300 71 CURVE"
);
}
);
width = 1030;
}
);
unicode = E203;
},
{
glyphname = uniE204;
lastChange = "2012-08-09 08:55:34 -0700";
layers = (
{
layerId = "8581214D-6E4F-46FC-B69F-48918E6333A9";
name = Regular;
paths = (
{
closed = 1;
nodes = (
"618 747 OFFCURVE",
"610 727 OFFCURVE",
"596 712 CURVE SMOOTH",
"582 696 OFFCURVE",
"562 687 OFFCURVE",
"542 687 CURVE SMOOTH",
"499 687 OFFCURVE",
"466 724 OFFCURVE",
"466 768 CURVE SMOOTH",
"466 812 OFFCURVE",
"499 850 OFFCURVE",
"542 850 CURVE SMOOTH",
"583 850 OFFCURVE",
"618 812 OFFCURVE",
"618 768 CURVE SMOOTH"
);
},
{
closed = 1;
nodes = (
"709 496 LINE",
"710 496 LINE",
"710 498 LINE",
"693 499 LINE",
"683 499 OFFCURVE",
"671 498 OFFCURVE",
"656 496 CURVE",
"656 602 LINE",
"710 602 LINE",
"710 644 LINE SMOOTH",
"710 661 OFFCURVE",
"709 678 OFFCURVE",
"706 694 CURVE",
"833 694 LINE",
"831 680 OFFCURVE",
"830 664 OFFCURVE",
"830 647 CURVE SMOOTH",
"830 602 LINE",
"925 602 LINE",
"925 496 LINE",
"924 496 OFFCURVE",
"921 496 OFFCURVE",
"917 496 CURVE SMOOTH",
"913 496 OFFCURVE",
"908 496 OFFCURVE",
"902 497 CURVE SMOOTH",
"895 498 OFFCURVE",
"890 498 OFFCURVE",
"886 498 CURVE SMOOTH",
"882 498 OFFCURVE",
"879 498 OFFCURVE",
"877 498 CURVE SMOOTH",
"830 498 LINE",
"830 294 LINE SMOOTH",
"830 245 OFFCURVE",
"846 221 OFFCURVE",
"878 221 CURVE SMOOTH",
"901 221 OFFCURVE",
"921 227 OFFCURVE",
"939 239 CURVE",
"939 130 LINE",
"912 115 OFFCURVE",
"880 108 OFFCURVE",
"842 108 CURVE SMOOTH",
"741 108 OFFCURVE",
"709 171 OFFCURVE",
"709 300 CURVE SMOOTH"
);
},
{
closed = 1;
nodes = (
"115 273 LINE",
"91 281 OFFCURVE",
"67 304 OFFCURVE",
"50 333 CURVE SMOOTH",
"33 361 OFFCURVE",
"22 395 OFFCURVE",
"22 427 CURVE SMOOTH",
"22 479 OFFCURVE",
"43 524 OFFCURVE",
"76 556 CURVE SMOOTH",
"109 588 OFFCURVE",
"154 607 OFFCURVE",
"205 607 CURVE SMOOTH",
"241 607 OFFCURVE",
"274 598 OFFCURVE",
"305 581 CURVE",
"341 581 OFFCURVE",
"381 590 OFFCURVE",
"426 607 CURVE",
"426 494 LINE",
"415 490 OFFCURVE",
"400 486 OFFCURVE",
"383 482 CURVE",
"388 466 OFFCURVE",
"391 450 OFFCURVE",
"391 435 CURVE SMOOTH",
"391 387 OFFCURVE",
"375 345 OFFCURVE",
"348 313 CURVE SMOOTH",
"321 281 OFFCURVE",
"284 259 OFFCURVE",
"240 252 CURVE SMOOTH",
"211 248 OFFCURVE",
"197 232 OFFCURVE",
"197 204 CURVE SMOOTH",
"197 195 OFFCURVE",
"202 185 OFFCURVE",
"211 176 CURVE",
"222 163 OFFCURVE",
"241 154 OFFCURVE",
"266 150 CURVE SMOOTH",
"370 134 OFFCURVE",
"422 91 OFFCURVE",
"422 20 CURVE SMOOTH",
"422 -93 OFFCURVE",
"355 -150 OFFCURVE",
"220 -150 CURVE SMOOTH",
"160 -150 OFFCURVE",
"109 -138 OFFCURVE",
"73 -113 CURVE SMOOTH",
"36 -89 OFFCURVE",
"15 -52 OFFCURVE",
"15 -3 CURVE SMOOTH",
"15 57 OFFCURVE",
"49 99 OFFCURVE",
"117 122 CURVE",
"117 125 LINE",
"92 140 OFFCURVE",
"80 163 OFFCURVE",
"80 195 CURVE SMOOTH",
"80 236 OFFCURVE",
"92 261 OFFCURVE",
"115 271 CURVE"
);
},
{
closed = 1;
nodes = (
"480 116 LINE",
"481 136 OFFCURVE",
"482 161 OFFCURVE",
"482 190 CURVE SMOOTH",
"482 531 LINE SMOOTH",
"482 562 OFFCURVE",
"481 585 OFFCURVE",
"480 602 CURVE",
"604 602 LINE",
"602 574 OFFCURVE",
"601 551 OFFCURVE",
"601 533 CURVE SMOOTH",
"601 197 LINE SMOOTH",
"601 177 OFFCURVE",
"602 150 OFFCURVE",
"604 116 CURVE"
);
},
{
closed = 1;
nodes = (
"276 472 OFFCURVE",
"251 506 OFFCURVE",
"210 506 CURVE SMOOTH",
"164 506 OFFCURVE",
"141 479 OFFCURVE",
"141 425 CURVE SMOOTH",
"141 375 OFFCURVE",
"164 350 OFFCURVE",
"210 350 CURVE SMOOTH",
"254 350 OFFCURVE",
"276 376 OFFCURVE",
"276 427 CURVE SMOOTH"
);
},
{
closed = 1;
nodes = (
"309 42 OFFCURVE",
"278 61 OFFCURVE",
"217 61 CURVE SMOOTH",
"158 61 OFFCURVE",
"129 42 OFFCURVE",
"129 3 CURVE SMOOTH",
"129 -35 OFFCURVE",
"161 -54 OFFCURVE",
"225 -54 CURVE SMOOTH",
"281 -54 OFFCURVE",
"309 -34 OFFCURVE",
"309 5 CURVE SMOOTH"
);
}
);
width = 954;
}
);
unicode = E204;
},
{
glyphname = uniE205;
lastChange = "2012-08-09 08:55:34 -0700";
layers = (
{
layerId = "8581214D-6E4F-46FC-B69F-48918E6333A9";
name = Regular;
paths = (
{
closed = 1;
nodes = (
"427 -99 LINE",
"242 -78 OFFCURVE",
"121 -14 OFFCURVE",
"63 94 CURVE SMOOTH",
"56 107 OFFCURVE",
"51 118 OFFCURVE",
"48 126 CURVE",
"44 134 OFFCURVE",
"42 139 OFFCURVE",
"41 142 CURVE SMOOTH",
"23 194 OFFCURVE",
"14 258 OFFCURVE",
"14 335 CURVE SMOOTH",
"14 425 OFFCURVE",
"44 503 OFFCURVE",
"104 568 CURVE",
"93 592 OFFCURVE",
"89 616 OFFCURVE",
"88 644 CURVE SMOOTH",
"87 672 OFFCURVE",
"89 707 OFFCURVE",
"97 744 CURVE",
"100 763 OFFCURVE",
"106 781 OFFCURVE",
"113 799 CURVE",
"122 801 LINE",
"133 804 OFFCURVE",
"161 799 OFFCURVE",
"197 790 CURVE SMOOTH",
"232 781 OFFCURVE",
"290 752 OFFCURVE",
"354 709 CURVE",
"422 728 OFFCURVE",
"495 737 OFFCURVE",
"572 737 CURVE SMOOTH",
"641 737 OFFCURVE",
"707 729 OFFCURVE",
"770 714 CURVE",
"830 754 OFFCURVE",
"888 782 OFFCURVE",
"921 791 CURVE SMOOTH",
"953 800 OFFCURVE",
"985 802 OFFCURVE",
"993 801 CURVE",
"995 800 OFFCURVE",
"997 800 OFFCURVE",
"998 800 CURVE SMOOTH",
"999 800 OFFCURVE",
"1001 800 OFFCURVE",
"1002 799 CURVE",
"1033 722 OFFCURVE",
"1038 650 OFFCURVE",
"1017 583 CURVE",
"1085 515 OFFCURVE",
"1119 432 OFFCURVE",
"1119 335 CURVE SMOOTH",
"1119 253 OFFCURVE",
"1114 195 OFFCURVE",
"1103 161 CURVE SMOOTH",
"1098 146 OFFCURVE",
"1095 133 OFFCURVE",
"1092 123 CURVE SMOOTH",
"1089 113 OFFCURVE",
"1086 106 OFFCURVE",
"1084 102 CURVE",
"1060 43 OFFCURVE",
"1022 -2 OFFCURVE",
"964 -34 CURVE SMOOTH",
"906 -67 OFFCURVE",
"828 -90 OFFCURVE",
"724 -99 CURVE"
);
},
{
closed = 1;
nodes = (
"933 288 OFFCURVE",
"912 336 OFFCURVE",
"871 381 CURVE",
"856 396 OFFCURVE",
"837 407 OFFCURVE",
"814 414 CURVE",
"790 419 OFFCURVE",
"770 422 OFFCURVE",
"747 422 CURVE SMOOTH",
"724 422 OFFCURVE",
"698 420 OFFCURVE",
"662 417 CURVE SMOOTH",
"626 414 OFFCURVE",
"598 412 OFFCURVE",
"575 412 CURVE SMOOTH",
"552 412 OFFCURVE",
"524 414 OFFCURVE",
"488 417 CURVE SMOOTH",
"469 418 OFFCURVE",
"453 419 OFFCURVE",
"439 420 CURVE SMOOTH",
"425 421 OFFCURVE",
"413 421 OFFCURVE",
"403 422 CURVE",
"363 423 OFFCURVE",
"310 412 OFFCURVE",
"279 380 CURVE SMOOTH",
"238 337 OFFCURVE",
"218 290 OFFCURVE",
"218 238 CURVE SMOOTH",
"218 149 OFFCURVE",
"246 87 OFFCURVE",
"286 51 CURVE SMOOTH",
"326 15 OFFCURVE",
"396 -6 OFFCURVE",
"461 -13 CURVE SMOOTH",
"494 -17 OFFCURVE",
"532 -19 OFFCURVE",
"575 -19 CURVE SMOOTH",
"587 -19 OFFCURVE",
"598 -19 OFFCURVE",
"607 -19 CURVE SMOOTH",
"616 -19 OFFCURVE",
"625 -19 OFFCURVE",
"634 -18 CURVE",
"642 -18 OFFCURVE",
"650 -18 OFFCURVE",
"659 -17 CURVE",
"668 -17 OFFCURVE",
"677 -17 OFFCURVE",
"688 -16 CURVE SMOOTH",
"729 -13 OFFCURVE",
"751 -8 OFFCURVE",
"786 0 CURVE SMOOTH",
"821 8 OFFCURVE",
"839 21 OFFCURVE",
"864 40 CURVE SMOOTH",
"888 59 OFFCURVE",
"901 83 OFFCURVE",
"914 115 CURVE SMOOTH",
"927 146 OFFCURVE",
"933 189 OFFCURVE",
"933 238 CURVE SMOOTH"
);
},
{
closed = 1;
nodes = (
"420 113 OFFCURVE",
"402 101 OFFCURVE",
"382 101 CURVE SMOOTH",
"362 101 OFFCURVE",
"343 114 OFFCURVE",
"330 137 CURVE SMOOTH",
"317 160 OFFCURVE",
"308 189 OFFCURVE",
"308 224 CURVE SMOOTH",
"308 257 OFFCURVE",
"317 290 OFFCURVE",
"330 312 CURVE SMOOTH",
"343 334 OFFCURVE",
"362 348 OFFCURVE",
"382 348 CURVE SMOOTH",
"402 348 OFFCURVE",
"421 334 OFFCURVE",
"434 312 CURVE SMOOTH",
"447 290 OFFCURVE",
"456 257 OFFCURVE",
"456 224 CURVE SMOOTH",
"456 190 OFFCURVE",
"449 161 OFFCURVE",
"435 137 CURVE SMOOTH"
);
},
{
closed = 1;
nodes = (
"820 113 OFFCURVE",
"802 101 OFFCURVE",
"782 101 CURVE SMOOTH",
"761 101 OFFCURVE",
"743 114 OFFCURVE",
"729 137 CURVE SMOOTH",
"715 160 OFFCURVE",
"706 189 OFFCURVE",
"706 224 CURVE SMOOTH",
"706 257 OFFCURVE",
"715 290 OFFCURVE",
"729 312 CURVE SMOOTH",
"743 334 OFFCURVE",
"762 348 OFFCURVE",
"782 348 CURVE SMOOTH",
"802 348 OFFCURVE",
"821 334 OFFCURVE",
"834 312 CURVE SMOOTH",
"847 290 OFFCURVE",
"856 257 OFFCURVE",
"856 224 CURVE SMOOTH",
"856 190 OFFCURVE",
"849 161 OFFCURVE",
"835 137 CURVE SMOOTH"
);
}
);
width = 1132;
}
);
unicode = E205;
},
{
glyphname = uniE206;
lastChange = "2012-08-09 09:22:05 -0700";
layers = (
{
layerId = "8581214D-6E4F-46FC-B69F-48918E6333A9";
name = Regular;
paths = (
{
closed = 1;
nodes = (
"1064 742 LINE",
"1053 742 LINE",
"1043 742 LINE",
"1032 742 LINE",
"1020 742 LINE",
"1009 742 LINE",
"998 742 LINE",
"986 742 LINE SMOOTH",
"986 742 OFFCURVE",
"987 736 OFFCURVE",
"987 726 CURVE SMOOTH",
"989 715 OFFCURVE",
"990 701 OFFCURVE",
"991 683 CURVE SMOOTH",
"991 665 OFFCURVE",
"994 645 OFFCURVE",
"995 624 CURVE SMOOTH",
"997 602 OFFCURVE",
"998 578 OFFCURVE",
"999 555 CURVE SMOOTH",
"1001 531 OFFCURVE",
"1002 508 OFFCURVE",
"1002 485 CURVE SMOOTH",
"1003 462 OFFCURVE",
"1005 442 OFFCURVE",
"1005 423 CURVE SMOOTH",
"1005 406 OFFCURVE",
"1005 389 OFFCURVE",
"1005 379 CURVE SMOOTH",
"1005 366 OFFCURVE",
"1003 360 OFFCURVE",
"1002 358 CURVE",
"991 358 LINE",
"982 358 LINE",
"973 358 LINE",
"962 357 LINE",
"952 357 LINE",
"942 357 LINE",
"932 357 LINE",
"923 357 LINE SMOOTH",
"923 357 OFFCURVE",
"921 364 OFFCURVE",
"919 375 CURVE SMOOTH",
"916 385 OFFCURVE",
"911 401 OFFCURVE",
"904 420 CURVE SMOOTH",
"897 441 OFFCURVE",
"888 462 OFFCURVE",
"877 486 CURVE SMOOTH",
"865 509 OFFCURVE",
"850 535 OFFCURVE",
"832 559 CURVE SMOOTH",
"815 583 OFFCURVE",
"793 608 OFFCURVE",
"769 630 CURVE SMOOTH",
"744 653 OFFCURVE",
"715 674 OFFCURVE",
"682 690 CURVE SMOOTH",
"649 707 OFFCURVE",
"612 721 OFFCURVE",
"568 727 CURVE SMOOTH",
"527 736 OFFCURVE",
"480 738 OFFCURVE",
"427 734 CURVE",
"427 734 OFFCURVE",
"427 730 OFFCURVE",
"426 722 CURVE SMOOTH",
"426 714 OFFCURVE",
"426 703 OFFCURVE",
"426 688 CURVE SMOOTH",
"427 675 OFFCURVE",
"428 659 OFFCURVE",
"431 641 CURVE SMOOTH",
"434 624 OFFCURVE",
"439 604 OFFCURVE",
"446 583 CURVE SMOOTH",
"453 563 OFFCURVE",
"461 542 OFFCURVE",
"473 521 CURVE SMOOTH",
"485 501 OFFCURVE",
"500 480 OFFCURVE",
"517 461 CURVE SMOOTH",
"535 441 OFFCURVE",
"558 423 OFFCURVE",
"583 407 CURVE SMOOTH",
"609 391 OFFCURVE",
"638 376 OFFCURVE",
"673 365 CURVE",
"664 365 LINE",
"655 365 LINE",
"644 365 LINE",
"634 366 LINE",
"624 366 LINE",
"614 366 LINE",
"603 366 LINE",
"594 368 LINE SMOOTH",
"594 368 OFFCURVE",
"589 370 OFFCURVE",
"581 376 CURVE SMOOTH",
"571 383 OFFCURVE",
"559 389 OFFCURVE",
"541 399 CURVE SMOOTH",
"525 407 OFFCURVE",
"505 416 OFFCURVE",
"484 424 CURVE SMOOTH",
"461 432 OFFCURVE",
"435 441 OFFCURVE",
"408 447 CURVE SMOOTH",
"381 453 OFFCURVE",
"353 457 OFFCURVE",
"322 457 CURVE SMOOTH",
"292 458 OFFCURVE",
"261 455 OFFCURVE",
"229 447 CURVE SMOOTH",
"197 439 OFFCURVE",
"164 427 OFFCURVE",
"132 410 CURVE SMOOTH",
"101 391 OFFCURVE",
"69 365 OFFCURVE",
"38 334 CURVE",
"38 334 OFFCURVE",
"42 329 OFFCURVE",
"51 322 CURVE SMOOTH",
"59 315 OFFCURVE",
"71 306 OFFCURVE",
"88 295 CURVE SMOOTH",
"102 284 OFFCURVE",
"123 272 OFFCURVE",
"144 261 CURVE SMOOTH",
"166 249 OFFCURVE",
"190 238 OFFCURVE",
"217 229 CURVE SMOOTH",
"242 220 OFFCURVE",
"271 213 OFFCURVE",
"302 209 CURVE SMOOTH",
"331 203 OFFCURVE",
"362 203 OFFCURVE",
"395 208 CURVE SMOOTH",
"427 212 OFFCURVE",
"459 221 OFFCURVE",
"493 236 CURVE SMOOTH",
"527 251 OFFCURVE",
"560 272 OFFCURVE",
"593 302 CURVE",
"609 302 LINE",
"625 302 LINE",
"640 302 LINE",
"656 302 LINE",
"672 302 LINE",
"688 302 LINE",
"703 302 LINE",
"719 300 LINE",
"719 300 OFFCURVE",
"715 300 OFFCURVE",
"707 298 CURVE SMOOTH",
"700 294 OFFCURVE",
"690 290 OFFCURVE",
"676 284 CURVE SMOOTH",
"663 278 OFFCURVE",
"648 269 OFFCURVE",
"630 260 CURVE SMOOTH",
"614 251 OFFCURVE",
"597 238 OFFCURVE",
"578 224 CURVE SMOOTH",
"560 210 OFFCURVE",
"541 194 OFFCURVE",
"524 175 CURVE SMOOTH",
"506 155 OFFCURVE",
"489 133 OFFCURVE",
"474 109 CURVE SMOOTH",
"459 85 OFFCURVE",
"446 58 OFFCURVE",
"435 28 CURVE SMOOTH",
"424 -3 OFFCURVE",
"416 -35 OFFCURVE",
"411 -73 CURVE SMOOTH",
"411 -77 OFFCURVE",
"411 -79 OFFCURVE",
"411 -83 CURVE SMOOTH",
"411 -86 OFFCURVE",
"411 -89 OFFCURVE",
"411 -90 CURVE SMOOTH",
"411 -93 OFFCURVE",
"412 -96 OFFCURVE",
"412 -97 CURVE SMOOTH",
"414 -98 OFFCURVE",
"415 -100 OFFCURVE",
"416 -101 CURVE SMOOTH",
"418 -102 OFFCURVE",
"419 -104 OFFCURVE",
"420 -104 CURVE SMOOTH",
"422 -105 OFFCURVE",
"424 -106 OFFCURVE",
"427 -106 CURVE SMOOTH",
"430 -108 OFFCURVE",
"432 -108 OFFCURVE",
"435 -109 CURVE SMOOTH",
"438 -110 OFFCURVE",
"442 -112 OFFCURVE",
"444 -113 CURVE SMOOTH",
"459 -117 OFFCURVE",
"478 -120 OFFCURVE",
"498 -120 CURVE SMOOTH",
"520 -120 OFFCURVE",
"543 -117 OFFCURVE",
"567 -112 CURVE SMOOTH",
"591 -106 OFFCURVE",
"617 -98 OFFCURVE",
"643 -87 CURVE SMOOTH",
"668 -77 OFFCURVE",
"695 -62 OFFCURVE",
"719 -46 CURVE SMOOTH",
"745 -30 OFFCURVE",
"770 -9 OFFCURVE",
"793 12 CURVE SMOOTH",
"815 35 OFFCURVE",
"836 61 OFFCURVE",
"855 89 CURVE SMOOTH",
"873 117 OFFCURVE",
"889 150 OFFCURVE",
"900 185 CURVE SMOOTH",
"912 220 OFFCURVE",
"920 257 OFFCURVE",
"923 298 CURVE",
"932 298 LINE",
"942 298 LINE",
"952 296 LINE",
"962 296 LINE",
"971 295 LINE",
"982 295 LINE",
"991 294 LINE",
"1001 294 LINE",
"999 251 LINE",
"997 208 LINE",
"995 163 LINE",
"993 120 LINE",
"991 77 LINE",
"989 34 LINE",
"987 -11 LINE",
"985 -54 LINE",
"995 -54 LINE",
"1006 -54 LINE",
"1017 -54 LINE",
"1028 -52 LINE",
"1039 -52 LINE",
"1049 -52 LINE",
"1060 -52 LINE",
"1071 -52 LINE",
"1071 -52 OFFCURVE",
"1069 -47 OFFCURVE",
"1069 -38 CURVE SMOOTH",
"1069 -28 OFFCURVE",
"1069 -15 OFFCURVE",
"1068 4 CURVE SMOOTH",
"1068 23 OFFCURVE",
"1068 46 OFFCURVE",
"1067 71 CURVE SMOOTH",
"1067 98 OFFCURVE",
"1067 129 OFFCURVE",
"1067 164 CURVE SMOOTH",
"1065 199 OFFCURVE",
"1065 237 OFFCURVE",
"1065 279 CURVE SMOOTH",
"1067 321 OFFCURVE",
"1067 366 OFFCURVE",
"1067 415 CURVE SMOOTH",
"1068 463 OFFCURVE",
"1069 515 OFFCURVE",
"1071 570 CURVE SMOOTH",
"1072 624 OFFCURVE",
"1074 682 OFFCURVE",
"1076 742 CURVE"
);
},
{
closed = 1;
nodes = (
"217 370 OFFCURVE",
"226 380 OFFCURVE",
"245 392 CURVE SMOOTH",
"263 403 OFFCURVE",
"288 416 OFFCURVE",
"319 423 CURVE SMOOTH",
"349 430 OFFCURVE",
"385 430 OFFCURVE",
"424 414 CURVE SMOOTH",
"462 399 OFFCURVE",
"504 369 OFFCURVE",
"546 317 CURVE",
"546 317 OFFCURVE",
"537 310 OFFCURVE",
"523 302 CURVE SMOOTH",
"508 294 OFFCURVE",
"485 284 OFFCURVE",
"457 282 CURVE SMOOTH",
"428 278 OFFCURVE",
"393 279 OFFCURVE",
"353 292 CURVE SMOOTH",
"314 304 OFFCURVE",
"267 329 OFFCURVE",
"217 370 CURVE"
);
},
{
closed = 1;
nodes = (
"568 74 OFFCURVE",
"598 132 OFFCURVE",
"630 175 CURVE SMOOTH",
"664 217 OFFCURVE",
"699 244 OFFCURVE",
"730 260 CURVE SMOOTH",
"762 278 OFFCURVE",
"792 284 OFFCURVE",
"814 286 CURVE SMOOTH",
"834 288 OFFCURVE",
"847 287 OFFCURVE",
"847 287 CURVE",
"842 202 OFFCURVE",
"822 142 OFFCURVE",
"792 98 CURVE SMOOTH",
"762 55 OFFCURVE",
"725 28 OFFCURVE",
"688 14 CURVE SMOOTH",
"652 -1 OFFCURVE",
"616 -7 OFFCURVE",
"590 -8 CURVE SMOOTH",
"563 -8 OFFCURVE",
"546 -5 OFFCURVE",
"546 -5 CURVE"
);
},
{
closed = 1;
nodes = (
"546 667 OFFCURVE",
"558 668 OFFCURVE",
"579 665 CURVE SMOOTH",
"601 663 OFFCURVE",
"629 656 OFFCURVE",
"661 640 CURVE SMOOTH",
"694 624 OFFCURVE",
"729 597 OFFCURVE",
"761 554 CURVE SMOOTH",
"795 512 OFFCURVE",
"824 454 OFFCURVE",
"847 373 CURVE",
"847 373 OFFCURVE",
"830 370 OFFCURVE",
"803 372 CURVE SMOOTH",
"776 373 OFFCURVE",
"739 377 OFFCURVE",
"703 393 CURVE SMOOTH",
"667 408 OFFCURVE",
"630 434 OFFCURVE",
"601 478 CURVE SMOOTH",
"571 521 OFFCURVE",
"550 582 OFFCURVE",
"546 667 CURVE"
);
}
);
width = 1132;
}
);
unicode = E206;
},
{
glyphname = uniE20F;
lastChange = "2012-08-09 09:09:56 -0700";
layers = (
{
layerId = "8581214D-6E4F-46FC-B69F-48918E6333A9";
name = Regular;
paths = (
{
closed = 1;
nodes = (
"145 241 OFFCURVE",
"265 170 OFFCURVE",
"379 265 CURVE",
"379 265 OFFCURVE",
"496 153 OFFCURVE",
"649 265 CURVE",
"649 265 OFFCURVE",
"728 176 OFFCURVE",
"884 238 CURVE",
"884 -67 LINE",
"884 -67 OFFCURVE",
"891 -140 OFFCURVE",
"823 -140 CURVE SMOOTH",
"756 -140 OFFCURVE",
"208 -140 OFFCURVE",
"208 -140 CURVE SMOOTH",
"208 -140 OFFCURVE",
"145 -138 OFFCURVE",
"145 -73 CURVE SMOOTH",
"145 -7 OFFCURVE",
"145 241 OFFCURVE",
"145 241 CURVE SMOOTH"
);
},
{
closed = 1;
nodes = (
"805 472 LINE",
"805 472 OFFCURVE",
"903 451 OFFCURVE",
"919 388 CURVE SMOOTH",
"938 323 OFFCURVE",
"878 255 OFFCURVE",
"786 255 CURVE SMOOTH",
"690 255 OFFCURVE",
"652 334 OFFCURVE",
"652 334 CURVE SMOOTH",
"652 334 OFFCURVE",
"616 255 OFFCURVE",
"519 255 CURVE SMOOTH",
"420 255 OFFCURVE",
"379 334 OFFCURVE",
"379 334 CURVE SMOOTH",
"379 334 OFFCURVE",
"349 255 OFFCURVE",
"246 255 CURVE SMOOTH",
"140 255 OFFCURVE",
"107 318 OFFCURVE",
"107 363 CURVE SMOOTH",
"107 410 OFFCURVE",
"178 472 OFFCURVE",
"214 472 CURVE SMOOTH"
);
},
{
closed = 1;
nodes = (
"252 453 LINE",
"252 557 LINE",
"317 557 LINE",
"317 453 LINE"
);
},
{
closed = 1;
nodes = (
"483 453 LINE",
"483 557 LINE",
"546 557 LINE",
"546 453 LINE"
);
},
{
closed = 1;
nodes = (
"712 453 LINE",
"712 557 LINE",
"774 557 LINE",
"774 453 LINE"
);
},
{
closed = 1;
nodes = (
"516 764 OFFCURVE",
"512 764 OFFCURVE",
"508 758 CURVE",
"508 758 OFFCURVE",
"475 679 OFFCURVE",
"475 645 CURVE SMOOTH",
"475 609 OFFCURVE",
"496 595 OFFCURVE",
"516 595 CURVE SMOOTH",
"536 595 OFFCURVE",
"552 614 OFFCURVE",
"552 645 CURVE SMOOTH",
"552 674 OFFCURVE",
"519 758 OFFCURVE",
"519 758 CURVE"
);
},
{
closed = 1;
nodes = (
"747 764 OFFCURVE",
"742 764 OFFCURVE",
"739 758 CURVE",
"739 758 OFFCURVE",
"704 679 OFFCURVE",
"704 645 CURVE SMOOTH",
"704 609 OFFCURVE",
"726 595 OFFCURVE",
"744 595 CURVE SMOOTH",
"764 595 OFFCURVE",
"783 614 OFFCURVE",
"783 645 CURVE SMOOTH",
"783 674 OFFCURVE",
"750 758 OFFCURVE",
"750 758 CURVE"
);
},
{
closed = 1;
nodes = (
"287 764 OFFCURVE",
"282 764 OFFCURVE",
"279 758 CURVE",
"279 758 OFFCURVE",
"246 679 OFFCURVE",
"246 645 CURVE SMOOTH",
"246 609 OFFCURVE",
"268 595 OFFCURVE",
"287 595 CURVE SMOOTH",
"306 595 OFFCURVE",
"322 614 OFFCURVE",
"322 645 CURVE SMOOTH",
"322 674 OFFCURVE",
"289 758 OFFCURVE",
"289 758 CURVE"
);
}
);
width = 1030;
}
);
unicode = E20F;
},
{
glyphname = uniE20a;
lastChange = "2012-08-09 08:55:34 -0700";
layers = (
{
layerId = "8581214D-6E4F-46FC-B69F-48918E6333A9";
name = Regular;
paths = (
{
closed = 1;
nodes = (
"906 419 LINE",
"922 451 OFFCURVE",
"961 482 OFFCURVE",
"1018 482 CURVE SMOOTH",
"1079 482 OFFCURVE",
"1114 462 OFFCURVE",
"1135 429 CURVE SMOOTH",
"1155 397 OFFCURVE",
"1161 351 OFFCURVE",
"1161 298 CURVE SMOOTH",
"1161 86 LINE",
"1043 86 LINE",
"1043 275 LINE SMOOTH",
"1043 297 OFFCURVE",
"1043 323 OFFCURVE",
"1036 344 CURVE",
"1027 364 OFFCURVE",
"1011 378 OFFCURVE",
"982 378 CURVE SMOOTH",
"950 378 OFFCURVE",
"934 366 OFFCURVE",
"922 347 CURVE SMOOTH",
"911 327 OFFCURVE",
"909 302 OFFCURVE",
"909 277 CURVE SMOOTH",
"909 86 LINE",
"790 86 LINE",
"790 243 LINE",
"524 243 LINE",
"532 197 OFFCURVE",
"567 168 OFFCURVE",
"615 168 CURVE SMOOTH",
"655 168 OFFCURVE",
"678 188 OFFCURVE",
"699 216 CURVE",
"781 155 LINE",
"744 106 OFFCURVE",
"681 77 OFFCURVE",
"619 77 CURVE SMOOTH",
"528 77 OFFCURVE",
"448 124 OFFCURVE",
"419 205 CURVE",
"419 116 LINE",
"362 88 OFFCURVE",
"304 77 OFFCURVE",
"243 77 CURVE SMOOTH",
"179 77 OFFCURVE",
"123 97 OFFCURVE",
"83 134 CURVE SMOOTH",
"43 170 OFFCURVE",
"19 222 OFFCURVE",
"19 286 CURVE SMOOTH",
"19 351 OFFCURVE",
"43 403 OFFCURVE",
"83 440 CURVE SMOOTH",
"123 476 OFFCURVE",
"179 497 OFFCURVE",
"243 497 CURVE SMOOTH",
"309 497 OFFCURVE",
"369 483 OFFCURVE",
"409 444 CURVE",
"346 369 LINE",
"321 394 OFFCURVE",
"291 408 OFFCURVE",
"243 408 CURVE SMOOTH",
"189 408 OFFCURVE",
"141 363 OFFCURVE",
"141 286 CURVE SMOOTH",
"141 213 OFFCURVE",
"186 166 OFFCURVE",
"243 166 CURVE SMOOTH",
"284 166 OFFCURVE",
"298 177 OFFCURVE",
"313 186 CURVE",
"313 243 LINE",
"245 243 LINE",
"245 323 LINE",
"409 323 LINE",
"419 372 OFFCURVE",
"445 412 OFFCURVE",
"482 440 CURVE SMOOTH",
"519 467 OFFCURVE",
"567 482 OFFCURVE",
"619 482 CURVE SMOOTH",
"706 482 OFFCURVE",
"767 435 OFFCURVE",
"790 355 CURVE",
"790 471 LINE",
"904 471 LINE",
"904 419 LINE"
);
},
{
closed = 1;
nodes = (
"1212 344 OFFCURVE",
"1183 372 OFFCURVE",
"1183 412 CURVE SMOOTH",
"1183 452 OFFCURVE",
"1212 480 OFFCURVE",
"1250 480 CURVE SMOOTH",
"1290 480 OFFCURVE",
"1319 452 OFFCURVE",
"1319 412 CURVE SMOOTH",
"1319 372 OFFCURVE",
"1290 344 OFFCURVE",
"1250 344 CURVE SMOOTH"
);
},
{
closed = 1;
nodes = (
"681 325 LINE",
"684 365 OFFCURVE",
"652 399 OFFCURVE",
"608 399 CURVE SMOOTH",
"555 399 OFFCURVE",
"528 362 OFFCURVE",
"524 325 CURVE"
);
},
{
closed = 1;
nodes = (
"1191 86 LINE",
"1191 323 LINE",
"1310 323 LINE",
"1310 86 LINE"
);
}
);
width = 1332;
}
);
unicode = E20A;
},
{
glyphname = uniE20b;
lastChange = "2012-08-09 08:55:34 -0700";
layers = (
{
layerId = "8581214D-6E4F-46FC-B69F-48918E6333A9";
name = Regular;
paths = (
{
closed = 1;
nodes = (
"615 798 OFFCURVE",
"676 734 OFFCURVE",
"651 679 CURVE",
"636 624 OFFCURVE",
"554 609 OFFCURVE",
"521 655 CURVE",
"483 696 OFFCURVE",
"506 770 OFFCURVE",
"560 780 CURVE"
);
},
{
closed = 1;
nodes = (
"489 619 OFFCURVE",
"544 609 OFFCURVE",
"597 612 CURVE",
"642 610 OFFCURVE",
"695 619 OFFCURVE",
"733 586 CURVE SMOOTH",
"760 563 OFFCURVE",
"762 523 OFFCURVE",
"762 489 CURVE SMOOTH",
"762 415 OFFCURVE",
"762 342 OFFCURVE",
"762 266 CURVE",
"762 250 OFFCURVE",
"756 224 OFFCURVE",
"735 225 CURVE",
"711 218 OFFCURVE",
"696 246 OFFCURVE",
"696 266 CURVE",
"696 338 OFFCURVE",
"696 411 OFFCURVE",
"696 482 CURVE",
"691 482 OFFCURVE",
"679 482 OFFCURVE",
"672 482 CURVE",
"672 275 OFFCURVE",
"674 69 OFFCURVE",
"672 -138 CURVE",
"678 -187 OFFCURVE",
"591 -200 OFFCURVE",
"587 -147 CURVE",
"586 -25 OFFCURVE",
"587 100 OFFCURVE",
"586 225 CURVE",
"582 225 OFFCURVE",
"571 225 OFFCURVE",
"567 225 CURVE",
"567 117 OFFCURVE",
"565 8 OFFCURVE",
"567 -100 CURVE SMOOTH",
"567 -124 OFFCURVE",
"564 -147 OFFCURVE",
"555 -170 CURVE",
"527 -193 OFFCURVE",
"475 -181 OFFCURVE",
"476 -140 CURVE",
"475 67 OFFCURVE",
"477 273 OFFCURVE",
"476 480 CURVE",
"471 480 OFFCURVE",
"461 480 OFFCURVE",
"456 480 CURVE",
"456 412 OFFCURVE",
"458 344 OFFCURVE",
"456 275 CURVE SMOOTH",
"456 253 OFFCURVE",
"446 218 OFFCURVE",
"417 225 CURVE",
"400 224 OFFCURVE",
"390 242 OFFCURVE",
"391 257 CURVE",
"390 344 OFFCURVE",
"390 432 OFFCURVE",
"391 518 CURVE",
"390 552 OFFCURVE",
"406 586 OFFCURVE",
"437 600 CURVE SMOOTH"
);
}
);
width = 1132;
}
);
unicode = E20B;
},
{
glyphname = uniE20c;
lastChange = "2012-08-09 08:55:34 -0700";
layers = (
{
layerId = "8581214D-6E4F-46FC-B69F-48918E6333A9";
name = Regular;
paths = (
{
closed = 1;
nodes = (
"624 801 OFFCURVE",
"678 753 OFFCURVE",
"667 700 CURVE",
"662 632 OFFCURVE",
"561 611 OFFCURVE",
"525 666 CURVE",
"488 709 OFFCURVE",
"520 778 OFFCURVE",
"572 790 CURVE SMOOTH"
);
},
{
closed = 1;
nodes = (
"505 620 OFFCURVE",
"562 606 OFFCURVE",
"610 610 CURVE SMOOTH",
"651 611 OFFCURVE",
"699 606 OFFCURVE",
"723 569 CURVE SMOOTH",
"752 521 OFFCURVE",
"760 465 OFFCURVE",
"777 412 CURVE",
"789 368 OFFCURVE",
"813 323 OFFCURVE",
"802 276 CURVE",
"781 268 OFFCURVE",
"756 270 OFFCURVE",
"746 293 CURVE",
"723 356 OFFCURVE",
"707 420 OFFCURVE",
"684 484 CURVE",
"682 495 OFFCURVE",
"673 502 OFFCURVE",
"665 509 CURVE",
"695 383 OFFCURVE",
"737 259 OFFCURVE",
"771 134 CURVE",
"739 134 OFFCURVE",
"707 134 OFFCURVE",
"678 134 CURVE",
"674 45 OFFCURVE",
"678 -45 OFFCURVE",
"675 -134 CURVE",
"677 -155 OFFCURVE",
"663 -178 OFFCURVE",
"641 -177 CURVE",
"618 -179 OFFCURVE",
"602 -156 OFFCURVE",
"605 -136 CURVE",
"604 -45 OFFCURVE",
"605 45 OFFCURVE",
"604 134 CURVE",
"598 134 OFFCURVE",
"587 134 OFFCURVE",
"581 134 CURVE",
"580 40 OFFCURVE",
"584 -53 OFFCURVE",
"580 -146 CURVE SMOOTH",
"577 -188 OFFCURVE",
"515 -187 OFFCURVE",
"510 -146 CURVE",
"507 -53 OFFCURVE",
"510 41 OFFCURVE",
"509 134 CURVE",
"478 134 OFFCURVE",
"446 134 OFFCURVE",
"416 134 CURVE",
"445 257 OFFCURVE",
"479 379 OFFCURVE",
"509 502 CURVE",
"505 500 OFFCURVE",
"497 495 OFFCURVE",
"494 493 CURVE",
"470 428 OFFCURVE",
"457 358 OFFCURVE",
"434 292 CURVE",
"427 262 OFFCURVE",
"373 264 OFFCURVE",
"372 298 CURVE",
"377 348 OFFCURVE",
"398 396 OFFCURVE",
"410 445 CURVE",
"427 493 OFFCURVE",
"432 545 OFFCURVE",
"465 584 CURVE"
);
}
);
width = 1132;
}
);
unicode = E20C;
},
{
glyphname = uniE20d;
lastChange = "2012-08-09 08:55:34 -0700";
layers = (
{
layerId = "8581214D-6E4F-46FC-B69F-48918E6333A9";
name = Regular;
paths = (
{
closed = 1;
nodes = (
"333 619 OFFCURVE",
"407 568 OFFCURVE",
"397 500 CURVE",
"397 433 OFFCURVE",
"310 396 OFFCURVE",
"257 431 CURVE",
"193 464 OFFCURVE",
"198 576 OFFCURVE",
"271 597 CURVE"
);
},
{
closed = 1;
nodes = (
"279 398 OFFCURVE",
"331 398 OFFCURVE",
"383 400 CURVE",
"433 344 OFFCURVE",
"496 299 OFFCURVE",
"535 237 CURVE",
"534 227 OFFCURVE",
"528 206 OFFCURVE",
"527 195 CURVE",
"478 208 OFFCURVE",
"444 244 OFFCURVE",
"407 277 CURVE",
"407 261 OFFCURVE",
"406 232 OFFCURVE",
"404 216 CURVE",
"345 216 OFFCURVE",
"284 218 OFFCURVE",
"224 214 CURVE",
"219 228 OFFCURVE",
"207 258 OFFCURVE",
"200 272 CURVE",
"163 247 OFFCURVE",
"130 187 OFFCURVE",
"80 213 CURVE",
"80 223 OFFCURVE",
"80 242 OFFCURVE",
"82 253 CURVE",
"125 304 OFFCURVE",
"177 349 OFFCURVE",
"226 400 CURVE"
);
},
{
closed = 1;
nodes = (
"231 157 OFFCURVE",
"257 133 OFFCURVE",
"284 111 CURVE",
"269 90 OFFCURVE",
"253 71 OFFCURVE",
"236 50 CURVE",
"262 17 OFFCURVE",
"329 -61 OFFCURVE",
"248 -66 CURVE",
"207 -30 OFFCURVE",
"167 12 OFFCURVE",
"132 57 CURVE",
"125 111 OFFCURVE",
"175 143 OFFCURVE",
"205 180 CURVE"
);
},
{
closed = 1;
nodes = (
"357 135 OFFCURVE",
"383 156 OFFCURVE",
"406 178 CURVE",
"435 142 OFFCURVE",
"499 114 OFFCURVE",
"485 60 CURVE",
"449 10 OFFCURVE",
"406 -42 OFFCURVE",
"348 -64 CURVE",
"288 -37 OFFCURVE",
"354 17 OFFCURVE",
"374 50 CURVE",
"359 71 OFFCURVE",
"345 92 OFFCURVE",
"333 114 CURVE"
);
}
);
width = 600;
}
);
unicode = E20D;
},
{
glyphname = uniE20e;
lastChange = "2012-09-26 13:49:05 -0700";
layers = (
{
layerId = "8581214D-6E4F-46FC-B69F-48918E6333A9";
name = Regular;
paths = (
{
closed = 1;
nodes = (
"109 53 LINE SMOOTH",
"124 20 OFFCURVE",
"158 -1 OFFCURVE",
"196 -1 CURVE SMOOTH",
"1020 -1 LINE SMOOTH",
"1074 -1 OFFCURVE",
"1118 42 OFFCURVE",
"1118 97 CURVE SMOOTH",
"1118 484 LINE SMOOTH",
"1118 538 OFFCURVE",
"1074 582 OFFCURVE",
"1020 582 CURVE SMOOTH",
"196 582 LINE SMOOTH",
"158 582 OFFCURVE",
"124 562 OFFCURVE",
"109 528 CURVE SMOOTH",
"12 334 LINE SMOOTH",
"5 320 OFFCURVE",
"1 306 OFFCURVE",
"1 291 CURVE SMOOTH",
"1 276 OFFCURVE",
"5 260 OFFCURVE",
"12 247 CURVE SMOOTH"
);
},
{
closed = 1;
nodes = (
"55 270 LINE",
"52 277 OFFCURVE",
"49 284 OFFCURVE",
"49 291 CURVE SMOOTH",
"49 298 OFFCURVE",
"52 305 OFFCURVE",
"55 313 CURVE",
"151 505 LINE SMOOTH",
"159 523 OFFCURVE",
"177 532 OFFCURVE",
"196 532 CURVE SMOOTH",
"1020 532 LINE SMOOTH",
"1047 532 OFFCURVE",
"1069 511 OFFCURVE",
"1069 484 CURVE SMOOTH",
"1069 97 LINE SMOOTH",
"1069 69 OFFCURVE",
"1048 47 OFFCURVE",
"1020 47 CURVE SMOOTH",
"196 47 LINE SMOOTH",
"177 47 OFFCURVE",
"159 57 OFFCURVE",
"151 75 CURVE SMOOTH"
);
},
{
closed = 1;
nodes = (
"122 264 OFFCURVE",
"144 242 OFFCURVE",
"171 242 CURVE SMOOTH",
"197 242 OFFCURVE",
"219 264 OFFCURVE",
"219 290 CURVE SMOOTH",
"219 318 OFFCURVE",
"198 340 OFFCURVE",
"171 340 CURVE SMOOTH",
"144 340 OFFCURVE",
"122 318 OFFCURVE",
"122 290 CURVE SMOOTH"
);
},
{
closed = 1;
nodes = (
"147 304 OFFCURVE",
"158 315 OFFCURVE",
"171 315 CURVE SMOOTH",
"184 315 OFFCURVE",
"196 304 OFFCURVE",
"196 290 CURVE SMOOTH",
"196 277 OFFCURVE",
"184 267 OFFCURVE",
"171 267 CURVE SMOOTH",
"158 267 OFFCURVE",
"147 277 OFFCURVE",
"147 290 CURVE SMOOTH"
);
}
);
width = 1132;
}
);
unicode = E20E;
},
{
glyphname = uniE210;
lastChange = "2012-08-09 08:55:34 -0700";
layers = (
{
layerId = "8581214D-6E4F-46FC-B69F-48918E6333A9";
name = Regular;
paths = (
{
closed = 1;
nodes = (
"828 692 LINE",
"828 452 LINE",
"1037 452 LINE",
"1037 319 LINE",
"301 319 LINE",
"301 452 LINE",
"507 452 LINE",
"507 692 LINE",
"20 692 LINE",
"20 452 LINE",
"228 452 LINE",
"228 248 LINE",
"301 248 LINE",
"301 248 LINE",
"634 248 LINE",
"634 102 LINE",
"426 102 LINE",
"426 -136 LINE",
"913 -136 LINE",
"913 102 LINE",
"709 102 LINE",
"709 248 LINE",
"1037 248 LINE",
"1037 248 LINE",
"1108 248 LINE",
"1108 452 LINE",
"1315 452 LINE",
"1315 692 LINE"
);
}
);
width = 1332;
}
);
unicode = E210;
},
{
glyphname = uniE211a;
lastChange = "2012-08-09 08:55:34 -0700";
layers = (
{
layerId = "8581214D-6E4F-46FC-B69F-48918E6333A9";
name = Regular;
paths = (
{
closed = 1;
nodes = (
"1011 498 OFFCURVE",
"144 494 OFFCURVE",
"144 494 CURVE SMOOTH",
"83 492 OFFCURVE",
"33 443 OFFCURVE",
"33 382 CURVE SMOOTH",
"33 122 LINE SMOOTH",
"33 63 OFFCURVE",
"83 12 OFFCURVE",
"144 12 CURVE",
"144 12 OFFCURVE",
"1019 12 OFFCURVE",
"1052 12 CURVE SMOOTH",
"1083 12 OFFCURVE",
"1320 191 OFFCURVE",
"1320 251 CURVE SMOOTH",
"1320 310 OFFCURVE",
"1092 495 OFFCURVE",
"1052 497 CURVE SMOOTH"
);
},
{
closed = 1;
nodes = (
"314 137 LINE",
"233 255 LINE",
"233 137 LINE",
"171 137 LINE",
"171 352 LINE",
"232 352 LINE",
"314 233 LINE",
"314 352 LINE",
"375 352 LINE",
"375 137 LINE"
);
},
{
closed = 1;
nodes = (
"483 137 LINE",
"483 352 LINE",
"662 352 LINE",
"662 306 LINE",
"550 306 LINE",
"550 271 LINE",
"653 271 LINE",
"653 227 LINE",
"550 227 LINE",
"550 186 LINE",
"665 186 LINE",
"665 137 LINE"
);
},
{
closed = 1;
nodes = (
"929 137 LINE",
"890 271 LINE",
"854 137 LINE",
"787 137 LINE",
"741 352 LINE",
"804 352 LINE",
"827 231 LINE",
"860 352 LINE",
"922 352 LINE",
"956 231 LINE",
"979 352 LINE",
"1042 352 LINE",
"995 137 LINE"
);
},
{
closed = 1;
nodes = (
"1183 201 OFFCURVE",
"1159 225 OFFCURVE",
"1159 255 CURVE SMOOTH",
"1159 284 OFFCURVE",
"1183 309 OFFCURVE",
"1213 309 CURVE SMOOTH",
"1243 309 OFFCURVE",
"1266 284 OFFCURVE",
"1266 255 CURVE SMOOTH",
"1266 225 OFFCURVE",
"1243 201 OFFCURVE",
"1213 201 CURVE SMOOTH"
);
}
);
width = 1332;
}
);
unicode = E211A;
},
{
glyphname = uniE212;
lastChange = "2012-08-09 08:55:34 -0700";
layers = (
{
layerId = "8581214D-6E4F-46FC-B69F-48918E6333A9";
name = Regular;
paths = (
{
closed = 1;
nodes = (
"923 302 OFFCURVE",
"912 297 OFFCURVE",
"903 287 CURVE SMOOTH",
"895 277 OFFCURVE",
"892 260 OFFCURVE",
"892 237 CURVE SMOOTH",
"892 216 OFFCURVE",
"895 199 OFFCURVE",
"903 189 CURVE SMOOTH",
"912 179 OFFCURVE",
"923 174 OFFCURVE",
"938 174 CURVE SMOOTH",
"953 174 OFFCURVE",
"965 179 OFFCURVE",
"973 189 CURVE SMOOTH",
"981 198 OFFCURVE",
"986 216 OFFCURVE",
"986 241 CURVE SMOOTH",
"986 262 OFFCURVE",
"981 277 OFFCURVE",
"973 287 CURVE SMOOTH",
"965 297 OFFCURVE",
"953 302 OFFCURVE",
"938 302 CURVE SMOOTH"
);
},
{
closed = 1;
nodes = (
"370 305 LINE",
"370 256 LINE",
"387 256 LINE SMOOTH",
"400 256 OFFCURVE",
"410 257 OFFCURVE",
"415 262 CURVE SMOOTH",
"421 267 OFFCURVE",
"423 272 OFFCURVE",
"423 280 CURVE SMOOTH",
"423 287 OFFCURVE",
"421 294 OFFCURVE",
"416 299 CURVE SMOOTH",
"411 304 OFFCURVE",
"403 305 OFFCURVE",
"390 305 CURVE SMOOTH"
);
},
{
closed = 1;
nodes = (
"681 304 OFFCURVE",
"673 305 OFFCURVE",
"661 305 CURVE SMOOTH",
"630 305 LINE",
"630 260 LINE",
"660 260 LINE SMOOTH",
"663 260 OFFCURVE",
"668 260 OFFCURVE",
"678 262 CURVE SMOOTH",
"683 264 OFFCURVE",
"686 265 OFFCURVE",
"690 270 CURVE SMOOTH",
"693 274 OFFCURVE",
"693 279 OFFCURVE",
"693 284 CURVE SMOOTH",
"693 290 OFFCURVE",
"691 295 OFFCURVE",
"686 300 CURVE SMOOTH"
);
},
{
closed = 1;
nodes = (
"338 499 LINE SMOOTH",
"229 499 OFFCURVE",
"140 410 OFFCURVE",
"140 300 CURVE SMOOTH",
"140 189 LINE SMOOTH",
"140 80 OFFCURVE",
"229 -10 OFFCURVE",
"338 -10 CURVE SMOOTH",
"1009 -10 LINE SMOOTH",
"1119 -10 OFFCURVE",
"1208 80 OFFCURVE",
"1208 189 CURVE SMOOTH",
"1208 300 LINE SMOOTH",
"1208 410 OFFCURVE",
"1119 499 OFFCURVE",
"1009 499 CURVE SMOOTH"
);
},
{
closed = 1;
nodes = (
"458 216 OFFCURVE",
"436 209 OFFCURVE",
"408 209 CURVE SMOOTH",
"370 209 LINE",
"370 126 LINE",
"300 126 LINE",
"300 352 LINE",
"416 352 LINE SMOOTH",
"441 352 OFFCURVE",
"459 345 OFFCURVE",
"473 333 CURVE SMOOTH",
"484 322 OFFCURVE",
"491 304 OFFCURVE",
"491 282 CURVE SMOOTH",
"491 259 OFFCURVE",
"484 241 OFFCURVE",
"471 229 CURVE SMOOTH"
);
},
{
closed = 1;
nodes = (
"666 194 LINE SMOOTH",
"661 204 OFFCURVE",
"657 209 OFFCURVE",
"653 212 CURVE SMOOTH",
"648 216 OFFCURVE",
"643 217 OFFCURVE",
"637 217 CURVE SMOOTH",
"630 217 LINE",
"630 126 LINE",
"560 126 LINE",
"560 352 LINE",
"676 352 LINE SMOOTH",
"698 352 OFFCURVE",
"714 350 OFFCURVE",
"726 345 CURVE SMOOTH",
"738 342 OFFCURVE",
"746 335 OFFCURVE",
"753 325 CURVE SMOOTH",
"761 315 OFFCURVE",
"764 304 OFFCURVE",
"764 289 CURVE SMOOTH",
"764 275 OFFCURVE",
"761 265 OFFCURVE",
"756 256 CURVE SMOOTH",
"751 247 OFFCURVE",
"743 239 OFFCURVE",
"734 234 CURVE SMOOTH",
"728 231 OFFCURVE",
"719 227 OFFCURVE",
"710 226 CURVE",
"718 222 OFFCURVE",
"723 219 OFFCURVE",
"728 217 CURVE SMOOTH",
"729 216 OFFCURVE",
"733 211 OFFCURVE",
"738 204 CURVE SMOOTH",
"743 199 OFFCURVE",
"746 194 OFFCURVE",
"748 191 CURVE SMOOTH",
"782 126 LINE",
"703 126 LINE"
);
},
{
closed = 1;
nodes = (
"1033 158 OFFCURVE",
"1019 145 OFFCURVE",
"1003 136 CURVE SMOOTH",
"986 126 OFFCURVE",
"966 121 OFFCURVE",
"941 121 CURVE SMOOTH",
"915 121 OFFCURVE",
"893 126 OFFCURVE",
"877 135 CURVE SMOOTH",
"860 143 OFFCURVE",
"847 154 OFFCURVE",
"837 173 CURVE SMOOTH",
"827 189 OFFCURVE",
"822 212 OFFCURVE",
"822 239 CURVE SMOOTH",
"822 275 OFFCURVE",
"832 304 OFFCURVE",
"852 323 CURVE SMOOTH",
"874 345 OFFCURVE",
"902 355 OFFCURVE",
"938 355 CURVE SMOOTH",
"975 355 OFFCURVE",
"1004 345 OFFCURVE",
"1024 325 CURVE SMOOTH",
"1044 305 OFFCURVE",
"1056 277 OFFCURVE",
"1056 241 CURVE SMOOTH",
"1056 214 OFFCURVE",
"1051 193 OFFCURVE",
"1042 176 CURVE SMOOTH"
);
}
);
width = 1332;
}
);
unicode = E212;
},
{
glyphname = uniE213;
lastChange = "2012-08-09 08:55:34 -0700";
layers = (
{
layerId = "8581214D-6E4F-46FC-B69F-48918E6333A9";
name = Regular;
paths = (
{
closed = 1;
nodes = (
"303 287 LINE",
"303 235 LINE",
"320 235 LINE SMOOTH",
"334 235 OFFCURVE",
"344 237 OFFCURVE",
"349 242 CURVE SMOOTH",
"355 247 OFFCURVE",
"358 254 OFFCURVE",
"358 261 CURVE SMOOTH",
"358 268 OFFCURVE",
"356 275 OFFCURVE",
"351 280 CURVE SMOOTH",
"346 285 OFFCURVE",
"336 287 OFFCURVE",
"324 287 CURVE SMOOTH"
);
},
{
closed = 1;
nodes = (
"296 496 LINE SMOOTH",
"182 496 OFFCURVE",
"88 403 OFFCURVE",
"88 289 CURVE SMOOTH",
"88 173 LINE SMOOTH",
"88 59 OFFCURVE",
"182 -35 OFFCURVE",
"296 -35 CURVE SMOOTH",
"995 -35 LINE SMOOTH",
"1109 -35 OFFCURVE",
"1202 59 OFFCURVE",
"1202 173 CURVE SMOOTH",
"1202 289 LINE SMOOTH",
"1202 403 OFFCURVE",
"1109 496 OFFCURVE",
"995 496 CURVE SMOOTH"
);
},
{
closed = 1;
nodes = (
"393 194 OFFCURVE",
"372 187 OFFCURVE",
"343 187 CURVE SMOOTH",
"303 187 LINE",
"303 100 LINE",
"228 100 LINE",
"228 336 LINE",
"349 336 LINE SMOOTH",
"377 336 OFFCURVE",
"396 329 OFFCURVE",
"408 317 CURVE SMOOTH",
"422 304 OFFCURVE",
"429 285 OFFCURVE",
"429 263 CURVE SMOOTH",
"429 239 OFFCURVE",
"422 221 OFFCURVE",
"407 208 CURVE SMOOTH"
);
},
{
closed = 1;
nodes = (
"450 100 LINE",
"450 336 LINE",
"522 336 LINE",
"522 157 LINE",
"637 157 LINE",
"637 100 LINE"
);
},
{
closed = 1;
nodes = (
"870 182 OFFCURVE",
"869 168 OFFCURVE",
"863 156 CURVE SMOOTH",
"860 144 OFFCURVE",
"853 133 OFFCURVE",
"844 123 CURVE SMOOTH",
"834 114 OFFCURVE",
"825 107 OFFCURVE",
"815 104 CURVE SMOOTH",
"801 99 OFFCURVE",
"784 95 OFFCURVE",
"763 95 CURVE SMOOTH",
"753 95 OFFCURVE",
"740 97 OFFCURVE",
"727 99 CURVE SMOOTH",
"713 100 OFFCURVE",
"701 104 OFFCURVE",
"692 107 CURVE SMOOTH",
"683 112 OFFCURVE",
"675 119 OFFCURVE",
"668 128 CURVE SMOOTH",
"659 137 OFFCURVE",
"654 145 OFFCURVE",
"652 156 CURVE SMOOTH",
"647 169 OFFCURVE",
"645 183 OFFCURVE",
"645 195 CURVE SMOOTH",
"645 336 LINE",
"718 336 LINE",
"718 192 LINE SMOOTH",
"718 178 OFFCURVE",
"721 169 OFFCURVE",
"728 161 CURVE SMOOTH",
"735 154 OFFCURVE",
"746 150 OFFCURVE",
"758 150 CURVE SMOOTH",
"770 150 OFFCURVE",
"780 154 OFFCURVE",
"787 161 CURVE SMOOTH",
"794 169 OFFCURVE",
"798 178 OFFCURVE",
"798 192 CURVE SMOOTH",
"798 336 LINE",
"870 336 LINE",
"870 195 LINE SMOOTH"
);
},
{
closed = 1;
nodes = (
"1083 123 OFFCURVE",
"1071 112 OFFCURVE",
"1055 105 CURVE SMOOTH",
"1042 99 OFFCURVE",
"1023 95 OFFCURVE",
"998 95 CURVE SMOOTH",
"958 95 OFFCURVE",
"931 104 OFFCURVE",
"915 119 CURVE SMOOTH",
"900 135 OFFCURVE",
"891 154 OFFCURVE",
"889 178 CURVE",
"958 182 LINE",
"960 171 OFFCURVE",
"964 163 OFFCURVE",
"969 156 CURVE SMOOTH",
"976 147 OFFCURVE",
"986 142 OFFCURVE",
"1000 142 CURVE SMOOTH",
"1010 142 OFFCURVE",
"1019 145 OFFCURVE",
"1024 149 CURVE SMOOTH",
"1029 154 OFFCURVE",
"1033 161 OFFCURVE",
"1033 166 CURVE SMOOTH",
"1033 173 OFFCURVE",
"1029 178 OFFCURVE",
"1024 183 CURVE SMOOTH",
"1019 187 OFFCURVE",
"1007 192 OFFCURVE",
"988 197 CURVE SMOOTH",
"955 204 OFFCURVE",
"933 213 OFFCURVE",
"919 225 CURVE SMOOTH",
"905 237 OFFCURVE",
"898 253 OFFCURVE",
"898 270 CURVE SMOOTH",
"898 282 OFFCURVE",
"901 294 OFFCURVE",
"908 304 CURVE SMOOTH",
"915 315 OFFCURVE",
"927 323 OFFCURVE",
"941 330 CURVE SMOOTH",
"955 336 OFFCURVE",
"974 339 OFFCURVE",
"998 339 CURVE SMOOTH",
"1029 339 OFFCURVE",
"1052 334 OFFCURVE",
"1067 322 CURVE SMOOTH",
"1083 311 OFFCURVE",
"1092 294 OFFCURVE",
"1095 270 CURVE",
"1028 265 LINE",
"1026 275 OFFCURVE",
"1021 284 OFFCURVE",
"1016 289 CURVE SMOOTH",
"1010 292 OFFCURVE",
"1002 296 OFFCURVE",
"991 296 CURVE SMOOTH",
"983 296 OFFCURVE",
"976 294 OFFCURVE",
"972 291 CURVE SMOOTH",
"967 287 OFFCURVE",
"965 282 OFFCURVE",
"965 277 CURVE SMOOTH",
"965 273 OFFCURVE",
"967 270 OFFCURVE",
"971 266 CURVE SMOOTH",
"974 265 OFFCURVE",
"983 261 OFFCURVE",
"995 258 CURVE SMOOTH",
"1028 251 OFFCURVE",
"1050 244 OFFCURVE",
"1064 237 CURVE SMOOTH",
"1078 230 OFFCURVE",
"1088 221 OFFCURVE",
"1093 211 CURVE SMOOTH",
"1100 201 OFFCURVE",
"1104 190 OFFCURVE",
"1104 176 CURVE SMOOTH",
"1104 161 OFFCURVE",
"1099 147 OFFCURVE",
"1090 135 CURVE SMOOTH"
);
}
);
width = 1332;
}
);
unicode = E213;
},
{
glyphname = uniE214;
lastChange = "2012-08-09 08:55:34 -0700";
layers = (
{
layerId = "8581214D-6E4F-46FC-B69F-48918E6333A9";
name = Regular;
paths = (
{
closed = 1;
nodes = (
"159 531 LINE SMOOTH",
"93 531 OFFCURVE",
"39 477 OFFCURVE",
"39 411 CURVE SMOOTH",
"39 121 LINE SMOOTH",
"39 55 OFFCURVE",
"93 1 OFFCURVE",
"159 1 CURVE SMOOTH",
"449 1 LINE SMOOTH",
"515 1 OFFCURVE",
"569 55 OFFCURVE",
"569 121 CURVE SMOOTH",
"569 411 LINE SMOOTH",
"569 477 OFFCURVE",
"515 531 OFFCURVE",
"449 531 CURVE SMOOTH"
);
},
{
closed = 1;
nodes = (
"427 143 OFFCURVE",
"403 131 OFFCURVE",
"382 124 CURVE SMOOTH",
"362 117 OFFCURVE",
"337 114 OFFCURVE",
"309 114 CURVE SMOOTH",
"274 114 OFFCURVE",
"246 120 OFFCURVE",
"224 132 CURVE SMOOTH",
"202 144 OFFCURVE",
"185 162 OFFCURVE",
"173 185 CURVE SMOOTH",
"161 208 OFFCURVE",
"155 235 OFFCURVE",
"155 266 CURVE SMOOTH",
"155 298 OFFCURVE",
"161 326 OFFCURVE",
"175 349 CURVE SMOOTH",
"188 373 OFFCURVE",
"207 391 OFFCURVE",
"233 403 CURVE SMOOTH",
"253 413 OFFCURVE",
"279 418 OFFCURVE",
"313 418 CURVE SMOOTH",
"345 418 OFFCURVE",
"370 415 OFFCURVE",
"386 409 CURVE SMOOTH",
"402 403 OFFCURVE",
"415 394 OFFCURVE",
"426 381 CURVE SMOOTH",
"436 369 OFFCURVE",
"444 353 OFFCURVE",
"450 335 CURVE",
"362 319 LINE",
"359 330 OFFCURVE",
"352 338 OFFCURVE",
"344 344 CURVE SMOOTH",
"335 350 OFFCURVE",
"324 353 OFFCURVE",
"311 353 CURVE SMOOTH",
"291 353 OFFCURVE",
"275 346 OFFCURVE",
"263 332 CURVE SMOOTH",
"252 319 OFFCURVE",
"246 297 OFFCURVE",
"246 267 CURVE SMOOTH",
"246 235 OFFCURVE",
"252 212 OFFCURVE",
"264 199 CURVE SMOOTH",
"275 185 OFFCURVE",
"292 178 OFFCURVE",
"314 178 CURVE SMOOTH",
"324 178 OFFCURVE",
"333 180 OFFCURVE",
"343 183 CURVE SMOOTH",
"352 186 OFFCURVE",
"362 191 OFFCURVE",
"374 198 CURVE",
"374 225 LINE",
"314 225 LINE",
"314 287 LINE",
"454 287 LINE",
"454 161 LINE"
);
}
);
width = 600;
}
);
unicode = E214;
},
{
glyphname = uniE215;
lastChange = "2012-08-09 08:55:34 -0700";
layers = (
{
layerId = "8581214D-6E4F-46FC-B69F-48918E6333A9";
name = Regular;
paths = (
{
closed = 1;
nodes = (
"158 531 LINE SMOOTH",
"92 531 OFFCURVE",
"38 477 OFFCURVE",
"38 411 CURVE SMOOTH",
"38 121 LINE SMOOTH",
"38 55 OFFCURVE",
"92 1 OFFCURVE",
"158 1 CURVE SMOOTH",
"448 1 LINE SMOOTH",
"514 1 OFFCURVE",
"568 55 OFFCURVE",
"568 121 CURVE SMOOTH",
"568 411 LINE SMOOTH",
"568 477 OFFCURVE",
"514 531 OFFCURVE",
"448 531 CURVE SMOOTH"
);
},
{
closed = 1;
nodes = (
"409 144 OFFCURVE",
"395 133 OFFCURVE",
"378 126 CURVE SMOOTH",
"361 118 OFFCURVE",
"339 114 OFFCURVE",
"313 114 CURVE SMOOTH",
"281 114 OFFCURVE",
"255 119 OFFCURVE",
"235 128 CURVE SMOOTH",
"215 137 OFFCURVE",
"197 154 OFFCURVE",
"183 177 CURVE SMOOTH",
"168 200 OFFCURVE",
"160 230 OFFCURVE",
"160 267 CURVE SMOOTH",
"160 315 OFFCURVE",
"173 352 OFFCURVE",
"199 379 CURVE SMOOTH",
"225 405 OFFCURVE",
"262 418 OFFCURVE",
"309 418 CURVE SMOOTH",
"346 418 OFFCURVE",
"375 410 OFFCURVE",
"396 395 CURVE SMOOTH",
"417 380 OFFCURVE",
"433 357 OFFCURVE",
"443 326 CURVE",
"363 309 LINE",
"360 317 OFFCURVE",
"357 324 OFFCURVE",
"354 328 CURVE SMOOTH",
"349 335 OFFCURVE",
"343 340 OFFCURVE",
"336 344 CURVE SMOOTH",
"328 348 OFFCURVE",
"320 350 OFFCURVE",
"311 350 CURVE SMOOTH",
"290 350 OFFCURVE",
"275 341 OFFCURVE",
"264 325 CURVE SMOOTH",
"256 313 OFFCURVE",
"251 293 OFFCURVE",
"251 267 CURVE SMOOTH",
"251 235 OFFCURVE",
"256 212 OFFCURVE",
"266 200 CURVE SMOOTH",
"276 188 OFFCURVE",
"290 182 OFFCURVE",
"308 182 CURVE SMOOTH",
"325 182 OFFCURVE",
"338 187 OFFCURVE",
"347 197 CURVE SMOOTH",
"356 207 OFFCURVE",
"362 221 OFFCURVE",
"366 239 CURVE",
"446 215 LINE",
"441 193 OFFCURVE",
"432 174 OFFCURVE",
"421 159 CURVE SMOOTH"
);
}
);
width = 600;
}
);
unicode = E215;
},
{
glyphname = uniE216;
lastChange = "2012-08-09 08:55:34 -0700";
layers = (
{
layerId = "8581214D-6E4F-46FC-B69F-48918E6333A9";
name = Regular;
paths = (
{
closed = 1;
nodes = (
"590 -52 OFFCURVE",
"580 -65 OFFCURVE",
"567 -74 CURVE SMOOTH",
"555 -86 OFFCURVE",
"541 -92 OFFCURVE",
"526 -97 CURVE SMOOTH",
"508 -101 OFFCURVE",
"488 -103 OFFCURVE",
"470 -101 CURVE SMOOTH",
"451 -99 OFFCURVE",
"433 -95 OFFCURVE",
"416 -90 CURVE",
"399 -86 OFFCURVE",
"381 -81 OFFCURVE",
"367 -74 CURVE SMOOTH",
"351 -68 OFFCURVE",
"336 -58 OFFCURVE",
"322 -49 CURVE SMOOTH",
"311 -41 OFFCURVE",
"299 -32 OFFCURVE",
"289 -23 CURVE SMOOTH",
"280 -13 OFFCURVE",
"269 -5 OFFCURVE",
"258 4 CURVE SMOOTH",
"251 10 OFFCURVE",
"243 15 OFFCURVE",
"235 19 CURVE SMOOTH",
"227 24 OFFCURVE",
"218 29 OFFCURVE",
"211 33 CURVE",
"204 27 OFFCURVE",
"196 19 OFFCURVE",
"189 13 CURVE SMOOTH",
"182 6 OFFCURVE",
"173 0 OFFCURVE",
"166 -7 CURVE SMOOTH",
"153 -16 OFFCURVE",
"137 -25 OFFCURVE",
"119 -32 CURVE SMOOTH",
"101 -41 OFFCURVE",
"84 -43 OFFCURVE",
"67 -42 CURVE SMOOTH",
"57 -41 OFFCURVE",
"49 -37 OFFCURVE",
"43 -34 CURVE SMOOTH",
"36 -29 OFFCURVE",
"32 -25 OFFCURVE",
"28 -18 CURVE SMOOTH",
"25 -12 OFFCURVE",
"23 -5 OFFCURVE",
"23 4 CURVE SMOOTH",
"25 10 OFFCURVE",
"26 18 OFFCURVE",
"32 26 CURVE",
"38 33 OFFCURVE",
"43 39 OFFCURVE",
"50 44 CURVE SMOOTH",
"57 48 OFFCURVE",
"66 53 OFFCURVE",
"73 56 CURVE SMOOTH",
"81 60 OFFCURVE",
"90 62 OFFCURVE",
"99 64 CURVE SMOOTH",
"107 68 OFFCURVE",
"115 69 OFFCURVE",
"125 69 CURVE SMOOTH",
"151 74 OFFCURVE",
"177 74 OFFCURVE",
"204 69 CURVE",
"214 87 OFFCURVE",
"224 107 OFFCURVE",
"231 126 CURVE SMOOTH",
"240 145 OFFCURVE",
"246 165 OFFCURVE",
"253 184 CURVE SMOOTH",
"260 205 OFFCURVE",
"267 225 OFFCURVE",
"273 245 CURVE SMOOTH",
"280 266 OFFCURVE",
"288 285 OFFCURVE",
"294 306 CURVE SMOOTH",
"299 326 OFFCURVE",
"307 348 OFFCURVE",
"316 371 CURVE SMOOTH",
"325 393 OFFCURVE",
"336 417 OFFCURVE",
"349 439 CURVE SMOOTH",
"363 462 OFFCURVE",
"375 482 OFFCURVE",
"392 502 CURVE SMOOTH",
"407 521 OFFCURVE",
"425 536 OFFCURVE",
"445 549 CURVE SMOOTH",
"464 560 OFFCURVE",
"485 568 OFFCURVE",
"508 571 CURVE SMOOTH",
"530 574 OFFCURVE",
"555 571 OFFCURVE",
"579 560 CURVE",
"586 558 OFFCURVE",
"593 555 OFFCURVE",
"600 552 CURVE SMOOTH",
"606 549 OFFCURVE",
"613 545 OFFCURVE",
"617 540 CURVE",
"619 538 OFFCURVE",
"620 536 OFFCURVE",
"620 534 CURVE SMOOTH",
"620 533 OFFCURVE",
"619 529 OFFCURVE",
"619 527 CURVE SMOOTH",
"617 526 OFFCURVE",
"615 526 OFFCURVE",
"614 526 CURVE SMOOTH",
"613 524 OFFCURVE",
"611 526 OFFCURVE",
"609 527 CURVE",
"604 531 OFFCURVE",
"601 533 OFFCURVE",
"598 536 CURVE SMOOTH",
"595 539 OFFCURVE",
"590 540 OFFCURVE",
"586 544 CURVE",
"579 547 OFFCURVE",
"569 551 OFFCURVE",
"561 553 CURVE SMOOTH",
"551 556 OFFCURVE",
"543 556 OFFCURVE",
"533 556 CURVE SMOOTH",
"515 558 OFFCURVE",
"497 555 OFFCURVE",
"483 547 CURVE SMOOTH",
"468 539 OFFCURVE",
"456 529 OFFCURVE",
"445 518 CURVE SMOOTH",
"432 505 OFFCURVE",
"422 492 OFFCURVE",
"412 476 CURVE SMOOTH",
"404 462 OFFCURVE",
"396 447 OFFCURVE",
"390 431 CURVE SMOOTH",
"378 404 OFFCURVE",
"369 376 OFFCURVE",
"361 347 CURVE SMOOTH",
"352 318 OFFCURVE",
"345 289 OFFCURVE",
"336 260 CURVE SMOOTH",
"325 225 OFFCURVE",
"312 194 OFFCURVE",
"298 161 CURVE SMOOTH",
"282 129 OFFCURVE",
"264 98 OFFCURVE",
"241 71 CURVE SMOOTH",
"235 62 LINE",
"253 58 OFFCURVE",
"269 53 OFFCURVE",
"285 45 CURVE SMOOTH",
"299 39 OFFCURVE",
"314 29 OFFCURVE",
"329 19 CURVE SMOOTH",
"341 10 OFFCURVE",
"352 -2 OFFCURVE",
"365 -13 CURVE SMOOTH",
"377 -25 OFFCURVE",
"390 -36 OFFCURVE",
"403 -45 CURVE SMOOTH",
"416 -56 OFFCURVE",
"428 -65 OFFCURVE",
"441 -72 CURVE SMOOTH",
"456 -81 OFFCURVE",
"472 -86 OFFCURVE",
"488 -87 CURVE SMOOTH",
"501 -89 OFFCURVE",
"515 -87 OFFCURVE",
"528 -84 CURVE SMOOTH",
"541 -81 OFFCURVE",
"555 -74 OFFCURVE",
"564 -65 CURVE",
"573 -55 OFFCURVE",
"580 -43 OFFCURVE",
"585 -32 CURVE",
"586 -27 OFFCURVE",
"590 -26 OFFCURVE",
"595 -27 CURVE SMOOTH",
"600 -29 OFFCURVE",
"601 -32 OFFCURVE",
"598 -37 CURVE SMOOTH"
);
},
{
closed = 1;
nodes = (
"59 33 OFFCURVE",
"54 29 OFFCURVE",
"49 24 CURVE SMOOTH",
"44 18 OFFCURVE",
"41 11 OFFCURVE",
"39 4 CURVE SMOOTH",
"38 -2 OFFCURVE",
"38 -7 OFFCURVE",
"41 -13 CURVE SMOOTH",
"43 -18 OFFCURVE",
"49 -23 OFFCURVE",
"59 -26 CURVE SMOOTH",
"67 -29 OFFCURVE",
"75 -31 OFFCURVE",
"83 -29 CURVE SMOOTH",
"91 -29 OFFCURVE",
"99 -26 OFFCURVE",
"107 -25 CURVE SMOOTH",
"113 -21 OFFCURVE",
"122 -16 OFFCURVE",
"128 -13 CURVE SMOOTH",
"137 -8 OFFCURVE",
"142 -3 OFFCURVE",
"148 2 CURVE SMOOTH",
"162 15 OFFCURVE",
"175 29 OFFCURVE",
"186 45 CURVE",
"167 53 OFFCURVE",
"146 56 OFFCURVE",
"125 56 CURVE SMOOTH",
"104 56 OFFCURVE",
"84 51 OFFCURVE",
"66 39 CURVE SMOOTH"
);
},
{
closed = 1;
nodes = (
"816 160 OFFCURVE",
"808 145 OFFCURVE",
"800 131 CURVE SMOOTH",
"793 118 OFFCURVE",
"783 105 OFFCURVE",
"774 92 CURVE SMOOTH",
"764 79 OFFCURVE",
"753 68 OFFCURVE",
"742 56 CURVE SMOOTH",
"729 47 OFFCURVE",
"716 37 OFFCURVE",
"701 31 CURVE SMOOTH",
"687 22 OFFCURVE",
"672 18 OFFCURVE",
"658 15 CURVE SMOOTH",
"642 11 OFFCURVE",
"627 10 OFFCURVE",
"611 10 CURVE SMOOTH",
"595 10 OFFCURVE",
"580 15 OFFCURVE",
"569 24 CURVE SMOOTH",
"555 33 OFFCURVE",
"546 45 OFFCURVE",
"538 60 CURVE SMOOTH",
"530 76 OFFCURVE",
"526 92 OFFCURVE",
"522 109 CURVE SMOOTH",
"520 127 OFFCURVE",
"520 145 OFFCURVE",
"522 163 CURVE SMOOTH",
"524 182 OFFCURVE",
"528 200 OFFCURVE",
"535 218 CURVE SMOOTH",
"540 234 OFFCURVE",
"546 250 OFFCURVE",
"555 266 CURVE SMOOTH",
"562 279 OFFCURVE",
"570 292 OFFCURVE",
"582 305 CURVE SMOOTH",
"591 318 OFFCURVE",
"602 330 OFFCURVE",
"615 341 CURVE SMOOTH",
"629 352 OFFCURVE",
"643 359 OFFCURVE",
"658 366 CURVE SMOOTH",
"672 373 OFFCURVE",
"689 376 OFFCURVE",
"704 376 CURVE SMOOTH",
"720 376 OFFCURVE",
"734 371 OFFCURVE",
"745 363 CURVE SMOOTH",
"754 355 OFFCURVE",
"764 345 OFFCURVE",
"771 334 CURVE SMOOTH",
"777 323 OFFCURVE",
"780 308 OFFCURVE",
"782 295 CURVE SMOOTH",
"783 281 OFFCURVE",
"782 266 OFFCURVE",
"778 254 CURVE SMOOTH",
"774 241 OFFCURVE",
"769 227 OFFCURVE",
"761 214 CURVE SMOOTH",
"754 200 OFFCURVE",
"747 189 OFFCURVE",
"735 179 CURVE SMOOTH",
"725 169 OFFCURVE",
"714 160 OFFCURVE",
"701 153 CURVE SMOOTH",
"689 147 OFFCURVE",
"675 143 OFFCURVE",
"660 142 CURVE SMOOTH",
"644 142 OFFCURVE",
"631 143 OFFCURVE",
"619 150 CURVE SMOOTH",
"604 155 OFFCURVE",
"595 165 OFFCURVE",
"586 176 CURVE",
"582 161 OFFCURVE",
"580 149 OFFCURVE",
"577 136 CURVE SMOOTH",
"575 121 OFFCURVE",
"573 108 OFFCURVE",
"573 93 CURVE SMOOTH",
"573 85 OFFCURVE",
"573 79 OFFCURVE",
"573 71 CURVE SMOOTH",
"575 64 OFFCURVE",
"577 56 OFFCURVE",
"580 50 CURVE SMOOTH",
"584 44 OFFCURVE",
"588 39 OFFCURVE",
"593 33 CURVE SMOOTH",
"598 29 OFFCURVE",
"604 26 OFFCURVE",
"613 24 CURVE SMOOTH",
"629 21 OFFCURVE",
"644 21 OFFCURVE",
"660 26 CURVE SMOOTH",
"675 29 OFFCURVE",
"689 35 OFFCURVE",
"704 45 CURVE SMOOTH",
"718 55 OFFCURVE",
"732 64 OFFCURVE",
"743 78 CURVE SMOOTH",
"756 89 OFFCURVE",
"765 102 OFFCURVE",
"774 114 CURVE SMOOTH",
"780 124 OFFCURVE",
"787 134 OFFCURVE",
"792 143 CURVE SMOOTH",
"796 155 OFFCURVE",
"801 165 OFFCURVE",
"806 176 CURVE",
"808 179 OFFCURVE",
"809 182 OFFCURVE",
"812 187 CURVE SMOOTH",
"816 190 OFFCURVE",
"819 192 OFFCURVE",
"823 189 CURVE",
"827 189 OFFCURVE",
"827 187 OFFCURVE",
"827 184 CURVE SMOOTH",
"825 181 OFFCURVE",
"823 178 OFFCURVE",
"823 174 CURVE SMOOTH"
);
},
{
closed = 1;
nodes = (
"666 169 OFFCURVE",
"678 176 OFFCURVE",
"691 187 CURVE SMOOTH",
"703 198 OFFCURVE",
"712 211 OFFCURVE",
"720 225 CURVE SMOOTH",
"724 232 OFFCURVE",
"727 241 OFFCURVE",
"730 247 CURVE SMOOTH",
"734 255 OFFCURVE",
"736 261 OFFCURVE",
"740 270 CURVE SMOOTH",
"742 277 OFFCURVE",
"745 285 OFFCURVE",
"748 294 CURVE SMOOTH",
"749 303 OFFCURVE",
"751 312 OFFCURVE",
"751 319 CURVE SMOOTH",
"751 332 OFFCURVE",
"748 342 OFFCURVE",
"740 350 CURVE SMOOTH",
"730 359 OFFCURVE",
"720 361 OFFCURVE",
"707 359 CURVE",
"700 359 OFFCURVE",
"691 357 OFFCURVE",
"685 352 CURVE SMOOTH",
"678 348 OFFCURVE",
"672 344 OFFCURVE",
"667 337 CURVE SMOOTH",
"660 330 OFFCURVE",
"656 324 OFFCURVE",
"651 318 CURVE SMOOTH",
"648 310 OFFCURVE",
"643 303 OFFCURVE",
"640 299 CURVE SMOOTH",
"622 268 OFFCURVE",
"608 236 OFFCURVE",
"595 202 CURVE",
"593 198 LINE",
"598 187 OFFCURVE",
"604 179 OFFCURVE",
"615 172 CURVE SMOOTH",
"625 167 OFFCURVE",
"637 165 OFFCURVE",
"648 167 CURVE SMOOTH"
);
},
{
closed = 1;
nodes = (
"1100 160 OFFCURVE",
"1091 145 OFFCURVE",
"1084 131 CURVE SMOOTH",
"1075 118 OFFCURVE",
"1067 105 OFFCURVE",
"1058 92 CURVE SMOOTH",
"1048 79 OFFCURVE",
"1037 68 OFFCURVE",
"1024 56 CURVE SMOOTH",
"1013 47 OFFCURVE",
"1000 37 OFFCURVE",
"986 31 CURVE SMOOTH",
"971 22 OFFCURVE",
"956 18 OFFCURVE",
"940 15 CURVE SMOOTH",
"926 11 OFFCURVE",
"910 10 OFFCURVE",
"895 10 CURVE SMOOTH",
"877 10 OFFCURVE",
"864 15 OFFCURVE",
"852 24 CURVE SMOOTH",
"840 33 OFFCURVE",
"830 45 OFFCURVE",
"823 60 CURVE SMOOTH",
"814 76 OFFCURVE",
"808 92 OFFCURVE",
"806 109 CURVE SMOOTH",
"803 127 OFFCURVE",
"803 145 OFFCURVE",
"806 163 CURVE SMOOTH",
"808 182 OFFCURVE",
"811 200 OFFCURVE",
"817 218 CURVE SMOOTH",
"823 234 OFFCURVE",
"830 250 OFFCURVE",
"838 266 CURVE SMOOTH",
"846 279 OFFCURVE",
"854 292 OFFCURVE",
"864 305 CURVE SMOOTH",
"875 318 OFFCURVE",
"887 330 OFFCURVE",
"899 341 CURVE SMOOTH",
"912 352 OFFCURVE",
"926 359 OFFCURVE",
"941 366 CURVE SMOOTH",
"956 373 OFFCURVE",
"972 376 OFFCURVE",
"988 376 CURVE SMOOTH",
"1003 376 OFFCURVE",
"1015 371 OFFCURVE",
"1027 363 CURVE SMOOTH",
"1038 355 OFFCURVE",
"1046 345 OFFCURVE",
"1053 334 CURVE SMOOTH",
"1060 323 OFFCURVE",
"1062 308 OFFCURVE",
"1064 295 CURVE SMOOTH",
"1066 281 OFFCURVE",
"1066 266 OFFCURVE",
"1061 254 CURVE SMOOTH",
"1058 241 OFFCURVE",
"1051 227 OFFCURVE",
"1045 214 CURVE SMOOTH",
"1038 200 OFFCURVE",
"1029 189 OFFCURVE",
"1019 179 CURVE SMOOTH",
"1008 169 OFFCURVE",
"997 160 OFFCURVE",
"986 153 CURVE SMOOTH",
"972 147 OFFCURVE",
"957 143 OFFCURVE",
"943 142 CURVE SMOOTH",
"928 142 OFFCURVE",
"914 143 OFFCURVE",
"901 150 CURVE SMOOTH",
"888 155 OFFCURVE",
"877 165 OFFCURVE",
"869 176 CURVE",
"866 161 OFFCURVE",
"863 149 OFFCURVE",
"861 136 CURVE SMOOTH",
"858 121 OFFCURVE",
"856 108 OFFCURVE",
"856 93 CURVE SMOOTH",
"856 85 OFFCURVE",
"856 79 OFFCURVE",
"858 71 CURVE SMOOTH",
"859 64 OFFCURVE",
"861 56 OFFCURVE",
"864 50 CURVE SMOOTH",
"867 44 OFFCURVE",
"870 39 OFFCURVE",
"875 33 CURVE SMOOTH",
"881 29 OFFCURVE",
"888 26 OFFCURVE",
"895 24 CURVE SMOOTH",
"911 21 OFFCURVE",
"927 21 OFFCURVE",
"943 26 CURVE SMOOTH",
"959 29 OFFCURVE",
"974 35 OFFCURVE",
"988 45 CURVE SMOOTH",
"1001 55 OFFCURVE",
"1015 64 OFFCURVE",
"1027 78 CURVE SMOOTH",
"1038 89 OFFCURVE",
"1048 102 OFFCURVE",
"1058 114 CURVE SMOOTH",
"1064 124 OFFCURVE",
"1069 134 OFFCURVE",
"1075 143 CURVE SMOOTH",
"1080 155 OFFCURVE",
"1085 165 OFFCURVE",
"1090 176 CURVE",
"1091 179 OFFCURVE",
"1093 182 OFFCURVE",
"1096 187 CURVE SMOOTH",
"1098 190 OFFCURVE",
"1103 192 OFFCURVE",
"1108 189 CURVE",
"1111 189 OFFCURVE",
"1111 187 OFFCURVE",
"1109 184 CURVE SMOOTH",
"1109 181 OFFCURVE",
"1108 178 OFFCURVE",
"1106 174 CURVE SMOOTH"
);
},
{
closed = 1;
nodes = (
"948 169 OFFCURVE",
"963 176 OFFCURVE",
"974 187 CURVE SMOOTH",
"986 198 OFFCURVE",
"997 211 OFFCURVE",
"1003 225 CURVE SMOOTH",
"1008 232 OFFCURVE",
"1011 241 OFFCURVE",
"1015 247 CURVE SMOOTH",
"1017 255 OFFCURVE",
"1021 261 OFFCURVE",
"1022 270 CURVE SMOOTH",
"1026 277 OFFCURVE",
"1029 285 OFFCURVE",
"1030 294 CURVE SMOOTH",
"1033 303 OFFCURVE",
"1035 312 OFFCURVE",
"1035 319 CURVE SMOOTH",
"1035 332 OFFCURVE",
"1030 342 OFFCURVE",
"1022 350 CURVE SMOOTH",
"1015 359 OFFCURVE",
"1003 361 OFFCURVE",
"990 359 CURVE",
"982 359 OFFCURVE",
"975 357 OFFCURVE",
"969 352 CURVE SMOOTH",
"963 348 OFFCURVE",
"956 344 OFFCURVE",
"950 337 CURVE SMOOTH",
"945 330 OFFCURVE",
"940 324 OFFCURVE",
"935 318 CURVE SMOOTH",
"930 310 OFFCURVE",
"927 303 OFFCURVE",
"922 299 CURVE SMOOTH",
"904 268 OFFCURVE",
"890 236 OFFCURVE",
"879 202 CURVE",
"877 198 LINE",
"881 187 OFFCURVE",
"888 179 OFFCURVE",
"898 172 CURVE SMOOTH",
"910 167 OFFCURVE",
"919 165 OFFCURVE",
"932 167 CURVE SMOOTH"
);
}
);
width = 1132;
}
);
unicode = E216;
},
{
glyphname = uniE217;
lastChange = "2012-08-09 08:55:34 -0700";
layers = (
{
layerId = "8581214D-6E4F-46FC-B69F-48918E6333A9";
name = Regular;
paths = (
{
closed = 1;
nodes = (
"601 125 OFFCURVE",
"604 146 OFFCURVE",
"607 166 CURVE",
"426 166 LINE",
"426 -62 LINE",
"648 -62 LINE",
"618 -13 OFFCURVE",
"601 45 OFFCURVE",
"601 105 CURVE SMOOTH"
);
},
{
closed = 1;
nodes = (
"649 288 OFFCURVE",
"689 337 OFFCURVE",
"739 374 CURVE",
"306 374 LINE",
"306 502 LINE",
"504 502 LINE",
"504 733 LINE",
"36 733 LINE",
"36 502 LINE",
"236 502 LINE",
"236 306 LINE",
"306 306 LINE",
"626 306 LINE",
"626 229 LINE"
);
},
{
closed = 1;
nodes = (
"812 502 LINE",
"1013 502 LINE",
"1013 429 LINE",
"1036 424 OFFCURVE",
"1059 415 OFFCURVE",
"1081 404 CURVE",
"1081 502 LINE",
"1280 502 LINE",
"1280 733 LINE",
"812 733 LINE"
);
},
{
closed = 1;
nodes = (
"832 394 OFFCURVE",
"882 406 OFFCURVE",
"935 406 CURVE SMOOTH",
"988 406 OFFCURVE",
"1039 392 OFFCURVE",
"1083 368 CURVE SMOOTH",
"1127 342 OFFCURVE",
"1163 305 OFFCURVE",
"1191 259 CURVE SMOOTH",
"1217 214 OFFCURVE",
"1230 165 OFFCURVE",
"1230 112 CURVE SMOOTH",
"1230 58 OFFCURVE",
"1215 8 OFFCURVE",
"1191 -36 CURVE SMOOTH",
"1165 -80 OFFCURVE",
"1128 -117 OFFCURVE",
"1083 -144 CURVE SMOOTH",
"1036 -170 OFFCURVE",
"988 -184 OFFCURVE",
"935 -184 CURVE SMOOTH",
"882 -184 OFFCURVE",
"831 -169 OFFCURVE",
"787 -144 CURVE SMOOTH",
"743 -118 OFFCURVE",
"706 -83 OFFCURVE",
"679 -36 CURVE SMOOTH",
"653 9 OFFCURVE",
"639 58 OFFCURVE",
"639 112 CURVE SMOOTH",
"639 165 OFFCURVE",
"655 216 OFFCURVE",
"679 259 CURVE SMOOTH",
"705 303 OFFCURVE",
"741 340 OFFCURVE",
"787 368 CURVE SMOOTH"
);
},
{
closed = 1;
nodes = (
"854 354 OFFCURVE",
"813 335 OFFCURVE",
"779 309 CURVE SMOOTH",
"743 280 OFFCURVE",
"716 243 OFFCURVE",
"700 202 CURVE",
"700 202 OFFCURVE",
"701 202 OFFCURVE",
"704 202 CURVE",
"709 201 OFFCURVE",
"716 201 OFFCURVE",
"723 201 CURVE",
"727 201 OFFCURVE",
"730 201 OFFCURVE",
"731 199 CURVE",
"739 198 OFFCURVE",
"754 195 OFFCURVE",
"761 191 CURVE SMOOTH",
"764 188 OFFCURVE",
"767 187 OFFCURVE",
"768 183 CURVE SMOOTH",
"769 179 OFFCURVE",
"767 169 OFFCURVE",
"760 157 CURVE",
"753 143 OFFCURVE",
"749 131 OFFCURVE",
"749 119 CURVE SMOOTH",
"749 102 OFFCURVE",
"760 91 OFFCURVE",
"772 84 CURVE SMOOTH",
"784 78 OFFCURVE",
"795 67 OFFCURVE",
"795 54 CURVE SMOOTH",
"795 45 OFFCURVE",
"797 31 OFFCURVE",
"801 15 CURVE",
"804 -3 OFFCURVE",
"806 -13 OFFCURVE",
"806 -13 CURVE SMOOTH",
"806 -18 OFFCURVE",
"816 -33 OFFCURVE",
"827 -47 CURVE SMOOTH",
"839 -61 OFFCURVE",
"852 -73 OFFCURVE",
"860 -73 CURVE SMOOTH",
"867 -73 OFFCURVE",
"867 -54 OFFCURVE",
"867 -43 CURVE",
"867 -37 OFFCURVE",
"867 -32 OFFCURVE",
"865 -25 CURVE SMOOTH",
"865 -18 OFFCURVE",
"864 -13 OFFCURVE",
"864 -9 CURVE SMOOTH",
"862 -6 OFFCURVE",
"862 -3 OFFCURVE",
"862 -2 CURVE",
"865 24 OFFCURVE",
"872 57 OFFCURVE",
"886 72 CURVE SMOOTH",
"893 79 OFFCURVE",
"901 84 OFFCURVE",
"908 87 CURVE SMOOTH",
"921 94 OFFCURVE",
"936 104 OFFCURVE",
"942 116 CURVE",
"949 142 OFFCURVE",
"951 158 OFFCURVE",
"942 173 CURVE SMOOTH",
"932 188 OFFCURVE",
"921 195 OFFCURVE",
"905 202 CURVE SMOOTH",
"888 209 OFFCURVE",
"879 210 OFFCURVE",
"867 212 CURVE SMOOTH",
"860 213 OFFCURVE",
"856 214 OFFCURVE",
"854 214 CURVE",
"847 217 OFFCURVE",
"838 218 OFFCURVE",
"830 218 CURVE",
"820 218 OFFCURVE",
"812 218 OFFCURVE",
"806 217 CURVE SMOOTH",
"802 216 OFFCURVE",
"795 218 OFFCURVE",
"790 224 CURVE",
"784 229 OFFCURVE",
"779 236 OFFCURVE",
"779 243 CURVE SMOOTH",
"779 247 OFFCURVE",
"782 253 OFFCURVE",
"789 259 CURVE SMOOTH",
"794 266 OFFCURVE",
"802 273 OFFCURVE",
"810 281 CURVE",
"819 290 OFFCURVE",
"824 295 OFFCURVE",
"827 301 CURVE",
"834 311 OFFCURVE",
"841 316 OFFCURVE",
"852 322 CURVE SMOOTH",
"857 327 OFFCURVE",
"862 329 OFFCURVE",
"868 335 CURVE",
"869 336 OFFCURVE",
"871 337 OFFCURVE",
"873 339 CURVE SMOOTH",
"876 340 OFFCURVE",
"879 343 OFFCURVE",
"884 346 CURVE",
"893 351 OFFCURVE",
"898 357 OFFCURVE",
"901 361 CURVE"
);
},
{
closed = 1;
nodes = (
"1054 303 LINE SMOOTH",
"1066 309 OFFCURVE",
"1075 296 OFFCURVE",
"1072 284 CURVE",
"1070 279 OFFCURVE",
"1066 273 OFFCURVE",
"1061 268 CURVE SMOOTH",
"1049 258 OFFCURVE",
"1036 242 OFFCURVE",
"1032 225 CURVE SMOOTH",
"1029 216 OFFCURVE",
"1033 203 OFFCURVE",
"1039 191 CURVE SMOOTH",
"1046 179 OFFCURVE",
"1054 168 OFFCURVE",
"1062 162 CURVE SMOOTH",
"1072 157 OFFCURVE",
"1084 154 OFFCURVE",
"1096 153 CURVE",
"1105 153 OFFCURVE",
"1111 149 OFFCURVE",
"1117 140 CURVE SMOOTH",
"1122 134 OFFCURVE",
"1127 124 OFFCURVE",
"1129 116 CURVE",
"1131 112 OFFCURVE",
"1132 108 OFFCURVE",
"1132 104 CURVE",
"1133 95 OFFCURVE",
"1135 86 OFFCURVE",
"1135 71 CURVE SMOOTH",
"1135 54 OFFCURVE",
"1133 38 OFFCURVE",
"1131 23 CURVE",
"1128 16 OFFCURVE",
"1127 9 OFFCURVE",
"1125 5 CURVE",
"1117 -17 OFFCURVE",
"1124 -32 OFFCURVE",
"1135 -42 CURVE",
"1169 4 OFFCURVE",
"1187 54 OFFCURVE",
"1187 112 CURVE SMOOTH",
"1187 165 OFFCURVE",
"1169 217 OFFCURVE",
"1139 259 CURVE SMOOTH",
"1109 301 OFFCURVE",
"1065 333 OFFCURVE",
"1014 350 CURVE",
"1001 332 OFFCURVE",
"1003 309 OFFCURVE",
"1016 299 CURVE",
"1021 294 OFFCURVE",
"1027 292 OFFCURVE",
"1033 295 CURVE"
);
},
{
closed = 1;
nodes = (
"882 -136 OFFCURVE",
"909 -140 OFFCURVE",
"935 -140 CURVE SMOOTH",
"984 -140 OFFCURVE",
"1031 -126 OFFCURVE",
"1073 -98 CURVE",
"1069 -89 OFFCURVE",
"1058 -84 OFFCURVE",
"1044 -80 CURVE SMOOTH",
"1031 -77 OFFCURVE",
"1014 -77 OFFCURVE",
"1001 -77 CURVE SMOOTH",
"991 -78 OFFCURVE",
"977 -81 OFFCURVE",
"961 -88 CURVE SMOOTH",
"953 -91 OFFCURVE",
"946 -94 OFFCURVE",
"942 -96 CURVE SMOOTH",
"936 -98 OFFCURVE",
"934 -98 OFFCURVE",
"932 -99 CURVE",
"932 -99 OFFCURVE",
"929 -99 OFFCURVE",
"927 -100 CURVE SMOOTH",
"923 -100 OFFCURVE",
"919 -102 OFFCURVE",
"913 -103 CURVE",
"901 -107 OFFCURVE",
"893 -109 OFFCURVE",
"886 -109 CURVE SMOOTH",
"880 -109 OFFCURVE",
"876 -113 OFFCURVE",
"871 -117 CURVE",
"864 -122 OFFCURVE",
"860 -126 OFFCURVE",
"856 -128 CURVE"
);
}
);
width = 1332;
}
);
unicode = E217;
},
{
glyphname = uniE218;
lastChange = "2012-08-09 08:55:34 -0700";
layers = (
{
layerId = "8581214D-6E4F-46FC-B69F-48918E6333A9";
name = Regular;
paths = (
{
closed = 1;
nodes = (
"757 -43 OFFCURVE",
"757 -42 OFFCURVE",
"757 -42 CURVE",
"757 -41 OFFCURVE",
"756 -39 OFFCURVE",
"756 -38 CURVE",
"751 -31 OFFCURVE",
"750 -26 OFFCURVE",
"748 -22 CURVE",
"662 14 LINE",
"662 88 LINE",
"748 126 LINE",
"758 147 LINE",
"722 234 LINE",
"774 286 LINE",
"784 282 LINE",
"782 292 OFFCURVE",
"781 302 OFFCURVE",
"781 312 CURVE SMOOTH",
"781 326 OFFCURVE",
"784 336 OFFCURVE",
"791 341 CURVE",
"802 356 OFFCURVE",
"823 377 OFFCURVE",
"832 423 CURVE SMOOTH",
"834 437 OFFCURVE",
"844 443 OFFCURVE",
"854 447 CURVE",
"857 449 OFFCURVE",
"863 453 OFFCURVE",
"867 463 CURVE SMOOTH",
"875 481 OFFCURVE",
"880 530 OFFCURVE",
"857 540 CURVE",
"870 621 LINE",
"873 646 OFFCURVE",
"864 680 OFFCURVE",
"839 715 CURVE SMOOTH",
"815 750 OFFCURVE",
"760 777 OFFCURVE",
"688 777 CURVE SMOOTH",
"615 777 OFFCURVE",
"561 750 OFFCURVE",
"537 715 CURVE SMOOTH",
"512 680 OFFCURVE",
"503 646 OFFCURVE",
"505 621 CURVE SMOOTH",
"507 598 OFFCURVE",
"510 570 OFFCURVE",
"517 540 CURVE",
"513 537 LINE",
"509 535 OFFCURVE",
"503 523 OFFCURVE",
"503 513 CURVE SMOOTH",
"502 502 OFFCURVE",
"502 489 OFFCURVE",
"505 478 CURVE SMOOTH",
"507 466 OFFCURVE",
"512 450 OFFCURVE",
"522 447 CURVE",
"531 443 OFFCURVE",
"540 437 OFFCURVE",
"543 423 CURVE SMOOTH",
"551 377 OFFCURVE",
"572 356 OFFCURVE",
"584 341 CURVE",
"591 336 OFFCURVE",
"593 326 OFFCURVE",
"593 312 CURVE SMOOTH",
"593 277 OFFCURVE",
"584 248 OFFCURVE",
"561 226 CURVE SMOOTH",
"538 203 OFFCURVE",
"500 184 OFFCURVE",
"444 162 CURVE SMOOTH",
"386 141 OFFCURVE",
"341 122 OFFCURVE",
"307 102 CURVE SMOOTH",
"273 81 OFFCURVE",
"258 64 OFFCURVE",
"258 50 CURVE SMOOTH",
"258 -46 LINE",
"757 -46 LINE",
"758 -43 LINE"
);
},
{
closed = 1;
nodes = (
"1194 21 LINE",
"1123 -8 LINE",
"1121 -15 OFFCURVE",
"1119 -21 OFFCURVE",
"1118 -24 CURVE",
"1146 -94 LINE",
"1105 -136 LINE",
"1033 -108 LINE",
"1029 -110 OFFCURVE",
"1025 -112 OFFCURVE",
"1016 -115 CURVE",
"988 -186 LINE",
"929 -186 LINE",
"899 -115 LINE",
"898 -115 OFFCURVE",
"895 -114 OFFCURVE",
"892 -112 CURVE",
"889 -111 OFFCURVE",
"885 -110 OFFCURVE",
"881 -108 CURVE",
"812 -136 LINE",
"770 -96 LINE",
"798 -25 LINE",
"798 -24 OFFCURVE",
"798 -24 OFFCURVE",
"798 -22 CURVE",
"798 -22 OFFCURVE",
"796 -21 OFFCURVE",
"796 -19 CURVE",
"794 -15 OFFCURVE",
"791 -11 OFFCURVE",
"791 -8 CURVE",
"722 21 LINE",
"722 81 LINE",
"791 110 LINE",
"798 127 LINE",
"770 198 LINE",
"811 240 LINE",
"881 210 LINE",
"885 212 OFFCURVE",
"889 215 OFFCURVE",
"892 215 CURVE",
"895 216 OFFCURVE",
"898 217 OFFCURVE",
"899 217 CURVE",
"928 288 LINE",
"987 288 LINE",
"1016 217 LINE",
"1022 216 OFFCURVE",
"1028 213 OFFCURVE",
"1033 210 CURVE",
"1104 240 LINE",
"1146 198 LINE",
"1118 127 LINE",
"1119 123 OFFCURVE",
"1122 117 OFFCURVE",
"1123 110 CURVE",
"1194 81 LINE"
);
},
{
closed = 1;
nodes = (
"912 -28 OFFCURVE",
"933 -36 OFFCURVE",
"957 -36 CURVE SMOOTH",
"981 -36 OFFCURVE",
"1004 -26 OFFCURVE",
"1021 -11 CURVE SMOOTH",
"1036 5 OFFCURVE",
"1046 27 OFFCURVE",
"1046 51 CURVE SMOOTH",
"1046 75 OFFCURVE",
"1036 99 OFFCURVE",
"1021 114 CURVE SMOOTH",
"1004 130 OFFCURVE",
"981 140 OFFCURVE",
"957 140 CURVE SMOOTH",
"933 140 OFFCURVE",
"911 130 OFFCURVE",
"895 114 CURVE SMOOTH",
"878 99 OFFCURVE",
"868 75 OFFCURVE",
"868 51 CURVE SMOOTH",
"868 27 OFFCURVE",
"877 6 OFFCURVE",
"895 -11 CURVE SMOOTH"
);
}
);
width = 1332;
}
);
unicode = E218;
},
{
glyphname = uniE219;
lastChange = "2012-08-09 08:55:34 -0700";
layers = (
{
layerId = "8581214D-6E4F-46FC-B69F-48918E6333A9";
name = Regular;
paths = (
{
closed = 1;
nodes = (
"1083 536 LINE",
"302 536 LINE",
"302 592 LINE SMOOTH",
"302 624 OFFCURVE",
"325 644 OFFCURVE",
"343 646 CURVE",
"356 648 LINE",
"1028 648 LINE SMOOTH",
"1029 648 OFFCURVE",
"1032 648 OFFCURVE",
"1035 648 CURVE",
"1039 647 OFFCURVE",
"1054 643 OFFCURVE",
"1064 636 CURVE",
"1073 630 OFFCURVE",
"1083 613 OFFCURVE",
"1083 592 CURVE SMOOTH"
);
},
{
closed = 1;
nodes = (
"916 760 LINE SMOOTH",
"917 760 OFFCURVE",
"919 760 OFFCURVE",
"922 760 CURVE",
"927 759 OFFCURVE",
"943 755 OFFCURVE",
"953 749 CURVE",
"961 742 OFFCURVE",
"972 725 OFFCURVE",
"972 704 CURVE",
"413 704 LINE",
"413 736 OFFCURVE",
"436 757 OFFCURVE",
"455 758 CURVE",
"469 760 LINE"
);
},
{
closed = 1;
nodes = (
"1195 536 LINE",
"1195 536 OFFCURVE",
"1220 512 OFFCURVE",
"1225 507 CURVE",
"1229 502 OFFCURVE",
"1240 487 OFFCURVE",
"1242 476 CURVE",
"1243 470 OFFCURVE",
"1243 463 OFFCURVE",
"1243 453 CURVE SMOOTH",
"1243 444 OFFCURVE",
"1242 435 OFFCURVE",
"1239 423 CURVE SMOOTH",
"1215 281 LINE",
"1175 48 LINE SMOOTH",
"1160 -35 OFFCURVE",
"1153 -77 OFFCURVE",
"1152 -82 CURVE",
"1147 -118 OFFCURVE",
"1119 -136 OFFCURVE",
"1098 -137 CURVE SMOOTH",
"1083 -139 LINE",
"302 -139 LINE SMOOTH",
"297 -139 OFFCURVE",
"291 -139 OFFCURVE",
"284 -137 CURVE",
"271 -136 OFFCURVE",
"238 -118 OFFCURVE",
"232 -82 CURVE",
"232 -77 OFFCURVE",
"225 -35 OFFCURVE",
"210 48 CURVE SMOOTH",
"170 281 LINE",
"145 423 LINE SMOOTH",
"143 435 OFFCURVE",
"142 444 OFFCURVE",
"142 453 CURVE SMOOTH",
"142 471 OFFCURVE",
"142 480 OFFCURVE",
"150 493 CURVE SMOOTH",
"159 506 OFFCURVE",
"160 507 OFFCURVE",
"174 521 CURVE",
"189 536 LINE",
"222 569 LINE",
"222 479 LINE",
"1162 479 LINE",
"1162 569 LINE"
);
},
{
closed = 1;
nodes = (
"916 232 LINE",
"916 344 LINE",
"837 344 LINE",
"837 254 LINE",
"547 254 LINE",
"547 344 LINE",
"469 344 LINE",
"469 232 LINE SMOOTH",
"469 231 OFFCURVE",
"469 229 OFFCURVE",
"470 226 CURVE",
"470 221 OFFCURVE",
"475 205 OFFCURVE",
"481 196 CURVE",
"488 186 OFFCURVE",
"503 176 OFFCURVE",
"525 176 CURVE SMOOTH",
"860 176 LINE SMOOTH",
"892 176 OFFCURVE",
"912 199 OFFCURVE",
"914 219 CURVE"
);
}
);
width = 1332;
}
);
unicode = E219;
},
{
glyphname = uniE300;
lastChange = "2012-08-09 08:55:34 -0700";
layers = (
{
layerId = "8581214D-6E4F-46FC-B69F-48918E6333A9";
name = Regular;
paths = (
{
closed = 1;
nodes = (
"80 3 LINE",
"80 248 LINE",
"525 248 LINE",
"525 3 LINE"
);
},
{
closed = 1;
nodes = (
"70 435 LINE",
"70 701 LINE",
"535 701 LINE",
"535 435 LINE"
);
},
{
closed = 1;
nodes = (
"515 456 LINE",
"515 680 LINE",
"91 680 LINE",
"91 456 LINE"
);
},
{
closed = 1;
nodes = (
"292 248 LINE",
"292 435 LINE",
"312 435 LINE",
"312 248 LINE"
);
}
);
width = 600;
}
);
unicode = E300;
},
{
glyphname = uniE301;
lastChange = "2012-08-09 08:55:34 -0700";
layers = (
{
layerId = "8581214D-6E4F-46FC-B69F-48918E6333A9";
name = Regular;
paths = (
{
closed = 1;
nodes = (
"89 463 LINE",
"89 700 LINE",
"520 700 LINE",
"520 463 LINE"
);
},
{
closed = 1;
nodes = (
"79 24 LINE",
"79 281 LINE",
"530 281 LINE",
"530 24 LINE"
);
},
{
closed = 1;
nodes = (
"510 44 LINE",
"510 261 LINE",
"99 261 LINE",
"99 44 LINE"
);
},
{
closed = 1;
nodes = (
"283 281 LINE",
"283 463 LINE",
"303 463 LINE",
"303 281 LINE"
);
}
);
width = 600;
}
);
unicode = E301;
},
{
glyphname = uniE302;
lastChange = "2012-08-09 08:55:34 -0700";
layers = (
{
layerId = "8581214D-6E4F-46FC-B69F-48918E6333A9";
name = Regular;
paths = (
{
closed = 1;
nodes = (
"21 161 LINE",
"21 388 LINE",
"437 388 LINE",
"437 161 LINE"
);
},
{
closed = 1;
nodes = (
"585 151 LINE",
"585 398 LINE",
"1020 398 LINE",
"1020 151 LINE"
);
},
{
closed = 1;
nodes = (
"1001 170 LINE",
"1001 378 LINE",
"604 378 LINE",
"604 170 LINE"
);
},
{
closed = 1;
nodes = (
"229 501 LINE",
"803 501 LINE",
"803 482 LINE",
"229 482 LINE"
);
},
{
closed = 1;
nodes = (
"249 501 LINE",
"249 361 LINE",
"229 361 LINE",
"229 501 LINE"
);
},
{
closed = 1;
nodes = (
"803 501 LINE",
"803 378 LINE",
"783 378 LINE",
"783 501 LINE"
);
}
);
width = 1030;
}
);
unicode = E302;
},
{
glyphname = uniE303;
lastChange = "2012-08-09 08:55:34 -0700";
layers = (
{
layerId = "8581214D-6E4F-46FC-B69F-48918E6333A9";
name = Regular;
paths = (
{
closed = 1;
nodes = (
"14 172 LINE",
"14 401 LINE",
"432 401 LINE",
"432 172 LINE"
);
},
{
closed = 1;
nodes = (
"580 162 LINE",
"580 411 LINE",
"1017 411 LINE",
"1017 162 LINE"
);
},
{
closed = 1;
nodes = (
"998 182 LINE",
"998 391 LINE",
"599 391 LINE",
"599 182 LINE"
);
},
{
closed = 1;
nodes = (
"412 301 LINE",
"588 301 LINE",
"588 282 LINE",
"412 282 LINE"
);
}
);
width = 1030;
}
);
unicode = E303;
},
{
glyphname = uniE304;
lastChange = "2012-09-04 10:41:08 -0700";
layers = (
{
layerId = "8581214D-6E4F-46FC-B69F-48918E6333A9";
name = Regular;
paths = (
{
closed = 1;
nodes = (
"779 801 LINE",
"779 514 LINE",
"911 495 OFFCURVE",
"1027 457 OFFCURVE",
"1106 412 CURVE SMOOTH",
"1185 367 OFFCURVE",
"1250 312 OFFCURVE",
"1290 257 CURVE SMOOTH",
"1329 201 OFFCURVE",
"1360 147 OFFCURVE",
"1373 100 CURVE SMOOTH",
"1385 53 OFFCURVE",
"1394 16 OFFCURVE",
"1395 -5 CURVE",
"1395 -20 LINE",
"1392 -13 OFFCURVE",
"1386 -4 OFFCURVE",
"1378 7 CURVE SMOOTH",
"1362 29 OFFCURVE",
"1289 93 OFFCURVE",
"1205 132 CURVE SMOOTH",
"1121 171 OFFCURVE",
"959 201 OFFCURVE",
"779 185 CURVE",
"779 -99 LINE",
"328 350 LINE"
);
},
{
closed = 1;
nodes = (
"451 801 LINE",
"451 637 LINE",
"164 350 LINE",
"451 64 LINE",
"451 -99 LINE",
"0 350 LINE"
);
}
